<?xml version="1.0" encoding="UTF-8" standalone="no"?>
<svg
   xmlns:dc="http://purl.org/dc/elements/1.1/"
   xmlns:cc="http://creativecommons.org/ns#"
   xmlns:rdf="http://www.w3.org/1999/02/22-rdf-syntax-ns#"
   xmlns:svg="http://www.w3.org/2000/svg"
   xmlns="http://www.w3.org/2000/svg"
   viewBox="0 0 666.66669 666.66669"
   height="666.66669"
   width="666.66669"
   xml:space="preserve"
   id="svg2"
   version="1.1"><metadata
     id="metadata8"><rdf:RDF><cc:Work
         rdf:about=""><dc:format>image/svg+xml</dc:format><dc:type
           rdf:resource="http://purl.org/dc/dcmitype/StillImage" /></cc:Work></rdf:RDF></metadata><defs
     id="defs6"><clipPath
       id="clipPath234"
       clipPathUnits="userSpaceOnUse"><path
         id="path232"
         d="m 2913.5,3036.4 c -42.29,75.18 -119.83,103.38 -145.67,152.72 -25.85,49.34 -16.45,169.17 -143.33,197.36 -72.27,16.06 -111.76,-2.18 -138.01,-20.43 -19.83,-13.78 -32.11,-27.57 -45.25,-26.56 -30.54,2.35 -138.62,28.2 -187.96,-7.05 -49.34,-35.24 -58.74,-61.09 -86.94,-75.18 -28.19,-14.1 -77.53,-5.81 -119.82,-51.07 -42.3,-45.26 -89.29,-162.74 -84.59,-200.33 4.7,-37.6 25.19,-124.53 -0.32,-164.47 -25.52,-39.95 -79.56,-93.99 -74.86,-145.67 4.7,-51.69 18.22,-126.88 -0.29,-157.42 -18.51,-30.55 -107.79,-79.89 -91.35,-115.13 16.45,-35.25 123.38,-85.31 199.72,-53.85 30.08,12.41 100.06,54.16 145.48,0 29.16,-34.77 136.92,-47.57 185.8,13.91 16.35,20.56 57.85,-4.28 82.84,-8.81 24.99,-4.53 114.52,-9.2 114.52,-9.2 l 84.59,168.38 260.8,317.19 c 0,0 86.93,110.42 44.64,185.61" /></clipPath><clipPath
       id="clipPath278"
       clipPathUnits="userSpaceOnUse"><path
         id="path276"
         d="m 2871.6,2859.5 c -11.7,12.65 -20.9,27.92 -25.78,44.35 l -1.07,0.38 c -23.61,11.18 -88.23,258.46 -210.01,301.96 0,0 17.4,-93.2 -9.94,-139.18 -27.34,-45.98 -96.92,-105.62 -99.41,-144.15 0,0 33.55,-37.27 48.46,-94.44 14.91,-57.16 -1.24,-86.98 19.88,-134.2 21.13,-47.22 43.5,-43.49 42.25,-54.68 -1.24,-11.18 -79.52,-8.69 -144.14,62.14 -64.62,70.83 -145.43,9.21 -108.75,-89.47 36.68,-98.69 147.27,-64.62 147.27,-64.62 0,0 2.7,-142.05 -30.36,-169.7 -19.74,-16.51 -57.23,-10.27 -91.05,-3.47 l -4.57,-58.75 c 0,0 -17.41,1.17 -44.51,-0.5 22.62,-69.78 83.44,-218.38 184.94,-191.99 93.05,24.2 132.21,141.6 147.21,208.6 -25.69,3.6 -51.83,4.34 -77.1,-0.09 0,0 -10.78,161.48 26.95,168.31 12.97,2.35 35.51,1.02 63.23,-0.31 52.86,-2.53 124.55,-5.06 184.65,17.92 79.94,30.56 55.25,243.69 47.66,297.5 -1.89,0.85 -3.78,1.69 -5.64,2.58 -22.19,10.55 -43.49,23.77 -60.17,41.81" /></clipPath></defs><g
     transform="matrix(1.3333333,0,0,-1.3333333,0,666.66667)"
     id="g10"><g
       transform="scale(0.1)"
       id="g12"><path
         id="path14"
         style="fill:#d0ddf3;fill-opacity:1;fill-rule:nonzero;stroke:none"
         d="m 3661.38,3539.4 v -876.27 l 556.43,-141.11 V 3888.4 l -556.43,-349" /><path
         id="path16"
         style="fill:#adb9d0;fill-opacity:1;fill-rule:nonzero;stroke:none"
         d="m 3897.55,2688.75 -236.17,28.19 v 91.93 c 10.77,22.1 4.77,59 0,84.06 v 43.66 c 7.61,28.32 22.55,74.99 14.87,77.87 -3.56,1.33 -8.99,3.13 -14.87,4.63 v 92.84 c 3.66,4.01 6.03,7.17 6.03,8.61 0,2.48 -2.72,8.07 -6.03,13.94 V 3268 l 236.17,75.98 v -655.23" /><path
         id="path18"
         style="fill:#728ed0;fill-opacity:1;fill-rule:nonzero;stroke:none"
         d="m 3561.29,3296.86 v -523.89 l 297.78,-35.54 v 655.23 l -297.78,-95.8" /><path
         id="path20"
         style="fill:#ffffff;fill-opacity:1;fill-rule:nonzero;stroke:none"
         d="m 3608.01,3228.59 c 9.08,32 34.9,6.29 50.69,10.32 20.06,5.13 8.85,16.27 40.43,17.81 10.02,0.49 17.88,-4.57 28.77,-2.16 19.23,4.25 33.17,18.36 54.12,17.5 9.66,-0.4 9.64,14.6 0,15 -21.47,0.88 -34.06,-12.35 -53.74,-16.98 -18.02,-4.24 -32.49,8.83 -49.27,3.32 -4.03,-1.33 -6.66,-4.78 -10.49,-6.2 -2.36,-1.73 -4.26,-3.94 -5.7,-6.61 -9.76,-5.56 -18.95,-5.71 -27.58,-0.45 -6.55,-0.04 -10.85,1.26 -17.06,-0.43 -14.04,-3.81 -20.85,-13.79 -24.63,-27.13 -2.65,-9.31 11.82,-13.28 14.46,-3.99" /><path
         id="path22"
         style="fill:#ffffff;fill-opacity:1;fill-rule:nonzero;stroke:none"
         d="m 3610.89,3166.53 c 27.47,22.71 57.87,13.88 89.79,21.39 30.4,7.14 57.3,20.23 89.45,18.22 9.64,-0.6 9.61,14.4 0,15 -40.6,2.54 -74.81,-19.82 -114.49,-22.37 -33.11,-2.13 -48.29,0.74 -75.35,-21.64 -7.45,-6.15 3.21,-16.71 10.6,-10.6" /><path
         id="path24"
         style="fill:#ffffff;fill-opacity:1;fill-rule:nonzero;stroke:none"
         d="m 3625.48,3097.24 c 10.28,26.28 48.98,8.95 67.64,11.42 10.53,1.39 16.01,4.7 24.44,10.02 18.12,11.43 26.09,9.53 46.03,8.83 15.83,-0.54 27.76,8.19 40.04,17.42 7.63,5.73 0.16,18.76 -7.57,12.95 -21.87,-16.43 -41.33,-6.14 -63.24,-11.5 -6.59,-1.62 -11.15,-7.24 -16.92,-10.11 -15.95,-7.96 -29.64,-11.13 -46.76,-11.18 -24.73,-0.08 -47.54,3.19 -58.12,-23.86 -3.52,-8.99 10.98,-12.89 14.46,-3.99" /><path
         id="path26"
         style="fill:#ffffff;fill-opacity:1;fill-rule:nonzero;stroke:none"
         d="m 3602.55,3027.76 c 19.1,6.86 36.75,2.87 56.12,5.38 11.99,1.55 19.23,6.62 30.37,10.81 35.15,13.21 73.65,6.81 110.07,21 8.9,3.47 5.03,17.98 -3.99,14.46 -24.19,-9.43 -42.63,-12.36 -69.25,-11.57 -11.53,0.35 -17.51,1.12 -28.67,-2.75 -19.8,-6.88 -34,-15.92 -56.41,-17.37 -15.39,-1 -27.56,-0.23 -42.22,-5.5 -9.02,-3.24 -5.13,-17.74 3.98,-14.46" /><path
         id="path28"
         style="fill:#ffffff;fill-opacity:1;fill-rule:nonzero;stroke:none"
         d="m 3602.31,2955.99 c 38.54,8.42 75.98,5.94 114.51,10.47 29.36,3.46 54.33,20 83.56,23.98 9.53,1.3 5.47,15.76 -3.98,14.47 -36.08,-4.92 -64.96,-22.82 -102.34,-24.23 -32.79,-1.24 -63.56,-3.19 -95.73,-10.23 -9.43,-2.06 -5.44,-16.52 3.98,-14.46" /><path
         id="path30"
         style="fill:#ffffff;fill-opacity:1;fill-rule:nonzero;stroke:none"
         d="m 3615.81,2893.75 c 22.84,3.71 40.89,13.04 65.23,9.75 10.15,-1.38 18.8,-5.82 29.26,-5.83 30.17,-0.02 56.81,26.67 87.2,13.78 8.79,-3.72 16.44,9.19 7.57,12.95 -30.32,12.86 -48.72,-4.17 -78.34,-9.21 -21.7,-3.69 -39.53,5.33 -60.25,5.09 -18.64,-0.21 -36.39,-9.1 -54.66,-12.07 -9.5,-1.55 -5.47,-16 3.99,-14.46" /><path
         id="path32"
         style="fill:#a9d92f;fill-opacity:1;fill-rule:nonzero;stroke:none"
         d="m 3939.6,3507.76 194.47,86.56" /><path
         id="path34"
         style="fill:#ffffff;fill-opacity:1;fill-rule:nonzero;stroke:none"
         d="m 3943.66,3498.62 194.47,86.56 c 5.05,2.25 7.32,8.16 5.07,13.2 -2.24,5.05 -8.15,7.32 -13.2,5.07 l -194.47,-86.55 c -5.05,-2.25 -7.32,-8.16 -5.07,-13.21 2.24,-5.04 8.16,-7.31 13.2,-5.07" /><path
         id="path36"
         style="fill:#a9d92f;fill-opacity:1;fill-rule:nonzero;stroke:none"
         d="m 3944.08,3437.85 189.99,72.41" /><path
         id="path38"
         style="fill:#ffffff;fill-opacity:1;fill-rule:nonzero;stroke:none"
         d="m 3947.64,3428.5 189.99,72.41 c 5.16,1.97 7.75,7.75 5.78,12.91 -1.97,5.16 -7.74,7.75 -12.9,5.78 l -189.99,-72.41 c -5.16,-1.96 -7.75,-7.74 -5.78,-12.9 1.96,-5.16 7.74,-7.75 12.9,-5.79" /><path
         id="path40"
         style="fill:#a9d92f;fill-opacity:1;fill-rule:nonzero;stroke:none"
         d="m 3948.57,3367.94 185.5,58.26" /><path
         id="path42"
         style="fill:#ffffff;fill-opacity:1;fill-rule:nonzero;stroke:none"
         d="m 3951.56,3358.4 185.5,58.26 c 5.27,1.65 8.2,7.26 6.55,12.53 -1.66,5.27 -7.27,8.2 -12.54,6.55 l -185.5,-58.26 c -5.27,-1.66 -8.2,-7.27 -6.54,-12.54 1.65,-5.27 7.26,-8.2 12.53,-6.54" /><path
         id="path44"
         style="fill:#a9d92f;fill-opacity:1;fill-rule:nonzero;stroke:none"
         d="m 3953.05,3298.03 181.02,44.11" /><path
         id="path46"
         style="fill:#ffffff;fill-opacity:1;fill-rule:nonzero;stroke:none"
         d="m 3955.42,3288.31 181.01,44.11 c 5.37,1.31 8.66,6.72 7.35,12.08 -1.31,5.37 -6.71,8.66 -12.08,7.35 l -181.01,-44.11 c -5.37,-1.31 -8.66,-6.72 -7.35,-12.08 1.31,-5.37 6.71,-8.66 12.08,-7.35" /><path
         id="path48"
         style="fill:#a9d92f;fill-opacity:1;fill-rule:nonzero;stroke:none"
         d="m 3957.54,3228.12 176.53,29.96" /><path
         id="path50"
         style="fill:#ffffff;fill-opacity:1;fill-rule:nonzero;stroke:none"
         d="m 3959.21,3218.26 176.53,29.96 c 5.45,0.92 9.11,6.09 8.19,11.53 -0.93,5.45 -6.09,9.11 -11.54,8.19 l -176.52,-29.97 c -5.45,-0.92 -9.11,-6.08 -8.19,-11.53 0.92,-5.44 6.09,-9.11 11.53,-8.18" /><path
         id="path52"
         style="fill:#a9d92f;fill-opacity:1;fill-rule:nonzero;stroke:none"
         d="m 4021.09,3147.31 v -86.51 h 98.94 v 107.69 l -98.94,-21.18" /><path
         id="path54"
         style="fill:#c09b2c;fill-opacity:1;fill-rule:nonzero;stroke:none"
         d="m 4021.09,3010.68 v -86.5 l 98.94,-7.94 v 107.69 l -98.94,-13.25" /><path
         id="path56"
         style="fill:#d86736;fill-opacity:1;fill-rule:nonzero;stroke:none"
         d="m 4021.09,2874.94 v -86.51 l 98.94,-15.88 v 107.69 l -98.94,-5.3" /><path
         id="path58"
         style="fill:#ee3a42;fill-opacity:1;fill-rule:nonzero;stroke:none"
         d="m 4021.09,2737.43 v -86.5 l 98.94,-23.83 v 107.69 l -98.94,2.64" /><path
         id="path60"
         style="fill:#f7cab8;fill-opacity:1;fill-rule:nonzero;stroke:none"
         d="m 4217.81,3706.39 v 182.01 l -161.33,-101.19 v 384.35 l 230.9,150.32 h 10 v 6.51 l 249.68,162.54 V 3845.6 l -329.25,-139.21" /><path
         id="path62"
         style="fill:#d5b6b9;fill-opacity:1;fill-rule:nonzero;stroke:none"
         d="m 4056.48,3638.18 v 149.03 l 161.33,101.19 v -182.01 l -161.33,-68.21" /><path
         id="path64"
         style="fill:#ffffff;fill-opacity:1;fill-rule:nonzero;stroke:none"
         d="m 4416.45,4271.82 -276.72,-180 c 45.64,-11.95 114.34,-29.56 126.54,-31.75 12.71,12.9 93.45,128.86 150.18,211.75" /><path
         id="path66"
         style="fill:#ffffff;fill-opacity:1;fill-rule:nonzero;stroke:none"
         d="m 4440.69,3997.54 -12.92,273.1 c -150.85,-220.66 -156.68,-220.78 -160.12,-220.78 -6.7,0 -102.38,24.92 -133.58,33.1 v -212.24 l 306.62,126.82" /><path
         id="path68"
         style="fill:#ec6e3f;fill-opacity:1;fill-rule:nonzero;stroke:none"
         d="m 4336.16,4001.98 v -142.26 l 143.83,57.84 v 153.12 l -143.83,-68.7" /><path
         id="path70"
         style="fill:#ffffff;fill-opacity:1;fill-rule:nonzero;stroke:none"
         d="m 4399.18,3976.2 c 3.66,8.13 7.91,15.5 13.49,22.48 -4.17,1.1 -8.35,2.2 -12.53,3.3 3.99,-22.85 4.74,-45.7 2.65,-68.79 -0.87,-9.61 14.13,-9.55 15,0 2.22,24.48 1.04,48.58 -3.19,72.78 -0.92,5.28 -9.13,7.56 -12.53,3.31 -6.4,-8 -11.62,-16.13 -15.84,-25.51 -3.93,-8.73 8.99,-16.37 12.95,-7.57" /><path
         id="path72"
         style="fill:#ffffff;fill-opacity:1;fill-rule:nonzero;stroke:none"
         d="m 4397.58,3916.54 c 11.45,3.17 22.9,6.35 34.35,9.52 9.29,2.58 5.34,17.05 -3.99,14.46 -11.45,-3.17 -22.9,-6.34 -34.35,-9.52 -9.29,-2.57 -5.35,-17.05 3.99,-14.46" /><path
         id="path74"
         style="fill:#f7cab8;fill-opacity:1;fill-rule:nonzero;stroke:none"
         d="m 3482.66,3333.91 h -660.81 v 663.63 h 660.81 v -663.63" /><path
         id="path76"
         style="fill:#ffffff;fill-opacity:1;fill-rule:nonzero;stroke:none"
         d="m 3133.55,3507.76 h -238.86 v 380.65 h 238.86 v -380.65" /><path
         id="path78"
         style="fill:#ffffff;fill-opacity:1;fill-rule:nonzero;stroke:none"
         d="m 3409.82,3507.76 h -238.85 v 380.65 h 238.85 v -380.65" /><path
         id="path80"
         style="fill:#232917;fill-opacity:1;fill-rule:nonzero;stroke:none"
         d="m 2927.38,3846.07 c 60.08,0 120.17,0 180.26,0 9.65,0 9.67,15 0,15 -60.09,0 -120.18,0 -180.26,0 -9.66,0 -9.67,-15 0,-15" /><path
         id="path82"
         style="fill:#232917;fill-opacity:1;fill-rule:nonzero;stroke:none"
         d="m 2927.38,3814.99 c 60.08,0 120.17,0 180.26,0 9.65,0 9.67,15 0,15 -60.09,0 -120.18,0 -180.26,0 -9.66,0 -9.67,-15 0,-15" /><path
         id="path84"
         style="fill:#232917;fill-opacity:1;fill-rule:nonzero;stroke:none"
         d="m 2927.38,3783.91 c 60.08,0 120.17,0 180.26,0 9.65,0 9.67,15 0,15 -60.09,0 -120.18,0 -180.26,0 -9.66,0 -9.67,-15 0,-15" /><path
         id="path86"
         style="fill:#232917;fill-opacity:1;fill-rule:nonzero;stroke:none"
         d="m 2927.38,3752.83 c 60.08,0 120.17,0 180.26,0 9.65,0 9.67,15 0,15 -60.09,0 -120.18,0 -180.26,0 -9.66,0 -9.67,-15 0,-15" /><path
         id="path88"
         style="fill:#232917;fill-opacity:1;fill-rule:nonzero;stroke:none"
         d="m 2927.38,3721.75 c 60.08,0 120.17,0 180.26,0 9.65,0 9.67,15 0,15 -60.09,0 -120.18,0 -180.26,0 -9.66,0 -9.67,-15 0,-15" /><path
         id="path90"
         style="fill:#232917;fill-opacity:1;fill-rule:nonzero;stroke:none"
         d="m 2927.38,3690.67 c 60.08,0 120.17,0 180.26,0 9.65,0 9.67,15 0,15 -60.09,0 -120.18,0 -180.26,0 -9.66,0 -9.67,-15 0,-15" /><path
         id="path92"
         style="fill:#232917;fill-opacity:1;fill-rule:nonzero;stroke:none"
         d="m 2927.38,3659.59 c 60.08,0 120.17,0 180.26,0 9.65,0 9.67,15 0,15 -60.09,0 -120.18,0 -180.26,0 -9.66,0 -9.67,-15 0,-15" /><path
         id="path94"
         style="fill:#232917;fill-opacity:1;fill-rule:nonzero;stroke:none"
         d="m 2927.38,3628.51 c 60.08,0 120.17,0 180.26,0 9.65,0 9.67,15 0,15 -60.09,0 -120.18,0 -180.26,0 -9.66,0 -9.67,-15 0,-15" /><path
         id="path96"
         style="fill:#232917;fill-opacity:1;fill-rule:nonzero;stroke:none"
         d="m 2927.38,3597.43 c 60.08,0 120.17,0 180.26,0 9.65,0 9.67,15 0,15 -60.09,0 -120.18,0 -180.26,0 -9.66,0 -9.67,-15 0,-15" /><path
         id="path98"
         style="fill:#232917;fill-opacity:1;fill-rule:nonzero;stroke:none"
         d="m 3200.26,3846.07 c 60.09,0 120.17,0 180.26,0 9.65,0 9.67,15 0,15 -60.09,0 -120.17,0 -180.26,0 -9.65,0 -9.67,-15 0,-15" /><path
         id="path100"
         style="fill:#232917;fill-opacity:1;fill-rule:nonzero;stroke:none"
         d="m 3200.26,3814.99 c 60.09,0 120.17,0 180.26,0 9.65,0 9.67,15 0,15 -60.09,0 -120.17,0 -180.26,0 -9.65,0 -9.67,-15 0,-15" /><path
         id="path102"
         style="fill:#232917;fill-opacity:1;fill-rule:nonzero;stroke:none"
         d="m 3200.26,3783.91 c 60.09,0 120.17,0 180.26,0 9.65,0 9.67,15 0,15 -60.09,0 -120.17,0 -180.26,0 -9.65,0 -9.67,-15 0,-15" /><path
         id="path104"
         style="fill:#232917;fill-opacity:1;fill-rule:nonzero;stroke:none"
         d="m 3200.26,3752.83 c 60.09,0 120.17,0 180.26,0 9.65,0 9.67,15 0,15 -60.09,0 -120.17,0 -180.26,0 -9.65,0 -9.67,-15 0,-15" /><path
         id="path106"
         style="fill:#232917;fill-opacity:1;fill-rule:nonzero;stroke:none"
         d="m 3200.26,3721.75 c 60.09,0 120.17,0 180.26,0 9.65,0 9.67,15 0,15 -60.09,0 -120.17,0 -180.26,0 -9.65,0 -9.67,-15 0,-15" /><path
         id="path108"
         style="fill:#232917;fill-opacity:1;fill-rule:nonzero;stroke:none"
         d="m 3200.26,3690.67 c 60.09,0 120.17,0 180.26,0 9.65,0 9.67,15 0,15 -60.09,0 -120.17,0 -180.26,0 -9.65,0 -9.67,-15 0,-15" /><path
         id="path110"
         style="fill:#232917;fill-opacity:1;fill-rule:nonzero;stroke:none"
         d="m 3200.26,3659.59 c 60.09,0 120.17,0 180.26,0 9.65,0 9.67,15 0,15 -60.09,0 -120.17,0 -180.26,0 -9.65,0 -9.67,-15 0,-15" /><path
         id="path112"
         style="fill:#232917;fill-opacity:1;fill-rule:nonzero;stroke:none"
         d="m 3200.26,3628.51 c 60.09,0 120.17,0 180.26,0 9.65,0 9.67,15 0,15 -60.09,0 -120.17,0 -180.26,0 -9.65,0 -9.67,-15 0,-15" /><path
         id="path114"
         style="fill:#232917;fill-opacity:1;fill-rule:nonzero;stroke:none"
         d="m 3200.26,3597.43 c 41.73,0 83.45,0 125.18,0 9.65,0 9.67,15 0,15 -41.73,0 -83.45,0 -125.18,0 -9.65,0 -9.67,-15 0,-15" /><path
         id="path116"
         style="fill:#232917;fill-opacity:1;fill-rule:nonzero;stroke:none"
         d="m 2927.38,3566.35 c 60.08,0 120.17,0 180.26,0 9.65,0 9.67,15 0,15 -60.09,0 -120.18,0 -180.26,0 -9.66,0 -9.67,-15 0,-15" /><path
         id="path118"
         style="fill:#ffffff;fill-opacity:1;fill-rule:nonzero;stroke:none"
         d="m 2898.94,3453.72 c 157.88,0 315.75,0 473.63,0 9.65,0 9.67,15 0,15 -157.88,0 -315.75,0 -473.63,0 -9.65,0 -9.67,-15 0,-15" /><path
         id="path120"
         style="fill:#ffffff;fill-opacity:1;fill-rule:nonzero;stroke:none"
         d="m 2898.94,3421.89 c 78.63,0 157.25,0 235.88,0 9.65,0 9.67,15 0,15 -78.63,0 -157.25,0 -235.88,0 -9.65,0 -9.67,-15 0,-15" /><path
         id="path122"
         style="fill:#f7cab8;fill-opacity:1;fill-rule:nonzero;stroke:none"
         d="m 3162.25,3997.54 h -20 v 335.26 c 0.01,44.23 35.85,80.07 80.08,80.08 h 994.97 c 44.23,-0.01 80.07,-35.85 80.08,-80.08 v -4.41 l -10,-6.51 h -10 v 10.92 c -0.01,16.62 -6.71,31.58 -17.6,42.48 -10.9,10.89 -25.86,17.6 -42.48,17.6 h -994.97 c -16.62,0 -31.57,-6.71 -42.48,-17.6 -10.89,-10.9 -17.59,-25.86 -17.6,-42.48 v -335.26" /><path
         id="path124"
         style="fill:#f2ab8e;fill-opacity:1;fill-rule:nonzero;stroke:none"
         d="m 4297.38,4321.88 h -10 l 10,6.51 v -6.51" /><path
         id="path126"
         style="fill:#f7cab8;fill-opacity:1;fill-rule:nonzero;stroke:none"
         d="M 700.617,1500.66 V 2990.02 L 1333.89,2626.6 v -828 L 700.617,1500.66" /><path
         id="path128"
         style="fill:#ffffff;fill-opacity:1;fill-rule:nonzero;stroke:none"
         d="M 825.063,2712.71 V 1947.5 l 424.117,83.07 v 509.81 l -424.117,172.33" /><path
         id="path130"
         style="fill:#e89b27;fill-opacity:1;fill-rule:nonzero;stroke:none"
         d="m 1249.18,2340.71 -424.117,38 v -169.98 l 424.117,15.62 v 116.36" /><path
         id="path132"
         style="fill:#232917;fill-opacity:1;fill-rule:nonzero;stroke:none"
         d="m 1249.18,2456.78 2.11,9.78 -436.227,94.24 v -191.23 l 444.117,-39.79 v 135.07 l -7.89,1.71 -2.11,-9.78 h -10 v -105.13 l -404.117,36.2 v 148.16 l 412.007,-89 2.11,9.77 h -10 10" /><path
         id="path134"
         style="fill:#232917;fill-opacity:1;fill-rule:nonzero;stroke:none"
         d="m 1249.18,2540.38 3.76,9.27 -437.877,177.92 v -187.23 l 444.117,-95.95 v 102.73 l -6.24,2.53 -3.76,-9.27 h -10 v -71.21 l -404.117,87.31 v 141.38 l 410.347,-166.74 3.77,9.26 h -10 10" /><path
         id="path136"
         style="fill:#232917;fill-opacity:1;fill-rule:nonzero;stroke:none"
         d="m 1249.18,2540.38 -424.117,172.33 v -164.3 l 424.117,-91.63 v 83.6" /><path
         id="path138"
         style="fill:#232917;fill-opacity:1;fill-rule:nonzero;stroke:none"
         d="m 1249.18,2340.71 0.89,9.96 -435.007,38.98 v -191.3 l 444.117,16.36 v 135.15 l -9.11,0.81 -0.89,-9.96 h -10 V 2233.99 L 835.063,2219.1 v 148.67 l 413.227,-37.02 0.89,9.96 h -10 10" /><path
         id="path140"
         style="fill:#232917;fill-opacity:1;fill-rule:nonzero;stroke:none"
         d="m 825.063,2038.46 h -10 v -103.11 l 444.117,86.99 v 97.13 l -444.117,-72.51 v -8.5 h 10 l 1.613,-9.87 412.504,67.35 v -57.14 l -404.117,-79.15 v 78.81 h -10 l 1.613,-9.87 -1.613,9.87" /><path
         id="path142"
         style="fill:#232917;fill-opacity:1;fill-rule:nonzero;stroke:none"
         d="m 1249.18,2224.35 -0.37,9.99 -433.747,-15.97 v -191.68 l 444.117,72.52 v 135.52 l -10.37,-0.39 0.37,-9.99 h -10 v -108.14 l -404.117,-65.99 v 148.87 l 414.487,15.27 -0.37,9.99 h -10 10" /><path
         id="path144"
         style="fill:#232917;fill-opacity:1;fill-rule:nonzero;stroke:none"
         d="m 928.02,2552 c -0.559,-1.56 -0.54,-1.97 -0.653,-2.54 -0.25,-1.78 -0.312,-3.38 -0.433,-6.08 -0.715,-18.1 -0.954,-75.84 -0.957,-148.63 0.003,-171.57 1.375,-425.3 1.375,-425.31 l 20,0.11 c 0,0.04 -0.086,15.85 -0.215,42.32 -0.387,79.39 -1.16,254.27 -1.16,382.88 0,42.87 0.086,80.6 0.3,107.91 0.11,13.65 0.246,24.71 0.422,32.44 0.086,3.87 0.184,6.92 0.285,8.97 0.051,1.01 0.102,1.79 0.141,2.2 l 0.02,0.22 0.003,0.02 -5.066,0.71 5.008,-1.04 0.058,0.33 -5.066,0.71 5.008,-1.04 -8.563,1.77 8.157,-3.14 0.406,1.37 -8.563,1.77 8.157,-3.14 -18.664,7.19" /><path
         id="path146"
         style="fill:#232917;fill-opacity:1;fill-rule:nonzero;stroke:none"
         d="m 1046.83,2541.81 c -0.48,-1.31 -0.51,-1.76 -0.61,-2.27 -0.26,-1.66 -0.31,-2.86 -0.42,-4.92 -0.64,-13.54 -0.85,-55.39 -0.86,-110.83 0,-159.65 1.91,-429.54 1.91,-429.55 l 20,0.14 c 0,0.04 -0.12,16.86 -0.3,44.66 -0.54,83.38 -1.61,265.12 -1.61,384.75 0,32.62 0.08,60.63 0.28,80.73 0.09,10.04 0.21,18.12 0.37,23.75 0.07,2.8 0.16,5.01 0.24,6.46 l 0.11,1.48 -0.2,0.03 0.2,-0.04 v 0.01 l -0.2,0.03 0.2,-0.04 -8.1,1.37 7.65,-2.94 c 0.42,1.16 0.4,1.39 0.45,1.57 l -8.1,1.37 7.65,-2.94 -18.66,7.18" /><path
         id="path148"
         style="fill:#232917;fill-opacity:1;fill-rule:nonzero;stroke:none"
         d="m 1165.64,2531.63 c -0.41,-1.11 -0.48,-1.59 -0.57,-2.05 -0.27,-1.56 -0.31,-2.52 -0.42,-4.14 -0.29,-5.35 -0.47,-15.62 -0.6,-30.11 -0.12,-14.46 -0.17,-33 -0.17,-54.36 0,-145.53 2.46,-421.92 2.46,-421.94 l 20,0.18 c 0,0.05 -0.15,17.27 -0.38,45.46 -0.7,84.54 -2.08,267.29 -2.08,376.3 0,25.15 0.07,46.38 0.25,61.52 0.08,7.57 0.19,13.63 0.33,17.83 0.06,2.09 0.14,3.73 0.21,4.77 l 0.08,0.98 -2.54,0.31 2.51,-0.47 0.03,0.16 -2.54,0.31 2.51,-0.47 -8.23,1.54 7.81,-3.01 c 0.36,0.98 0.37,1.26 0.42,1.47 l -8.23,1.54 7.81,-3.01 -18.66,7.19" /><path
         id="path150"
         style="fill:#eabd92;fill-opacity:1;fill-rule:nonzero;stroke:none"
         d="m 1729.59,1847.4 c 0,0 -369.81,278.56 -386.62,295.37 -16.81,16.81 -191.92,233.58 -203.92,226.38 -12.01,-7.21 -27.53,-24.09 -27.53,-24.09 0,0 -20.69,-14.98 -23.09,-29.39 -2.4,-14.41 112.54,-169.36 105.66,-232.93 -5.35,-49.35 -115.34,-144.08 -105.7,-168.1 9.64,-24.01 37.3,-30.06 49.39,-22.5 12.08,7.55 40.79,48.35 57.41,55.91 16.62,7.55 92.17,4.53 134.48,31.73 19.64,7.55 335.85,-398.98 407.42,-398.98 38.13,0 175.6,105.7 278.36,189.28 -51.02,67.46 -102.04,134.91 -153.07,202.37 -69.12,-69.46 -124,-124.07 -132.79,-125.05" /><path
         id="path152"
         style="fill:#232917;fill-opacity:1;fill-rule:nonzero;stroke:none"
         d="m 1237.24,2219.57 -115.57,135.25 -7.61,-6.5 115.58,-135.24" /><path
         id="path154"
         style="fill:#ffffff;fill-opacity:1;fill-rule:nonzero;stroke:none"
         d="m 826.422,1839.29 212.058,59.79 -2.72,9.63 -212.053,-59.8" /><path
         id="path156"
         style="fill:#ffffff;fill-opacity:1;fill-rule:nonzero;stroke:none"
         d="m 826.617,1776.54 212.063,69.47 -3.12,9.5 -212.052,-69.47" /><path
         id="path158"
         style="fill:#ffffff;fill-opacity:1;fill-rule:nonzero;stroke:none"
         d="m 826.813,1713.8 212.057,79.14 -3.5,9.37 -212.054,-79.14" /><path
         id="path160"
         style="fill:#ffffff;fill-opacity:1;fill-rule:nonzero;stroke:none"
         d="m 826.992,1651.06 212.058,88.81 -3.86,9.23 -212.057,-88.81" /><path
         id="path162"
         style="fill:#d0ddf3;fill-opacity:1;fill-rule:nonzero;stroke:none"
         d="m 1518.51,3248.45 60.71,-232.08 283.16,97.5 -36.42,228.17 -307.45,-93.59" /><path
         id="path164"
         style="fill:#d0ddf3;fill-opacity:1;fill-rule:nonzero;stroke:none"
         d="m 878.918,3678.46 h -10 c -0.008,-12.14 -4.895,-23.04 -12.848,-31.01 -7.965,-7.95 -18.867,-12.84 -31.007,-12.84 -12.141,0 -23.043,4.89 -31.008,12.84 -7.953,7.97 -12.84,18.87 -12.844,31.01 0.004,12.14 4.891,23.04 12.844,31.01 7.965,7.95 18.867,12.84 31.008,12.84 12.14,0 23.042,-4.89 31.007,-12.84 7.953,-7.97 12.84,-18.87 12.848,-31.01 h 10 10 c -0.008,35.27 -28.586,63.85 -63.855,63.85 -35.27,0 -63.848,-28.58 -63.852,-63.85 0.004,-35.27 28.582,-63.84 63.852,-63.85 35.269,0.01 63.847,28.58 63.855,63.85 h -10" /><path
         id="path166"
         style="fill:#d0ddf3;fill-opacity:1;fill-rule:nonzero;stroke:none"
         d="m 815.063,2917.86 h 20 v 706.75 h -20 z" /><path
         id="path168"
         style="fill:#d0ddf3;fill-opacity:1;fill-rule:nonzero;stroke:none"
         d="m 910.945,4151.02 264.625,-856.09 932.32,228.68 v 826.78 L 910.945,4151.02" /><path
         id="path170"
         style="fill:#232917;fill-opacity:1;fill-rule:nonzero;stroke:none"
         d="m 1739.28,3531.61 -62.65,249.93 74.21,9.87 58.27,-244.73" /><path
         id="path172"
         style="fill:#d0ddf3;fill-opacity:1;fill-rule:nonzero;stroke:none"
         d="m 879.781,3685.74 157.339,59.1 -7.03,18.72 -157.34,-59.1" /><path
         id="path174"
         style="fill:#ec6e3f;fill-opacity:1;fill-rule:nonzero;stroke:none"
         d="m 1324.67,3442.09 -127.43,428.63 77.53,17.69 120.59,-427.19" /><path
         id="path176"
         style="fill:#a9d92f;fill-opacity:1;fill-rule:nonzero;stroke:none"
         d="m 1605.94,3509.16 -113.61,428.63 77.52,17.68 106.78,-427.19" /><path
         id="path178"
         style="fill:#ee3a42;fill-opacity:1;fill-rule:nonzero;stroke:none"
         d="m 1465.25,3479.08 -131.36,509.62 77.53,17.68 124.52,-508.18" /><path
         id="path180"
         style="fill:#ffffff;fill-opacity:1;fill-rule:nonzero;stroke:none"
         d="m 1778.96,4180.67 253.14,52.01 -2.01,9.8 -253.14,-52.02" /><path
         id="path182"
         style="fill:#ffffff;fill-opacity:1;fill-rule:nonzero;stroke:none"
         d="m 1784.15,4137.98 247.95,50.95 -2.01,9.8 -247.95,-50.95" /><path
         id="path184"
         style="fill:#ffffff;fill-opacity:1;fill-rule:nonzero;stroke:none"
         d="m 1789.35,4095.3 242.75,49.88 -2.01,9.8 -242.76,-49.89" /><path
         id="path186"
         style="fill:#ffffff;fill-opacity:1;fill-rule:nonzero;stroke:none"
         d="m 1794.54,4052.62 237.56,48.81 -2.01,9.8 -237.56,-48.82" /><path
         id="path188"
         style="fill:#ffffff;fill-opacity:1;fill-rule:nonzero;stroke:none"
         d="m 1799.73,4009.93 232.37,47.75 -2.01,9.79 -232.37,-47.74" /><path
         id="path190"
         style="fill:#ffffff;fill-opacity:1;fill-rule:nonzero;stroke:none"
         d="m 1804.93,3967.25 227.17,46.68 -2.01,9.79 -227.18,-46.68" /><path
         id="path192"
         style="fill:#ffffff;fill-opacity:1;fill-rule:nonzero;stroke:none"
         d="m 1810.12,3924.56 221.98,45.62 -2.01,9.79 -221.98,-45.61" /><path
         id="path194"
         style="fill:#232917;fill-opacity:1;fill-rule:nonzero;stroke:none"
         d="m 1874.03,3757.5 v 2.47 c 0,9.65 -15,9.67 -15,0 v -2.47 c 0,-9.65 15,-9.67 15,0" /><path
         id="path196"
         style="fill:#a9d92f;fill-opacity:1;fill-rule:nonzero;stroke:none"
         d="m 1876.41,3688.27 c 9.65,0 9.67,15 0,15 -9.65,0 -9.67,-15 0,-15" /><path
         id="path198"
         style="fill:#ee3a42;fill-opacity:1;fill-rule:nonzero;stroke:none"
         d="m 1888.76,3624.07 c 9.65,0 9.66,15 0,15 -9.66,0 -9.67,-15 0,-15" /><path
         id="path200"
         style="fill:#ec6e3f;fill-opacity:1;fill-rule:nonzero;stroke:none"
         d="m 1898.63,3567.28 c 9.65,0 9.67,15 0,15 -9.65,0 -9.67,-15 0,-15" /><path
         id="path202"
         style="fill:#ffffff;fill-opacity:1;fill-rule:nonzero;stroke:none"
         d="m 1901.92,3760.58 c 31.07,-19.88 59.28,8.88 55.68,41.13 -3.17,-2.41 -6.33,-4.82 -9.5,-7.23 11.82,-1.61 17.41,-21.92 31.59,-25.23 23.44,-5.45 43.04,16.5 66.69,9.12 9.23,-2.88 13.18,11.6 3.99,14.47 -21.92,6.84 -35.68,-7.44 -56.84,-8.3 -21.97,-0.9 -22.66,21.85 -41.44,24.4 -4.24,0.58 -10.1,-1.81 -9.49,-7.23 4.15,-16.83 -6.88,-26.22 -33.11,-28.18 -8.15,5.22 -15.68,-7.76 -7.57,-12.95" /><path
         id="path204"
         style="fill:#ffffff;fill-opacity:1;fill-rule:nonzero;stroke:none"
         d="m 1915.81,3693.89 c 20.15,2.27 39.42,6.75 58.44,13.86 23.24,8.68 46.73,23.63 72.08,13.81 9.01,-3.48 12.91,11.01 3.99,14.47 -19.37,7.5 -36.76,3.41 -55.76,-3.98 -26.08,-10.15 -50.63,-20 -78.75,-23.16 -9.49,-1.06 -9.6,-16.07 0,-15" /><path
         id="path206"
         style="fill:#ffffff;fill-opacity:1;fill-rule:nonzero;stroke:none"
         d="m 1928.44,3630.82 c 13.53,7.98 24.21,4.19 38.42,4.16 6.42,-0.01 9.62,-0.34 15.34,3.35 7.27,4.7 10.41,12.1 18.23,16.53 13.74,7.8 28.78,5.23 43.82,2.43 9.44,-1.76 13.48,12.69 3.99,14.46 -19.71,3.68 -42.94,7.25 -60.14,-5.8 -4.44,-3.37 -7.41,-10.24 -11.88,-12.89 -6.48,-3.83 -16.23,-0.08 -22.88,-0.25 -12.17,-0.3 -21.85,-2.77 -32.47,-9.04 -8.31,-4.9 -0.77,-17.88 7.57,-12.95" /><path
         id="path208"
         style="fill:#ffffff;fill-opacity:1;fill-rule:nonzero;stroke:none"
         d="m 1930.49,3575.17 c 21.7,-0.97 31.35,15.62 49.72,22.94 11.34,4.52 16.04,-4.67 26.22,-5.58 8.56,-0.76 16.93,3.99 23.85,8.35 8.15,5.14 0.63,18.13 -7.57,12.96 -11.45,-7.23 -18.59,0.63 -28.45,3.38 -4.83,1.35 -10.51,-0.89 -14.87,-2.71 -16.8,-7.02 -29.41,-25.21 -48.9,-24.34 -9.65,0.43 -9.63,-14.57 0,-15" /><path
         id="path210"
         style="fill:#ffffff;fill-opacity:1;fill-rule:nonzero;stroke:none"
         d="m 1149.56,3806.5 159.98,-135.48 108.49,162.76 190.65,-178.13 136.12,56.95 -3.86,9.23 -130.15,-54.46 -194.54,181.76 -108.8,-163.23 -151.43,128.23 -6.46,-7.63" /><path
         id="path212"
         style="fill:#728ed0;fill-opacity:1;fill-rule:nonzero;stroke:none"
         d="m 1078.2,4026.49 180.68,-608.83 572.52,123.6 c 5.4,1.17 8.83,6.49 7.66,11.89 -1.16,5.4 -6.48,8.83 -11.88,7.66 l -554.4,-119.69 -175.4,591.06 c -1.57,5.3 -7.14,8.32 -12.43,6.75 -5.3,-1.58 -8.32,-7.14 -6.75,-12.44" /><path
         id="path214"
         style="fill:#d0ddf3;fill-opacity:1;fill-rule:nonzero;stroke:none"
         d="m 1612.92,3427.47 52.19,-267.3 -359.03,-115.66 6.13,-19.04 375.93,121.11 -55.59,284.73 -19.63,-3.84" /><path
         id="path216"
         style="fill:#d0ddf3;fill-opacity:1;fill-rule:nonzero;stroke:none"
         d="m 1310.86,3010.5 h -10 c 0,-14.31 -5.77,-27.17 -15.13,-36.55 -9.39,-9.37 -22.25,-15.13 -36.55,-15.14 -14.31,0.01 -27.16,5.77 -36.55,15.14 -9.37,9.38 -15.13,22.24 -15.14,36.55 0.01,14.3 5.77,27.16 15.14,36.54 9.39,9.37 22.24,15.14 36.55,15.14 14.3,0 27.16,-5.77 36.55,-15.14 9.36,-9.38 15.13,-22.24 15.13,-36.54 h 10 10 c 0,39.59 -32.09,71.67 -71.68,71.68 -39.6,-0.01 -71.68,-32.09 -71.69,-71.68 0.01,-39.6 32.09,-71.68 71.69,-71.69 39.59,0.01 71.68,32.09 71.68,71.69 h -10" /><path
         id="path218"
         style="fill:#232917;fill-opacity:1;fill-rule:nonzero;stroke:none"
         d="m 2913.5,3036.4 c -42.29,75.18 -119.83,103.38 -145.67,152.72 -25.85,49.34 -16.45,169.17 -143.33,197.36 -72.27,16.06 -111.76,-2.18 -138.01,-20.43 -19.83,-13.78 -32.11,-27.57 -45.25,-26.56 -30.54,2.35 -138.62,28.2 -187.96,-7.05 -49.34,-35.24 -58.74,-61.09 -86.94,-75.18 -28.19,-14.1 -77.53,-5.81 -119.82,-51.07 -42.3,-45.26 -89.29,-162.74 -84.59,-200.33 4.7,-37.6 25.19,-124.53 -0.32,-164.47 -25.52,-39.95 -79.56,-93.99 -74.86,-145.67 4.7,-51.69 18.22,-126.88 -0.29,-157.42 -18.51,-30.55 -107.79,-79.89 -91.35,-115.13 16.45,-35.25 123.38,-85.31 199.72,-53.85 30.08,12.41 100.06,54.16 145.48,0 29.16,-34.77 136.92,-47.57 185.8,13.91 16.35,20.56 57.85,-4.28 82.84,-8.81 24.99,-4.53 114.52,-9.2 114.52,-9.2 l 84.59,168.38 260.8,317.19 c 0,0 86.93,110.42 44.64,185.61" /><path
         id="path220"
         style="fill:#232917;fill-opacity:1;fill-rule:nonzero;stroke:none"
         d="m 2913.79,3035.88 c -0.01,0.01 -0.01,0.01 -0.01,0.02 0,-0.01 0.01,-0.01 0.01,-0.02 m -0.13,0.23 c -0.01,0.02 -0.02,0.03 -0.03,0.05 0.01,-0.02 0.02,-0.03 0.03,-0.05 m -0.37,0.65 c -0.01,0.02 -0.02,0.04 -0.03,0.06 0.01,-0.02 0.02,-0.04 0.03,-0.06 m -0.22,0.4 c -0.01,0.02 -0.03,0.05 -0.04,0.07 0.01,-0.03 0.03,-0.05 0.04,-0.07 m -0.22,0.39 c -0.02,0.03 -0.04,0.06 -0.06,0.09 0.02,-0.03 0.04,-0.06 0.06,-0.09 m -0.23,0.4 c -0.02,0.04 -0.04,0.07 -0.06,0.11 0.02,-0.04 0.04,-0.07 0.06,-0.11 m -0.21,0.37 c -0.03,0.05 -0.06,0.1 -0.09,0.16 0.03,-0.06 0.06,-0.11 0.09,-0.16 m -0.21,0.36 c -0.04,0.07 -0.09,0.15 -0.13,0.23 0.04,-0.08 0.09,-0.16 0.13,-0.23 m -0.23,0.38 c -38.47,66.1 -104.18,95.43 -135.37,136.4 -0.02,0.11 -0.05,0.21 -0.08,0.32 31.1,-41.11 96.9,-70.47 135.45,-136.72" /><path
         id="path222"
         style="fill:#42521e;fill-opacity:1;fill-rule:nonzero;stroke:none"
         d="m 2924.31,3002.16 c -43.59,62.66 -111.06,90.26 -134.83,135.65 -5.28,10.07 -9.08,23.09 -12.88,37.65 31.19,-40.97 96.9,-70.3 135.37,-136.4 0.04,-0.05 0.06,-0.1 0.1,-0.15 0.04,-0.08 0.09,-0.16 0.13,-0.23 0.04,-0.07 0.08,-0.13 0.12,-0.2 0.03,-0.06 0.06,-0.11 0.09,-0.16 0.05,-0.09 0.1,-0.18 0.15,-0.26 0.02,-0.04 0.04,-0.07 0.06,-0.11 0.06,-0.1 0.11,-0.2 0.17,-0.31 0.02,-0.03 0.04,-0.06 0.06,-0.09 0.06,-0.11 0.12,-0.21 0.18,-0.32 0.01,-0.02 0.03,-0.05 0.04,-0.07 0.07,-0.12 0.13,-0.23 0.19,-0.34 0.01,-0.02 0.02,-0.04 0.03,-0.06 0.07,-0.12 0.14,-0.24 0.21,-0.36 0.04,-0.08 0.09,-0.16 0.13,-0.24 0.01,-0.02 0.02,-0.03 0.03,-0.05 0.04,-0.07 0.08,-0.14 0.12,-0.21 0,-0.01 0,-0.01 0.01,-0.02 5.9,-10.67 9.16,-22.06 10.52,-33.72" /><path
         id="path224"
         style="fill:#232917;fill-opacity:1;fill-rule:nonzero;stroke:none"
         d="m 1795.21,2422.97 -0.01,0.01 0.01,-0.01 m -0.04,0.08 c -0.01,0.01 -0.01,0.02 -0.01,0.03 0,-0.01 0,-0.02 0.01,-0.03 m 861.68,953.17 h -0.01 c 0.01,0 0.01,0 0.01,0 m -0.54,0.23 c -0.01,0.01 -0.04,0.02 -0.05,0.02 0.02,0 0.03,-0.01 0.05,-0.02 m -0.37,0.16 c -0.02,0 -0.02,0.01 -0.03,0.01 0.01,0 0.02,-0.01 0.03,-0.01 m -0.2,0.08 c -0.02,0.01 -0.05,0.02 -0.07,0.03 0.02,-0.01 0.05,-0.02 0.07,-0.03 m -0.33,0.14 c -0.03,0.01 -0.07,0.03 -0.1,0.04 0.03,-0.01 0.07,-0.03 0.1,-0.04 m -0.24,0.1 c -0.07,0.03 -0.14,0.06 -0.2,0.08 0.06,-0.02 0.13,-0.05 0.2,-0.08 m -0.34,0.14 c -0.04,0.02 -0.07,0.03 -0.12,0.05 0.04,-0.02 0.08,-0.03 0.12,-0.05 m -0.32,0.13 c -0.05,0.02 -0.09,0.04 -0.14,0.06 0.05,-0.02 0.1,-0.04 0.14,-0.06 m -0.27,0.11 c -0.06,0.03 -0.13,0.05 -0.19,0.08 0.06,-0.03 0.13,-0.05 0.19,-0.08 m -0.32,0.13 c -0.05,0.02 -0.11,0.05 -0.16,0.07 0.05,-0.02 0.11,-0.05 0.16,-0.07 m -0.26,0.11 c -0.08,0.03 -0.16,0.06 -0.24,0.09 0.08,-0.03 0.16,-0.06 0.24,-0.09 m -0.33,0.13 c -0.07,0.03 -0.14,0.06 -0.21,0.08 0.07,-0.02 0.14,-0.05 0.21,-0.08 m -0.31,0.12 c -0.06,0.03 -0.14,0.06 -0.21,0.09 0.07,-0.03 0.14,-0.06 0.21,-0.09 m -0.29,0.12 c -0.09,0.03 -0.17,0.07 -0.26,0.1 0.09,-0.03 0.17,-0.07 0.26,-0.1 m -0.33,0.13 c -0.08,0.03 -0.14,0.06 -0.22,0.09 0.07,-0.03 0.15,-0.06 0.22,-0.09 m -0.28,0.11 c -0.08,0.03 -0.17,0.07 -0.26,0.1 0.09,-0.03 0.18,-0.07 0.26,-0.1 m -0.33,0.13 c -0.08,0.03 -0.18,0.07 -0.26,0.1 0.09,-0.03 0.17,-0.07 0.26,-0.1 m -0.31,0.12 c -0.08,0.03 -0.17,0.06 -0.25,0.09 0.08,-0.03 0.17,-0.06 0.25,-0.09 m -0.3,0.11 c -0.09,0.04 -0.18,0.07 -0.27,0.11 0.09,-0.04 0.18,-0.07 0.27,-0.11 m -0.32,0.13 c -0.19,0.07 -0.38,0.14 -0.57,0.22 0.19,-0.08 0.38,-0.15 0.57,-0.22 m -0.63,0.23 c -0.1,0.04 -0.18,0.08 -0.28,0.11 0.09,-0.03 0.19,-0.07 0.28,-0.11 m -0.3,0.12 c -0.1,0.04 -0.2,0.07 -0.3,0.11 0.1,-0.04 0.2,-0.07 0.3,-0.11 m -0.31,0.12 c -0.1,0.03 -0.2,0.07 -0.3,0.11 0.1,-0.04 0.2,-0.08 0.3,-0.11 m -0.33,0.12 c -0.2,0.07 -0.41,0.15 -0.62,0.23 0.21,-0.08 0.42,-0.16 0.62,-0.23 m -0.63,0.23 c -0.1,0.04 -0.2,0.07 -0.31,0.11 0.1,-0.03 0.21,-0.07 0.31,-0.11 m -0.32,0.12 c -0.21,0.07 -0.41,0.15 -0.63,0.22 0.22,-0.07 0.42,-0.15 0.63,-0.22 m -0.64,0.23 c -5.36,1.93 -11.01,3.66 -16.99,5.18 5.98,-1.52 11.63,-3.25 16.99,-5.18 m -16.99,5.18 c -0.24,0.06 -0.47,0.12 -0.71,0.18 0.23,-0.06 0.47,-0.12 0.71,-0.18 m -0.72,0.19 c -0.12,0.03 -0.23,0.05 -0.35,0.08 0.11,-0.03 0.23,-0.06 0.35,-0.08 m -0.37,0.09 c -0.23,0.05 -0.46,0.11 -0.7,0.17 0.24,-0.06 0.47,-0.12 0.7,-0.17 m -0.72,0.18 c -0.12,0.02 -0.24,0.05 -0.35,0.08 0.12,-0.03 0.23,-0.05 0.35,-0.08 m -0.36,0.08 c -0.13,0.03 -0.23,0.06 -0.35,0.09 0.12,-0.03 0.23,-0.06 0.35,-0.09 m -0.36,0.09 c -0.12,0.03 -0.23,0.06 -0.34,0.08 0.11,-0.02 0.22,-0.05 0.34,-0.08 m -0.38,0.09 c -0.23,0.06 -0.46,0.11 -0.69,0.16 0.24,-0.05 0.46,-0.1 0.69,-0.16 m -0.73,0.18 c -0.11,0.02 -0.23,0.05 -0.34,0.07 0.12,-0.02 0.22,-0.05 0.34,-0.07 m -0.38,0.08 c -0.1,0.03 -0.21,0.05 -0.31,0.08 0.1,-0.03 0.21,-0.05 0.31,-0.08 m -0.35,0.08 c -0.11,0.03 -0.21,0.05 -0.33,0.08 0.11,-0.02 0.22,-0.05 0.33,-0.08 m -0.38,0.09 c -0.12,0.03 -0.22,0.05 -0.34,0.08 0.11,-0.03 0.23,-0.05 0.34,-0.08 m -0.36,0.09 c -0.11,0.02 -0.22,0.05 -0.33,0.07 0.11,-0.02 0.22,-0.05 0.33,-0.07 m -0.37,0.08 c -0.1,0.02 -0.22,0.05 -0.33,0.07 0.11,-0.02 0.22,-0.05 0.33,-0.07 m -0.4,0.09 c -0.1,0.02 -0.22,0.05 -0.33,0.07 0.11,-0.02 0.22,-0.05 0.33,-0.07" /><path
         id="path226"
         style="fill:#42521e;fill-opacity:1;fill-rule:nonzero;stroke:none"
         d="m 1819.78,2397.49 c -11.93,8.49 -20.71,17.36 -24.57,25.48 l -0.01,0.01 c -0.01,0.03 -0.02,0.05 -0.03,0.07 -0.01,0.01 -0.01,0.02 -0.01,0.03 -0.02,0.03 -0.03,0.06 -0.05,0.09 v 0 c -1.38,2.96 -2.01,6.02 -2.01,9.16 0.06,34.24 76.4,77.99 93.36,105.97 7.08,11.69 9.48,29.92 9.46,50.88 -0.01,33.78 -6.27,74.63 -9.17,106.54 -0.2,2.12 -0.29,4.24 -0.29,6.37 -0.03,49.72 50.67,100.99 75.15,139.3 9.42,14.74 12.57,35.89 12.56,58.59 -0.02,38.81 -9.27,82.16 -12.24,105.88 -0.22,1.76 -0.33,3.7 -0.32,5.79 0.02,42.65 44.6,151.4 84.91,194.54 42.29,45.26 91.63,36.97 119.82,51.07 28.2,14.09 37.6,39.94 86.94,75.18 19.65,14.04 48.61,18.39 78.29,18.39 44.84,0 91.29,-9.93 109.67,-11.34 0.46,-0.03 0.91,-0.05 1.37,-0.05 12.64,0 24.74,13.31 43.88,26.61 19.15,13.31 45.33,26.61 86.14,26.61 15.14,0 32.31,-1.83 51.87,-6.18 v 0 c 0.11,-0.02 0.23,-0.05 0.33,-0.07 0.03,-0.01 0.05,-0.01 0.07,-0.02 0.11,-0.02 0.23,-0.05 0.33,-0.07 0.02,0 0.03,-0.01 0.04,-0.01 0.11,-0.02 0.22,-0.05 0.33,-0.07 0.01,-0.01 0.02,-0.01 0.02,-0.01 0.12,-0.03 0.22,-0.05 0.34,-0.08 0.01,0 0.04,-0.01 0.05,-0.01 0.12,-0.03 0.22,-0.05 0.33,-0.08 0.01,0 0.03,0 0.04,0 0.1,-0.03 0.21,-0.05 0.31,-0.08 0.01,0 0.03,0 0.04,-0.01 0.11,-0.02 0.23,-0.05 0.34,-0.07 0.01,-0.01 0.03,-0.01 0.04,-0.02 0.23,-0.05 0.46,-0.1 0.69,-0.16 0,0 0.03,0 0.04,-0.01 0.11,-0.02 0.22,-0.05 0.34,-0.08 h 0.01 c 0.12,-0.03 0.22,-0.06 0.35,-0.09 h 0.01 c 0.11,-0.03 0.23,-0.06 0.35,-0.08 0,-0.01 0.01,-0.01 0.02,-0.01 0.24,-0.06 0.47,-0.12 0.7,-0.17 0.01,0 0.01,-0.01 0.02,-0.01 0.12,-0.03 0.23,-0.05 0.35,-0.08 0,-0.01 0,-0.01 0.01,-0.01 0.24,-0.06 0.47,-0.12 0.71,-0.18 v 0 c 5.98,-1.52 11.63,-3.25 16.99,-5.18 0,0 0.01,0 0.01,-0.01 0.22,-0.07 0.42,-0.15 0.63,-0.22 0.01,-0.01 0.01,-0.01 0.01,-0.01 0.11,-0.04 0.21,-0.07 0.31,-0.11 0.01,0 0.01,0 0.01,0 0.21,-0.08 0.42,-0.16 0.62,-0.23 0.01,-0.01 0.02,-0.01 0.03,-0.01 0.1,-0.04 0.2,-0.08 0.3,-0.11 0,-0.01 0.01,-0.01 0.01,-0.01 0.1,-0.04 0.2,-0.07 0.3,-0.11 0,0 0.01,-0.01 0.02,-0.01 0.1,-0.03 0.18,-0.07 0.28,-0.11 0.02,0 0.04,-0.01 0.06,-0.01 0.19,-0.08 0.38,-0.15 0.57,-0.22 0.01,-0.01 0.03,-0.02 0.05,-0.02 0.09,-0.04 0.18,-0.07 0.27,-0.11 0.02,0 0.04,-0.01 0.05,-0.02 0.08,-0.03 0.17,-0.06 0.25,-0.09 0.02,-0.01 0.03,-0.01 0.05,-0.02 0.08,-0.03 0.18,-0.07 0.26,-0.1 0.02,-0.01 0.05,-0.02 0.07,-0.03 0.09,-0.03 0.18,-0.07 0.26,-0.1 0.02,-0.01 0.04,-0.02 0.06,-0.02 0.08,-0.03 0.14,-0.06 0.22,-0.09 0.03,-0.01 0.05,-0.02 0.07,-0.03 0.09,-0.03 0.17,-0.07 0.26,-0.1 0.02,-0.01 0.05,-0.02 0.08,-0.03 0.07,-0.03 0.15,-0.06 0.21,-0.09 0.03,-0.01 0.07,-0.02 0.1,-0.04 0.07,-0.02 0.14,-0.05 0.21,-0.08 0.03,-0.01 0.06,-0.02 0.09,-0.04 0.08,-0.03 0.16,-0.06 0.24,-0.09 0.03,-0.02 0.06,-0.03 0.1,-0.04 0.05,-0.02 0.11,-0.05 0.16,-0.07 0.04,-0.01 0.08,-0.03 0.13,-0.05 0.06,-0.03 0.13,-0.05 0.19,-0.08 0.05,-0.02 0.08,-0.03 0.13,-0.05 0.05,-0.02 0.09,-0.04 0.14,-0.06 0.07,-0.03 0.13,-0.05 0.2,-0.08 0.05,-0.02 0.08,-0.03 0.12,-0.05 0.05,-0.02 0.09,-0.04 0.14,-0.06 0.06,-0.02 0.13,-0.05 0.2,-0.08 0.04,-0.02 0.1,-0.04 0.14,-0.06 0.03,-0.01 0.07,-0.03 0.1,-0.04 0.08,-0.04 0.17,-0.07 0.26,-0.11 0.02,-0.01 0.05,-0.02 0.07,-0.03 0.06,-0.02 0.11,-0.04 0.17,-0.07 0.01,0 0.01,-0.01 0.03,-0.01 0.11,-0.05 0.21,-0.09 0.32,-0.14 0.01,0 0.04,-0.01 0.05,-0.02 0.18,-0.07 0.35,-0.15 0.53,-0.23 h 0.01 c 20.31,-8.7 35.93,-20.38 48.17,-33.8 -7.22,-6.43 -14.22,-13.1 -20.82,-20.09 -11.1,5.29 -23.7,9.65 -38.05,12.84 -19.56,4.35 -36.72,6.18 -51.87,6.18 -13.21,0 -24.89,-1.39 -35.29,-3.73 12.13,19.36 27.03,37.1 45.34,52.61 -6.93,1.01 -13.52,1.69 -19.79,2.07 -18.71,-18.01 -34.08,-38.69 -46.5,-61.17 -11.75,-4.72 -21.5,-10.55 -29.9,-16.39 -19.14,-13.31 -31.24,-26.61 -43.88,-26.61 -0.46,0 -0.91,0.02 -1.37,0.05 -13.25,1.02 -41.06,6.46 -72.36,9.41 2.7,16.47 6.86,32.3 13.21,47.06 -4.5,0.65 -9.22,1.3 -14.12,1.93 -6.08,-15.19 -10.31,-31.31 -13.18,-47.86 -7.69,0.5 -15.48,0.79 -23.22,0.79 -29.67,0 -58.64,-4.34 -78.29,-18.38 -2.85,-2.03 -5.56,-4.03 -8.15,-6 2.12,24.88 8.65,48.81 19.16,71.16 -6.35,-1.48 -12.4,-3.37 -18.02,-5.76 -9.29,-24.45 -13.78,-49.84 -14.61,-76.23 -31.38,-26.7 -41.82,-46.61 -65.32,-58.35 -16.21,-8.11 -39.42,-8.82 -64.25,-16.56 3.11,20.68 8.74,40.75 16.56,60.02 -5.33,-1.08 -10.94,-2.11 -16.76,-3.31 -7.03,-20.2 -11.51,-40.8 -13.77,-61.84 -13.98,-6 -28.15,-14.98 -41.6,-29.38 -42.3,-45.27 -89.29,-162.74 -84.59,-200.34 4.7,-37.59 25.2,-124.52 -0.32,-164.46 -25.52,-39.95 -79.56,-93.99 -74.86,-145.68 4.7,-51.69 18.22,-126.87 -0.29,-157.42 -14.33,-23.65 -71.08,-58.57 -88.33,-89.49 m 924.26,870.06 c -10.77,18.02 -25.37,34.53 -46.13,47.32 5.32,5.54 10.87,10.84 16.58,15.97 14.34,-19.57 23.06,-41.74 29.55,-63.29" /><g
         id="g228"><g
           clip-path="url(#clipPath234)"
           id="g230"><path
             id="path236"
             style="fill:#42521e;fill-opacity:1;fill-rule:nonzero;stroke:none"
             d="m 1910.63,2361.79 c -5.03,0.79 -10.04,1.76 -14.97,2.89 0.8,41.57 19.9,77.14 32.48,116.29 13.78,42.93 0.07,87.89 15.37,129.95 10.81,29.72 32.35,53.92 52.13,77.99 34.23,41.66 51.6,79.9 55.4,134.28 2.72,38.98 2,79.56 17.5,116.23 7.27,17.2 18.53,31.55 28.77,46.98 20.57,31.03 23.03,59.58 16.84,95.62 -6.05,35.23 -7.93,69.27 -4.38,102.24 4.69,2.02 9.35,3.7 13.97,5.13 -1.55,-10.27 -2.48,-20.69 -2.74,-31.23 -1.07,-42.1 17.13,-84.38 11.9,-126.15 -4.45,-35.54 -30.76,-58.85 -46.36,-89.36 -22.61,-44.24 -16.83,-95.79 -22.7,-143.61 -4.14,-33.75 -14.59,-63.09 -34.19,-90.89 -21.37,-30.32 -49.89,-56.1 -66.57,-89.58 -19.73,-39.63 -5.78,-82.71 -15.47,-124.34 -10.58,-45.44 -36.96,-84.74 -36.98,-132.44" /><path
             id="path238"
             style="fill:#5f7625;fill-opacity:1;fill-rule:nonzero;stroke:none"
             d="m 2109.77,3184.26 c 2.26,21.04 6.74,41.64 13.77,61.84 5.82,1.2 11.43,2.23 16.76,3.31 -7.82,-19.27 -13.45,-39.34 -16.56,-60.02 -4.62,-1.43 -9.28,-3.11 -13.97,-5.13" /><path
             id="path240"
             style="fill:#42521e;fill-opacity:1;fill-rule:nonzero;stroke:none"
             d="m 2065.63,2394.96 c 11.68,43.88 11.39,90.16 25.53,133.41 13.62,41.69 43.15,74.91 63.84,112.98 26.56,48.88 38.26,99.04 38.45,154.43 0.14,40.93 1.37,78.66 14.01,117.94 13.26,41.21 33.4,79.8 47.21,120.81 17.41,51.69 14.87,98.1 5.29,151.2 -4.9,27.13 -7.45,53.31 -6.65,78.57 4.11,3.5 8.57,7.11 13.47,10.83 -0.92,-10.88 -1,-21.94 -0.2,-33.13 3.25,-45.56 19.12,-89.72 17.59,-135.75 -2.62,-78.39 -50.48,-144.52 -68.68,-219.01 -11.53,-47.18 -3.19,-95.23 -9.68,-142.88 -4.73,-34.72 -16.25,-68.14 -31.97,-99.37 -21.8,-43.32 -56.08,-79.87 -70.05,-126.96 -11.78,-39.71 -12.52,-81.49 -22.32,-121.64 -5.3,-0.06 -10.6,-0.58 -15.84,-1.43" /><path
             id="path242"
             style="fill:#5f7625;fill-opacity:1;fill-rule:nonzero;stroke:none"
             d="m 2253.31,3264.3 c 0.83,26.39 5.32,51.78 14.61,76.23 5.62,2.39 11.67,4.28 18.02,5.76 -10.51,-22.35 -17.04,-46.28 -19.16,-71.16 -4.9,-3.72 -9.36,-7.33 -13.47,-10.83" /><path
             id="path244"
             style="fill:#42521e;fill-opacity:1;fill-rule:nonzero;stroke:none"
             d="m 2228.17,2340.21 c 0.03,85.84 -18.41,169.51 19.56,252.67 23.39,51.24 50.65,96.86 46.56,155.35 -3.33,47.57 -20.83,94.15 -15.38,142.29 5.55,48.99 38.4,85.86 60.31,128.23 31.35,60.59 32.73,122 31.67,188.69 -0.48,29.88 0.33,61.3 5.55,91.28 4.75,-0.3 9.46,-0.69 14.09,-1.13 -9.67,-58.99 -0.53,-126.1 -5.98,-181.23 -4.13,-41.8 -18.23,-80.18 -38.61,-116.65 -27.65,-49.46 -57.29,-88.81 -51.99,-148.99 4.15,-47.05 20.6,-93.16 14.83,-140.86 -4.71,-38.97 -23.43,-73.65 -40.35,-108.4 -25.01,-51.36 -34.58,-100.47 -31.71,-157.46 1.74,-34.51 5.49,-68.64 6.02,-102.89 -4.86,-0.52 -9.74,-0.82 -14.57,-0.9" /><path
             id="path246"
             style="fill:#5f7625;fill-opacity:1;fill-rule:nonzero;stroke:none"
             d="m 2390.53,3297.59 c -4.63,0.44 -9.34,0.83 -14.09,1.13 2.87,16.55 7.1,32.67 13.18,47.86 4.9,-0.63 9.62,-1.28 14.12,-1.93 -6.35,-14.76 -10.51,-30.59 -13.21,-47.06" /><path
             id="path248"
             style="fill:#42521e;fill-opacity:1;fill-rule:nonzero;stroke:none"
             d="m 2408.28,2374.54 c -4.1,0.8 -8.61,2.1 -13.38,3.65 8.39,40.29 -8.07,92.87 -14.35,129.08 -5.93,34.22 -2.99,64.01 6.76,94.83 3.36,-7.21 7.17,-13.6 11.32,-19.25 -5.79,-22.14 -8.19,-45.22 -3.62,-71.59 6.91,-39.85 21.77,-93.85 13.27,-136.72 m 33.33,357.04 c -2.92,0.44 -5.8,0.66 -8.64,0.66 -1.91,0 -3.79,-0.1 -5.65,-0.29 0.13,18.23 -2.22,36.44 -4.94,55.1 -5.75,39.51 -10.73,77.25 4.36,115.44 20.57,52.06 56.68,90.22 62.85,148.4 5.57,52.61 1.32,105.53 9.08,158.12 6.35,43.02 18.86,85.02 39.37,122.12 6.36,2.55 13.31,4.77 20.95,6.49 -42.04,-67.09 -50.73,-153.59 -52.26,-233.77 -0.94,-49.62 -4.55,-94.61 -28.66,-138.91 -10.91,-20.07 -24.38,-38.83 -33.87,-59.68 -15.07,-33.1 -14.24,-66.28 -9.32,-101.54 3.48,-24.93 6.92,-48.56 6.73,-72.14" /><path
             id="path250"
             style="fill:#5f7625;fill-opacity:1;fill-rule:nonzero;stroke:none"
             d="m 2538.04,3331.13 c 12.42,22.48 27.79,43.16 46.5,61.17 6.27,-0.38 12.86,-1.06 19.79,-2.07 -18.31,-15.51 -33.21,-33.25 -45.34,-52.61 -7.64,-1.72 -14.59,-3.94 -20.95,-6.49" /><path
             id="path252"
             style="fill:#42521e;fill-opacity:1;fill-rule:nonzero;stroke:none"
             d="m 2896.71,2894.38 c -18.38,11.44 -35.64,24.8 -47.42,43.1 -19.9,30.94 -19.07,69.7 -39.15,101.45 -20.67,32.68 -47.69,60.38 -62.9,96.45 -18.04,42.77 -27.05,109.07 -85.7,112.26 -2.83,0.16 -4.73,1.62 -5.89,3.52 -8.01,-19.51 -11.56,-39.9 -1.78,-53.67 -5.92,3.28 -11.97,6.08 -18.19,8.36 -3.4,21.27 4.82,47.18 12.41,64.18 8.81,19.75 21.5,36.83 36.11,52.3 4.85,-2.31 9.41,-4.8 13.71,-7.46 -4.7,-4.88 -9.21,-9.95 -13.49,-15.26 -6.59,-8.18 -15.97,-21.86 -23.58,-37.07 l 0.7,0.1 c 81.63,-4.44 84.93,-107.35 121.17,-160.34 21.8,-31.87 49.09,-60.53 60.6,-98.25 8.26,-27.08 9.82,-51.59 30.69,-73.3 8.67,-9.01 18.83,-16.4 29.48,-23.04 -2.22,-4.64 -4.5,-9.09 -6.77,-13.33 m -182.22,436.46 c -2.92,3.98 -6.06,7.84 -9.47,11.58 v 0 c 3.41,-3.73 6.56,-7.6 9.47,-11.58 v 0" /><path
             id="path254"
             style="fill:#5f7625;fill-opacity:1;fill-rule:nonzero;stroke:none"
             d="m 2697.91,3314.87 c -4.3,2.66 -8.86,5.15 -13.71,7.46 6.6,6.99 13.6,13.66 20.82,20.09 3.41,-3.74 6.55,-7.6 9.47,-11.58 -5.71,-5.13 -11.26,-10.43 -16.58,-15.97" /></g></g><path
         id="path256"
         style="fill:#ee3a42;fill-opacity:1;fill-rule:nonzero;stroke:none"
         d="m 2935.46,2906.71 c -19.6,17.15 -65.7,-12.7 -89.63,-2.86 4.87,-16.44 14.07,-31.7 25.77,-44.35 16.68,-18.04 37.98,-31.26 60.17,-41.81 1.86,-0.89 3.75,-1.73 5.64,-2.58 -1.1,7.85 -1.85,12.36 -1.85,12.36 0,0 19.78,61.84 -0.1,79.24" /><path
         id="path258"
         style="fill:#eabd92;fill-opacity:1;fill-rule:nonzero;stroke:none"
         d="m 2871.6,2859.5 c -11.7,12.65 -20.9,27.92 -25.78,44.35 l -1.07,0.38 c -23.61,11.18 -88.23,258.46 -210.01,301.96 0,0 17.4,-93.2 -9.94,-139.18 -27.34,-45.98 -96.92,-105.62 -99.41,-144.15 0,0 33.55,-37.27 48.46,-94.44 14.91,-57.16 -1.24,-86.98 19.88,-134.2 21.13,-47.22 43.5,-43.49 42.25,-54.68 -1.24,-11.18 -79.52,-8.69 -144.14,62.14 -64.62,70.83 -145.43,9.21 -108.75,-89.47 36.68,-98.69 147.27,-64.62 147.27,-64.62 0,0 2.7,-142.05 -30.36,-169.7 -19.74,-16.51 -57.23,-10.27 -91.05,-3.47 l -4.57,-58.75 c 0,0 -17.41,1.17 -44.51,-0.5 22.62,-69.78 70.16,-215.96 174.53,-205.61 120.77,11.98 142.62,155.22 157.62,222.22 -25.69,3.6 -51.83,4.34 -77.1,-0.09 0,0 -10.78,161.48 26.95,168.31 12.97,2.35 35.51,1.02 63.23,-0.31 52.86,-2.53 124.55,-5.06 184.65,17.92 79.94,30.56 55.25,243.69 47.66,297.5 -1.89,0.85 -3.78,1.69 -5.64,2.58 -22.19,10.55 -43.49,23.77 -60.17,41.81" /><path
         id="path260"
         style="fill:#eabd92;fill-opacity:1;fill-rule:nonzero;stroke:none"
         d="m 3676.25,3014.46 c -10.1,3.78 -35.36,11.36 -42.94,5.05 -7.58,-6.32 -58.09,-116.19 -58.09,-116.19 l -6.32,20.21 c 0,0 8.84,74.51 12.63,85.87 3.79,11.37 40.41,65.67 40.41,65.67 0,0 45.47,39.15 45.47,45.47 0,6.31 -17.68,32.83 -17.68,32.83 0,0 -68.2,-44.2 -83.35,-60.61 -15.16,-16.42 -87.14,-87.14 -90.93,-117.45 -3.79,-30.32 1.69,-193.65 -9.09,-228.68 -10.78,-35.02 -199.39,-439.19 -223.64,-452.66 -16.88,-9.37 -168.03,-5.88 -270.22,-1.04 34.41,-85.36 68.52,-173.1 90.91,-262.36 126.8,25.34 321.24,67.15 342.58,82.67 31.49,22.9 163.17,604.01 168.89,612.6 5.73,8.59 65.14,54.37 82.43,76.45 22.73,29.04 0,101.03 0,114.92 0,13.89 29.04,93.46 18.94,97.25" /><path
         id="path262"
         style="fill:#232917;fill-opacity:1;fill-rule:nonzero;stroke:none"
         d="m 2374.16,2634.91 c 1.47,46.97 67.53,40.25 94.35,26.48 23.36,-11.99 40.2,-32.29 54.25,-53.84 5.25,-8.06 18.24,-0.55 12.95,7.57 -23.53,36.09 -56.92,68.54 -102.25,71.68 -33.84,2.33 -73.11,-13.88 -74.3,-51.89 -0.31,-9.65 14.69,-9.64 15,0" /><path
         id="path264"
         style="fill:#232917;fill-opacity:1;fill-rule:nonzero;stroke:none"
         d="m 2488.3,2661.64 c -25.68,-11.86 -24.78,-41.86 -20.89,-65.6 1.55,-9.5 16.01,-5.47 14.46,3.99 -2.84,17.37 -5.02,39.87 14,48.66 8.75,4.04 1.14,16.98 -7.57,12.95" /><path
         id="path266"
         style="fill:#232917;fill-opacity:1;fill-rule:nonzero;stroke:none"
         d="m 2772.11,2925.56 c 10.96,-26.07 11.65,-50.66 1.53,-54.91 -10.12,-4.26 -27.21,13.43 -38.17,39.51 -10.96,26.07 -11.64,50.65 -1.53,54.91 10.12,4.25 27.21,-13.44 38.17,-39.51" /><path
         id="path268"
         style="fill:#ed7267;fill-opacity:1;fill-rule:nonzero;stroke:none"
         d="m 2660.97,2712.71 c -19.7,0 -36.18,8.34 -41.52,22.93 -7.67,20.97 10.57,46.91 40.73,57.95 9.18,3.36 18.4,4.95 27.01,4.95 19.69,0 36.17,-8.33 41.51,-22.92 7.67,-20.97 -10.56,-46.92 -40.73,-57.96 -9.17,-3.36 -18.4,-4.95 -27,-4.95" /><path
         id="path270"
         style="fill:#ee3a42;fill-opacity:1;fill-rule:nonzero;stroke:none"
         d="m 2881.87,2299.08 c -26.82,4.2 -160.38,45.4 -266.95,32.61 55.68,-120.54 22.94,-184.31 -70.11,-208.51 -101.5,-26.39 -162.32,122.21 -184.94,191.99 -50.32,-3.09 -134.17,-15.96 -202.83,-64.34 -62.69,-44.16 -193.83,-177.07 -294.66,-278.38 51.03,-67.46 113.26,-150.44 164.28,-217.9 67.17,54.63 123.81,89.96 123.81,89.96 0,0 104.75,-160.66 90.44,-263.71 -14.32,-103.06 -68.71,-317.75 -68.71,-317.75 h 752.87 l -54.39,489.5 c 0,0 118.73,53.12 60.12,210.05 0,0 83.19,17.96 138.02,47.26 -22.39,89.27 -61.91,197.71 -96.32,283.07 -44.64,2.11 -79.98,4.48 -90.63,6.15" /><g
         id="g272"><g
           clip-path="url(#clipPath278)"
           id="g274"><path
             id="path280"
             style="fill:#232917;fill-opacity:1;fill-rule:nonzero;stroke:none"
             d="m 2828.08,2709.92 c 50.03,-22.19 102.35,-27.99 156,-16.98 9.45,1.94 5.45,16.4 -3.99,14.46 -49.35,-10.12 -98.36,-4.97 -144.44,15.48 -8.75,3.88 -16.39,-9.04 -7.57,-12.96" /></g></g><path
         id="path282"
         style="fill:#232917;fill-opacity:1;fill-rule:nonzero;stroke:none"
         d="m 2651.95,3016.37 c 3.29,25.95 17.59,63.52 48.93,62.57 9.66,-0.29 9.65,14.72 0,15 -40.62,1.22 -59.61,-43.49 -63.93,-77.57 -1.21,-9.56 13.81,-9.47 15,0" /><path
         id="path284"
         style="fill:#d2d4d0;fill-opacity:1;fill-rule:nonzero;stroke:none"
         d="m 2930.8,1962.6 v 0 c 0,0 83.19,17.96 138.02,47.26 -0.09,0.36 -0.18,0.71 -0.27,1.06 0.09,-0.35 0.18,-0.7 0.27,-1.06 -54.83,-29.3 -138.02,-47.26 -138.02,-47.26 m 132.62,67.97 v 0 c 17.78,3.56 36.91,7.44 56.7,11.52 -19.79,-4.08 -38.91,-7.96 -56.71,-11.52 m -0.06,0.25 c -5.24,19.34 -11.15,39.39 -17.55,59.74 l 6.68,-19.6 h 0.01 c 3.86,-13.34 7.49,-26.72 10.86,-40.14 m 57.02,11.32 c 0.23,0.05 0.46,0.1 0.69,0.15 -0.23,-0.05 -0.46,-0.1 -0.69,-0.15 m 0.75,0.16 c 0.2,0.04 0.41,0.08 0.62,0.13 -0.21,-0.05 -0.42,-0.09 -0.62,-0.13 m 0.86,0.18 c 0.2,0.04 0.41,0.08 0.61,0.12 -0.21,-0.04 -0.4,-0.08 -0.61,-0.12" /><path
         id="path286"
         style="fill:#c29f7c;fill-opacity:1;fill-rule:nonzero;stroke:none"
         d="m 3063.42,2030.57 c -0.03,0.09 -0.05,0.17 -0.07,0.25 -3.37,13.42 -7,26.8 -10.86,40.14 l 346.38,38.6 c -34.93,-14.9 -165.54,-44.06 -276.28,-66.96 -0.2,-0.04 -0.41,-0.08 -0.61,-0.12 -0.07,-0.02 -0.17,-0.04 -0.24,-0.05 -0.21,-0.05 -0.42,-0.09 -0.62,-0.13 -0.03,-0.01 -0.04,-0.01 -0.06,-0.01 -0.23,-0.05 -0.46,-0.1 -0.69,-0.15 -0.09,-0.01 -0.16,-0.03 -0.25,-0.05 -19.79,-4.08 -38.92,-7.96 -56.71,-11.52" /><path
         id="path288"
         style="fill:#c5353b;fill-opacity:1;fill-rule:nonzero;stroke:none"
         d="m 2930.8,1962.6 -76.79,115.96 190.04,17.15 1.75,-5.15 c 6.4,-20.35 12.31,-40.4 17.55,-59.74 0.02,-0.08 0.04,-0.16 0.07,-0.25 v 0 c -0.01,0 -0.01,0 -0.01,0 h -0.12 c 1.78,-6.57 3.63,-13.23 5.26,-19.65 0.09,-0.35 0.18,-0.7 0.27,-1.06 -54.83,-29.3 -138.02,-47.26 -138.02,-47.26 v 0 0" /><path
         id="path290"
         style="fill:#d2d4d0;fill-opacity:1;fill-rule:nonzero;stroke:none"
         d="m 2240.41,1577.4 c 0.16,1.12 0.34,2.3 0.5,3.4 -0.16,-1.12 -0.32,-2.25 -0.48,-3.39 -0.01,-0.01 -0.01,-0.01 -0.02,-0.01 m 1.59,14.78 c 0.17,2.93 0.25,5.89 0.25,8.88 0,-2.99 -0.08,-5.95 -0.25,-8.88" /><path
         id="path292"
         style="fill:#c5353b;fill-opacity:1;fill-rule:nonzero;stroke:none"
         d="m 2240.43,1577.41 c 0.16,1.14 0.32,2.27 0.48,3.39 v 0 c 0.51,3.72 0.88,7.52 1.09,11.38 0.17,2.93 0.25,5.89 0.25,8.88 0.09,102.54 -91.78,243.45 -91.78,243.45 l 128.46,67.06 c 0,0 126.29,-212.93 -38.5,-334.16" /><path
         id="path294"
         style="fill:#c5353b;fill-opacity:1;fill-rule:nonzero;stroke:none"
         d="m 2654.56,1716.52 c -5.55,0 -10.6,7.52 -5.64,12.99 15.46,17.07 33.71,31.03 54.25,41.47 1.21,0.62 2.4,0.89 3.53,0.89 6.88,0 11.43,-10.08 4.04,-13.84 -19.49,-9.91 -36.53,-22.92 -51.22,-39.13 -1.52,-1.68 -3.26,-2.38 -4.96,-2.38" /><path
         id="path296"
         style="fill:#c5353b;fill-opacity:1;fill-rule:nonzero;stroke:none"
         d="m 2704.55,1718.19 c -5.51,0.01 -10.54,7.52 -5.66,13.03 6.2,6.99 13.37,12.95 21.29,17.9 1.32,0.83 2.61,1.18 3.83,1.18 6.39,0 10.6,-9.84 3.74,-14.13 -6.89,-4.31 -12.86,-9.48 -18.25,-15.56 -1.52,-1.7 -3.26,-2.42 -4.95,-2.42" /><path
         id="path298"
         style="fill:#e89b27;fill-opacity:1;fill-rule:nonzero;stroke:none"
         d="M 1476.06,1314.84 H 3645.7 c 73.25,0 143.92,-26.75 198.85,-75.22 164.4,-145.04 487.34,-457.589 336.54,-553.94 -198.68,-126.942 -927.18,132.449 -1280.39,0 -353.21,-132.45 -1606.01,-402.879 -1964.743,0 -307.051,344.84 275.423,560.3 449.633,615.22 29.29,9.24 59.75,13.94 90.47,13.94" /><path
         id="path300"
         style="fill:#c1e35d;fill-opacity:1;fill-rule:nonzero;stroke:none"
         d="M 1435.66,1224.74 1814.75,1166.99 1490.89,763.738 910.945,873.25 1435.66,1224.74" /><path
         id="path302"
         style="fill:#ffffff;fill-opacity:1;fill-rule:nonzero;stroke:none"
         d="m 1696.57,1236.3 -479.56,-367.55 712.17,-143.98 274.95,466.52 -507.56,45.01" /><path
         id="path304"
         style="fill:#232917;fill-opacity:1;fill-rule:nonzero;stroke:none"
         d="m 3551.71,1265.26 c -13.87,8.7 -448.21,-56.17 -448.21,-56.17 l -556.11,-33.89 c 0,0 -42.41,3.08 -47.39,-9.24 -4.98,-12.33 112.09,-397.749 119.79,-402.222 7.71,-4.468 496.03,52.532 496.03,52.532 0,0 52.38,-16.938 110.92,7.699 0,0 572.93,11.34 577.55,17.5 4.62,6.16 -238.72,415.101 -252.58,423.791" /><path
         id="path306"
         style="fill:#ffffff;fill-opacity:1;fill-rule:nonzero;stroke:none"
         d="m 3050.29,984.012 c 67.96,6.789 108.74,-78.153 108.74,-78.153 0,0 20.38,73.051 161.39,112.131 141.01,39.07 409.85,-94.381 409.85,-94.381 l -198.41,337.221 c 0,0 -109.13,102.09 -255.24,76.6 -146.11,-25.48 -207.8,-91.79 -207.8,-91.79 0,0 -188.42,207.27 -504.42,-9.34 l 116.19,-355.929 c 0,0 148.84,84.949 369.7,103.641" /><path
         id="path308"
         style="fill:#d0ddf3;fill-opacity:1;fill-rule:nonzero;stroke:none"
         d="m 3176.02,837.898 c 25.48,3.403 583.32,37.422 583.32,37.422 l -29.07,48.289 c 0,0 -268.84,133.451 -409.85,94.381 -141.01,-39.08 -161.39,-112.131 -161.39,-112.131 0,0 -40.78,84.942 -108.74,78.153 -220.86,-18.692 -369.7,-103.641 -369.7,-103.641 l -116.19,355.929 -43.02,-78.4 109.28,-367.568 c 0,0 519.87,44.168 545.36,47.566" /><path
         id="path310"
         style="fill:#dee8f7;fill-opacity:1;fill-rule:nonzero;stroke:none"
         d="m 2564.4,1236.3 -43.02,-78.4 109.28,-367.568 49.93,90.039 -116.19,355.929" /><path
         id="path312"
         style="fill:#dee8f7;fill-opacity:1;fill-rule:nonzero;stroke:none"
         d="m 3247.64,990.34 0.08,0.082 c 0,0 -112.15,94.968 -156.28,273.408 -14.7,-10.85 -22.62,-18.19 -22.62,-18.19 l 90.21,-339.781 c 0,0 12.9,45.973 88.61,84.481" /><path
         id="path314"
         style="fill:#232917;fill-opacity:1;fill-rule:nonzero;stroke:none"
         d="m 2706.59,947.891 c 0,0 0.48,0.257 1.46,0.781 14.76,7.84 139.64,71.328 273.83,71.258 44.08,0 89.12,-6.81 131.69,-24.532 2.55,-1.058 5.47,0.153 6.53,2.704 1.07,2.548 -0.14,5.468 -2.69,6.538 -44.05,18.33 -90.43,25.29 -135.53,25.29 -146.42,-0.07 -279.71,-73.121 -280.08,-73.27 -2.43,-1.32 -3.32,-4.359 -1.99,-6.781 1.32,-2.418 4.36,-3.309 6.78,-1.988" /><path
         id="path316"
         style="fill:#232917;fill-opacity:1;fill-rule:nonzero;stroke:none"
         d="m 2691.55,993.691 c 0,0 0.44,0.258 1.36,0.77 13.82,7.769 131.16,70.809 263.68,70.749 48.14,0 98.24,-8.27 146.27,-30.35 2.51,-1.16 5.47,-0.06 6.63,2.45 1.15,2.51 0.05,5.48 -2.45,6.63 -49.59,22.8 -101.18,31.27 -150.45,31.27 -144.69,-0.07 -269.67,-72.7 -270.06,-72.87 -2.39,-1.38 -3.2,-4.442 -1.81,-6.828 1.38,-2.391 4.44,-3.203 6.83,-1.821" /><path
         id="path318"
         style="fill:#232917;fill-opacity:1;fill-rule:nonzero;stroke:none"
         d="m 2676.51,1039.5 1.27,0.76 c 12.99,7.71 123.75,70.53 254.55,70.47 51.69,-0.01 106.48,-9.75 159.84,-36.42 2.47,-1.24 5.47,-0.24 6.71,2.23 1.23,2.47 0.23,5.48 -2.24,6.71 -54.95,27.47 -111.38,37.48 -164.31,37.48 -142.91,-0.08 -260.65,-72.52 -261.06,-72.71 -2.35,-1.45 -3.09,-4.52 -1.64,-6.88 1.44,-2.35 4.52,-3.09 6.88,-1.64" /><path
         id="path320"
         style="fill:#232917;fill-opacity:1;fill-rule:nonzero;stroke:none"
         d="m 2661.46,1085.31 1.2,0.75 c 12.26,7.69 117.21,70.43 246.29,70.37 54.82,0 113.97,-11.24 172.55,-42.68 2.43,-1.3 5.46,-0.39 6.77,2.04 1.3,2.44 0.39,5.47 -2.04,6.77 -60.19,32.32 -121.11,43.88 -177.28,43.87 -141.14,-0.07 -252.52,-72.52 -252.93,-72.74 -2.32,-1.5 -2.98,-4.6 -1.48,-6.91 1.51,-2.32 4.6,-2.98 6.92,-1.48" /><path
         id="path322"
         style="fill:#232917;fill-opacity:1;fill-rule:nonzero;stroke:none"
         d="m 2646.41,1131.12 1.14,0.75 c 11.61,7.67 111.37,70.48 238.78,70.42 57.58,-0.01 120.81,-12.74 184.51,-49.09 2.4,-1.37 5.45,-0.54 6.82,1.86 1.37,2.4 0.54,5.45 -1.86,6.82 -65.31,37.29 -130.42,50.42 -189.47,50.41 -139.43,-0.07 -245.14,-72.69 -245.57,-72.93 -2.28,-1.56 -2.86,-4.67 -1.3,-6.95 1.56,-2.28 4.68,-2.86 6.95,-1.29" /><path
         id="path324"
         style="fill:#232917;fill-opacity:1;fill-rule:nonzero;stroke:none"
         d="m 2631.37,1176.93 1.07,0.75 c 11.03,7.68 106.13,70.66 231.92,70.6 60.04,-0.01 127.1,-14.24 195.84,-55.64 2.36,-1.43 5.44,-0.67 6.86,1.7 1.43,2.36 0.66,5.44 -1.7,6.86 -70.34,42.39 -139.38,57.1 -201,57.08 -137.79,-0.06 -238.42,-72.98 -238.86,-73.25 -2.23,-1.62 -2.73,-4.74 -1.12,-6.98 1.62,-2.24 4.75,-2.74 6.99,-1.12" /><path
         id="path326"
         style="fill:#232917;fill-opacity:1;fill-rule:nonzero;stroke:none"
         d="m 2616.32,1222.74 1.01,0.75 c 10.51,7.7 101.37,70.95 225.62,70.89 62.24,-0.01 132.91,-15.75 206.62,-62.31 2.33,-1.47 5.42,-0.78 6.89,1.56 1.48,2.33 0.78,5.42 -1.55,6.9 -75.29,47.58 -148.03,63.87 -211.96,63.85 -136.22,-0.06 -232.25,-73.39 -232.7,-73.68 -2.19,-1.68 -2.62,-4.82 -0.94,-7.01 1.67,-2.2 4.81,-2.62 7.01,-0.95" /><path
         id="path328"
         style="fill:#232917;fill-opacity:1;fill-rule:nonzero;stroke:none"
         d="m 3183.71,985.449 0.15,0.192 c 3.75,4.441 71.9,83.469 206.83,83.449 69.7,-0.01 157.49,-21.04 263.93,-84.77 2.37,-1.422 5.44,-0.648 6.86,1.719 1.42,2.371 0.65,5.441 -1.72,6.852 -107.67,64.489 -197.33,86.199 -269.07,86.199 -71.75,0.01 -125.42,-21.71 -161.08,-43.47 -35.67,-21.77 -53.4,-43.538 -53.66,-43.858 -1.74,-2.153 -1.42,-5.301 0.73,-7.043 2.14,-1.739 5.29,-1.41 7.03,0.73" /><path
         id="path330"
         style="fill:#232917;fill-opacity:1;fill-rule:nonzero;stroke:none"
         d="m 3170.1,1024.03 0.16,0.18 c 3.75,4.36 72.02,82 205.84,81.98 68.15,-0.01 153.54,-20.08 256.56,-80.61 2.38,-1.4 5.45,-0.61 6.85,1.77 1.4,2.39 0.6,5.45 -1.78,6.85 -104.25,61.27 -191.49,82 -261.63,81.99 -71.15,0.01 -124.56,-21.32 -160.1,-42.7 -35.56,-21.38 -53.33,-42.76 -53.6,-43.08 -1.76,-2.12 -1.46,-5.28 0.66,-7.04 2.13,-1.76 5.28,-1.46 7.04,0.66" /><path
         id="path332"
         style="fill:#232917;fill-opacity:1;fill-rule:nonzero;stroke:none"
         d="m 3156.5,1062.61 0.15,0.18 c 3.76,4.28 72.18,80.53 204.94,80.51 66.57,-0.01 149.54,-19.12 249.11,-76.46 2.39,-1.38 5.45,-0.56 6.83,1.83 1.38,2.4 0.56,5.45 -1.84,6.83 -100.8,58.07 -185.59,77.81 -254.1,77.8 -70.58,0.01 -123.74,-20.94 -159.18,-41.93 -35.46,-20.99 -53.28,-41.99 -53.55,-42.3 -1.78,-2.11 -1.52,-5.26 0.59,-7.05 2.11,-1.78 5.26,-1.52 7.05,0.59" /><path
         id="path334"
         style="fill:#232917;fill-opacity:1;fill-rule:nonzero;stroke:none"
         d="m 3142.89,1101.19 0.15,0.17 c 3.77,4.2 72.39,79.09 204.11,79.07 64.97,-0.01 145.49,-18.17 241.59,-72.33 2.41,-1.36 5.46,-0.51 6.81,1.9 1.36,2.4 0.51,5.45 -1.9,6.81 -97.33,54.88 -179.65,73.62 -246.5,73.62 -140.14,-0.03 -211.36,-82.16 -211.82,-82.7 -1.81,-2.09 -1.58,-5.25 0.51,-7.06 2.09,-1.8 5.25,-1.57 7.05,0.52" /><path
         id="path336"
         style="fill:#232917;fill-opacity:1;fill-rule:nonzero;stroke:none"
         d="m 3129.28,1139.76 0.16,0.17 c 3.77,4.12 72.64,77.66 203.37,77.64 63.33,-0.01 141.36,-17.21 233.98,-68.21 2.42,-1.34 5.46,-0.46 6.79,1.96 1.33,2.42 0.45,5.46 -1.97,6.79 -93.84,51.7 -173.64,69.46 -238.8,69.46 -139.07,-0.03 -210.56,-80.65 -211.02,-81.19 -1.83,-2.06 -1.64,-5.22 0.43,-7.05 2.07,-1.83 5.23,-1.64 7.06,0.43" /><path
         id="path338"
         style="fill:#232917;fill-opacity:1;fill-rule:nonzero;stroke:none"
         d="m 3115.67,1178.34 0.16,0.16 c 3.78,4.05 72.95,76.25 202.73,76.23 61.66,-0.01 137.18,-16.25 226.28,-64.12 2.43,-1.3 5.46,-0.39 6.77,2.04 1.3,2.43 0.39,5.46 -2.04,6.77 -90.33,48.54 -167.58,65.31 -231.01,65.3 -138.04,-0.03 -209.83,-79.15 -210.31,-79.68 -1.85,-2.04 -1.69,-5.21 0.36,-7.06 2.05,-1.85 5.21,-1.69 7.06,0.36" /><path
         id="path340"
         style="fill:#232917;fill-opacity:1;fill-rule:nonzero;stroke:none"
         d="m 3102.06,1216.91 0.15,0.16 c 3.81,3.98 73.33,74.86 202.2,74.83 59.96,0 132.92,-15.29 218.48,-60.03 2.44,-1.28 5.46,-0.33 6.74,2.11 1.28,2.45 0.34,5.47 -2.11,6.75 -86.78,45.39 -161.43,61.18 -223.11,61.17 -137.04,-0.03 -209.21,-77.67 -209.69,-78.19 -1.88,-2.03 -1.76,-5.19 0.27,-7.07 2.03,-1.88 5.19,-1.76 7.07,0.27" /><path
         id="path342"
         style="fill:#d0ddf3;fill-opacity:1;fill-rule:nonzero;stroke:none"
         d="m 3179.83,1911.57 145.61,-537.23 731.04,206.46 v 566.4 l -876.65,-235.63" /><path
         id="path344"
         style="fill:#d0ddf3;fill-opacity:1;fill-rule:nonzero;stroke:none"
         d="m 4243.23,2286.77 -14.46,-4 8.01,-28.91 14.45,4" /><path
         id="path346"
         style="fill:#d0ddf3;fill-opacity:1;fill-rule:nonzero;stroke:none"
         d="m 4205.07,2276.21 -23.71,-6.57 8,-28.91 23.71,6.57 z m -47.42,-13.13 -23.71,-6.56 8.01,-28.91 23.7,6.56" /><path
         id="path348"
         style="fill:#d0ddf3;fill-opacity:1;fill-rule:nonzero;stroke:none"
         d="m 4110.24,2249.95 -23.71,-6.56 8,-28.91 23.71,6.56 z m -47.42,-13.12 -23.71,-6.57 8.01,-28.91 23.71,6.57 z m -47.41,-13.13 -23.71,-6.56 8,-28.91 23.71,6.56 z" /><path
         id="path350"
         style="fill:#d0ddf3;fill-opacity:1;fill-rule:nonzero;stroke:none"
         d="m 3967.99,2210.57 -25.45,-7.04 v -26.41 h 30 v 3.58 l 3.46,0.96 -8.01,28.91" /><path
         id="path352"
         style="fill:#d0ddf3;fill-opacity:1;fill-rule:nonzero;stroke:none"
         d="m 3942.54,2133.52 h 30 v 21.8008 h -30 z m 0,-43.6 h 30 v 21.7969 h -30 z" /><path
         id="path354"
         style="fill:#d0ddf3;fill-opacity:1;fill-rule:nonzero;stroke:none"
         d="m 3942.54,2053.12 h 30 v 15 h -30 z" /><path
         id="path356"
         style="fill:#728ed0;fill-opacity:1;fill-rule:nonzero;stroke:none"
         d="m 3686.92,1881.01 c -19.02,-19.14 -33.31,-42.92 -41.19,-69.46 l 158.63,-47.04 -117.44,116.5" /><path
         id="path358"
         style="fill:#a6bee7;fill-opacity:1;fill-rule:nonzero;stroke:none"
         d="m 3804.36,1929.9 c -1.88,0 -3.7,-0.22 -5.55,-0.28 l 5.55,-165.11 -79.4,-145.12 c 23.57,-12.91 50.62,-20.27 79.4,-20.27 91.41,0 165.51,74.05 165.51,165.39 0,91.34 -74.1,165.39 -165.51,165.39" /><path
         id="path360"
         style="fill:#ee3a42;fill-opacity:1;fill-rule:nonzero;stroke:none"
         d="m 3645.73,1811.55 c -4.42,-14.92 -6.89,-30.69 -6.89,-47.04 0,-62.59 34.81,-117.03 86.12,-145.12 l 79.4,145.12 -158.63,47.04" /><path
         id="path362"
         style="fill:#ffffff;fill-opacity:1;fill-rule:nonzero;stroke:none"
         d="m 3560.2,1803.47 -249.5,-55.94 2.19,-9.76 249.5,55.95" /><path
         id="path364"
         style="fill:#ffffff;fill-opacity:1;fill-rule:nonzero;stroke:none"
         d="m 3579.06,1725.29 -247.39,-60.61 2.38,-9.71 247.39,60.61" /><path
         id="path366"
         style="fill:#ffffff;fill-opacity:1;fill-rule:nonzero;stroke:none"
         d="m 3597.91,1647.11 -245.26,-65.28 2.57,-9.66 245.27,65.27" /><path
         id="path368"
         style="fill:#ffffff;fill-opacity:1;fill-rule:nonzero;stroke:none"
         d="m 3616.77,1568.92 -243.15,-69.93 2.76,-9.61 243.15,69.93" /><path
         id="path370"
         style="fill:#728ed0;fill-opacity:1;fill-rule:nonzero;stroke:none"
         d="m 4538.24,2292.7 h -20 c -0.01,-34.72 -14.01,-65.97 -36.76,-88.74 -22.77,-22.75 -54.02,-36.75 -88.74,-36.76 -34.72,0.01 -65.97,14.01 -88.75,36.76 -22.74,22.77 -36.75,54.02 -36.76,88.74 0.01,34.72 14.02,65.97 36.76,88.75 22.78,22.74 54.03,36.75 88.75,36.76 34.72,-0.01 65.97,-14.02 88.74,-36.76 22.75,-22.78 36.75,-54.03 36.76,-88.75 h 20 20 c -0.01,91.42 -74.09,165.5 -165.5,165.51 -91.42,-0.01 -165.5,-74.09 -165.51,-165.51 0.01,-91.41 74.09,-165.49 165.51,-165.5 91.41,0.01 165.49,74.09 165.5,165.5 h -20" /><path
         id="path372"
         style="fill:#a9d92f;fill-opacity:1;fill-rule:nonzero;stroke:none"
         d="m 4320.06,2279.25 57.54,-48.07 c 6.04,-5.04 14.93,-4.57 20.4,1.09 l 188.39,194.97 c 5.76,5.96 5.6,15.45 -0.36,21.21 -5.96,5.76 -15.45,5.59 -21.21,-0.36 l -178.7,-184.94 -46.83,39.13 c -6.36,5.31 -15.82,4.46 -21.13,-1.9 -5.31,-6.36 -4.46,-15.82 1.9,-21.13" /></g></g></svg>