<?xml version="1.0" encoding="UTF-8" standalone="no"?>
<svg
   xmlns:dc="http://purl.org/dc/elements/1.1/"
   xmlns:cc="http://creativecommons.org/ns#"
   xmlns:rdf="http://www.w3.org/1999/02/22-rdf-syntax-ns#"
   xmlns:svg="http://www.w3.org/2000/svg"
   xmlns="http://www.w3.org/2000/svg"
   viewBox="0 0 4946.6665 4946.6665"
   height="4946.6665"
   width="4946.6665"
   xml:space="preserve"
   id="svg2"
   version="1.1"><metadata
     id="metadata8"><rdf:RDF><cc:Work
         rdf:about=""><dc:format>image/svg+xml</dc:format><dc:type
           rdf:resource="http://purl.org/dc/dcmitype/StillImage" /></cc:Work></rdf:RDF></metadata><defs
     id="defs6"><clipPath
       id="clipPath24"
       clipPathUnits="userSpaceOnUse"><path
         id="path22"
         d="m 17354.6,3898.3 c -583.4,0 -1183.1,40.9 -1798.7,130.9 C 12772,4436.3 10609.2,5711 9238.41,6759.7 12356.8,6725.3 15955,6721 17576.5,6721 c 85,0 165,0 238.8,0 376.6,0.1 689.2,233.9 719.7,539.7 55.1,553 59.9,1397 36.6,2328.9 H 28802.2 C 28370.8,9062 27910.1,8565.3 27421.8,8105.3 26795.2,7515 22832.2,3898.3 17354.6,3898.3 m 14063,10042.2 150.9,10422.2 c 0,244 -277.1,712 -786.7,712 -19,0 -38.3,-0.6 -57.9,-2 l -4679.5,121.1 c -377.3,2457.5 -2368,4460 -4969.5,4754.9 -217.9,24.7 -434.6,36.8 -648.9,36.8 -2676.7,0 -5004.2,-1881.6 -5540.3,-4503 l -4732.9,122.5 c -311,927 -472.7,2014.4 -548.78,3064.2 3035.08,2452.9 6933.08,3559.5 10550.98,3559.5 1243.4,0 2453.6,-130.7 3584.6,-382.2 1578.1,-351.1 4753.4,-1057.3 6934,-3808.6 2873.2,-3625.1 2807.2,-9271.9 744,-14097.4 M 4381.02,15161 c -248.22,1844.4 -130.9,3773.4 317.02,5619.3 170.45,-584.5 382.18,-1134.5 621.1,-1649.6 l 83.22,-3519.8 c -54.88,0.2 -107.65,0.4 -158.7,0.5 -1.23,0 -2.38,0 -3.61,0 -381.07,0 -710.31,-183.2 -859.03,-450.4" /></clipPath><linearGradient
       id="linearGradient32"
       spreadMethod="pad"
       gradientTransform="matrix(17509.4,-25365.2,-25044.9,-17899.4,5246.03,38179.3)"
       gradientUnits="userSpaceOnUse"
       y2="0"
       x2="1"
       y1="0"
       x1="0"><stop
         id="stop28"
         offset="0"
         style="stop-opacity:1;stop-color:#dae3fe" /><stop
         id="stop30"
         offset="1"
         style="stop-opacity:1;stop-color:#e9effd" /></linearGradient><clipPath
       id="clipPath58"
       clipPathUnits="userSpaceOnUse"><path
         id="path56"
         d="M 30900.7,9589.6 H 18571.6 c -3.8,153.3 -8.4,308.7 -13.7,465.9 h 11742.2 c 239.6,0 435.7,196 435.7,435.7 l 195.6,12993.4 c -22.4,760.3 -671.2,1047.1 -1089.1,1047.1 -11.9,0 -23.5,-0.3 -35,-0.7 l -3705.5,99.4 c -9.7,190.1 -28.9,377.9 -57.4,563.4 l 4679.5,-121.1 c 19.6,1.4 38.9,2 57.9,2 509.6,0 786.7,-468 786.7,-712 l -150.9,-10422.2 -56.3,-3890.8 c 0,-253 -207.3,-460.1 -460.6,-460.1 M 5860.18,15609 c -164.09,0.8 -317.12,1.4 -457.82,1.9 l -83.22,3519.8 -104.72,4428.5 -15.07,637.5 -7.54,318.8 c -7.51,317.5 115.64,624.2 340.72,848.6 158.25,157.7 357.15,265 571.8,312 51.24,11.2 103.37,19 156.07,23.2 30.58,2.4 61.36,3.6 92.25,3.6 10.03,0 20.07,-0.1 30.12,-0.4 l 2007.86,-51.9 97.24,-2.5 1664.93,-43.1 4732.9,-122.5 c -33.4,-163.4 -59.9,-329.9 -79.1,-498.8 -1.9,-16.8 -3.7,-33.3 -5.4,-50.1 l -8323.4,223.3 c -7.29,0.2 -14.59,0.3 -21.87,0.3 -215.48,0 -422.55,-85.5 -575.48,-238.1 -158.09,-157.8 -244.44,-373.7 -238.84,-597 L 5860.18,15609" /></clipPath><linearGradient
       id="linearGradient66"
       spreadMethod="pad"
       gradientTransform="matrix(-5882.32,17647,-17647,-5882.32,20722.5,10689.9)"
       gradientUnits="userSpaceOnUse"
       y2="0"
       x2="1"
       y1="0"
       x1="0"><stop
         id="stop62"
         offset="0"
         style="stop-opacity:1;stop-color:#09005d" /><stop
         id="stop64"
         offset="1"
         style="stop-opacity:1;stop-color:#1a0f91" /></linearGradient><clipPath
       id="clipPath88"
       clipPathUnits="userSpaceOnUse"><path
         id="path86"
         d="m 4376,8401.5 h 28374.9 c 36.6,0 66.5,29.9 66.5,66.4 v 1124.7 c 0,36.5 -29.9,66.4 -66.5,66.4 H 4376 c -36.57,0 -66.48,-29.9 -66.48,-66.4 V 8467.9 c 0,-36.5 29.91,-66.4 66.48,-66.4 z" /></clipPath><linearGradient
       id="linearGradient96"
       spreadMethod="pad"
       gradientTransform="matrix(497.6,2875.02,2875.02,-497.6,18491,8611.8)"
       gradientUnits="userSpaceOnUse"
       y2="0"
       x2="1"
       y1="0"
       x1="0"><stop
         id="stop92"
         offset="0"
         style="stop-opacity:1;stop-color:#09005d" /><stop
         id="stop94"
         offset="1"
         style="stop-opacity:1;stop-color:#1a0f91" /></linearGradient><clipPath
       id="clipPath106"
       clipPathUnits="userSpaceOnUse"><path
         id="path104"
         d="m 17576.5,6721 c -1621.5,0 -5219.7,4.3 -8338.09,38.7 -1821.64,20.1 -3479.51,50.4 -4483.48,96.2 -297.98,13.5 -533.38,213.1 -538.31,456.3 -24.29,1202.7 -58.8,5610.6 81.56,7574.3 6.99,97.7 35.96,190.3 82.84,274.5 148.72,267.2 477.96,450.4 859.03,450.4 1.23,0 2.38,0 3.61,0 51.05,-0.1 103.82,-0.3 158.7,-0.5 140.7,-0.5 293.73,-1.1 457.82,-1.9 2802.96,-13 8833.32,-71 11708.72,-326.5 372.5,-33.1 664.8,-277.7 696.1,-582 83.4,-813.7 232.3,-2828.1 292.9,-4645 5.3,-157.2 9.9,-312.6 13.7,-465.9 23.3,-931.9 18.5,-1775.9 -36.6,-2328.9 -30.5,-305.8 -343.1,-539.6 -719.7,-539.7 -73.8,0 -153.8,0 -238.8,0 m 538.4,4623.4 c -73,0 -134.4,-49.3 -131.2,-111.8 18.3,-357.9 54,-1158.5 66.6,-1442.7 2.5,-57.6 59.9,-103.6 130.5,-105 1.1,0 2.2,-0.1 3.3,-0.1 69.8,0 127.9,44 131.5,101.1 30.8,482.5 -30,1212.8 -52.3,1454.9 -4.4,48.1 -47.3,88.2 -105.2,98.5 l -14.4,2.5 c -9.7,1.7 -19.4,2.6 -28.8,2.6" /></clipPath><linearGradient
       id="linearGradient114"
       spreadMethod="pad"
       gradientTransform="matrix(176.105,8834.89,-9266.81,184.446,11323.9,6705.9)"
       gradientUnits="userSpaceOnUse"
       y2="0"
       x2="1"
       y1="0"
       x1="0"><stop
         id="stop110"
         offset="0"
         style="stop-opacity:1;stop-color:#09005d" /><stop
         id="stop112"
         offset="1"
         style="stop-opacity:1;stop-color:#1a0f91" /></linearGradient><clipPath
       id="clipPath128"
       clipPathUnits="userSpaceOnUse"><path
         id="path126"
         d="m 18184.1,9684.8 c -1.1,0 -2.2,0.1 -3.3,0.1 -70.6,1.4 -128,47.4 -130.5,105 -12.6,284.2 -48.3,1084.8 -66.6,1442.7 -3.2,62.5 58.2,111.8 131.2,111.8 9.4,0 19.1,-0.9 28.8,-2.6 l 14.4,-2.5 c 57.9,-10.3 100.8,-50.4 105.2,-98.5 22.3,-242.1 83.1,-972.4 52.3,-1454.9 -3.6,-57.1 -61.7,-101.1 -131.5,-101.1" /></clipPath><linearGradient
       id="linearGradient136"
       spreadMethod="pad"
       gradientTransform="matrix(176.105,8834.89,-9266.81,184.446,11323.9,6705.9)"
       gradientUnits="userSpaceOnUse"
       y2="0"
       x2="1"
       y1="0"
       x1="0"><stop
         id="stop132"
         offset="0"
         style="stop-opacity:1;stop-color:#8480ae" /><stop
         id="stop134"
         offset="1"
         style="stop-opacity:1;stop-color:#8d87c8" /></linearGradient><clipPath
       id="clipPath146"
       clipPathUnits="userSpaceOnUse"><path
         id="path144"
         d="m 16282.6,15928.3 c -35.2,-1665.5 -149.7,-7410.2 -95.1,-9445.9 5.8,-215.7 153.6,-388.8 338,-395.8 911.7,-35 4254.3,-123.4 5745.7,-50.2 310.6,15.2 557.6,309.6 564.1,673.2 31,1748.1 99.3,6664.8 -63.2,8917.1 -19.5,269.9 -200.5,484.8 -430.9,511.8 -992.9,116.2 -4349.9,400.2 -5638.3,302.4 -232.4,-17.6 -414.5,-240.3 -420.3,-512.6 z" /></clipPath><linearGradient
       id="linearGradient154"
       spreadMethod="pad"
       gradientTransform="matrix(6703.28,0,0,-6703.28,16173,11234.6)"
       gradientUnits="userSpaceOnUse"
       y2="0"
       x2="1"
       y1="0"
       x1="0"><stop
         id="stop150"
         offset="0"
         style="stop-opacity:1;stop-color:#09005d" /><stop
         id="stop152"
         offset="1"
         style="stop-opacity:1;stop-color:#1a0f91" /></linearGradient><clipPath
       id="clipPath170"
       clipPathUnits="userSpaceOnUse"><path
         id="path168"
         d="m 11406.1,9916.2 c -91.5,-6 -176.7,36.6 -224.1,112.7 l -796.1,1278.4 c -74.6,119.8 -34.4,283.9 89.7,366.5 124.1,82.5 285.1,52.4 359.6,-67.4 l 552.1,-887.4 728.5,1483.7 c 65.4,133.2 222.4,194.2 350.7,136.5 128.3,-57.7 179.3,-212.4 114,-345.5 l -941.4,-1918.9 c -43.1,-87.8 -128.8,-148.3 -223.8,-157.8 -3,-0.3 -6.1,-0.6 -9.2,-0.8 z" /></clipPath><linearGradient
       id="linearGradient176"
       spreadMethod="pad"
       gradientTransform="matrix(-2905.57,-6122.45,-6122.45,2905.57,13539.5,16120)"
       gradientUnits="userSpaceOnUse"
       y2="0"
       x2="1"
       y1="0"
       x1="0"><stop
         id="stop172"
         offset="0"
         style="stop-opacity:1;stop-color:#ff928e" /><stop
         id="stop174"
         offset="1"
         style="stop-opacity:1;stop-color:#fe7062" /></linearGradient><clipPath
       id="clipPath246"
       clipPathUnits="userSpaceOnUse"><path
         id="path244"
         d="m 8208.06,21019.6 c -101.95,-6.6 -196.81,40.8 -249.58,125.6 l -886.33,1423.2 c -83.06,133.4 -38.31,316.1 99.92,408 138.11,91.9 317.35,58.3 400.31,-75 l 614.68,-987.9 811.06,1651.8 c 72.78,148.2 247.66,216.2 390.49,151.9 142.81,-64.2 199.63,-236.4 126.94,-384.6 L 8467.44,21196.3 c -48,-97.9 -143.41,-165.2 -249.14,-175.8 -3.42,-0.3 -6.83,-0.6 -10.24,-0.9 z" /></clipPath><linearGradient
       id="linearGradient254"
       spreadMethod="pad"
       gradientTransform="matrix(-3234.84,-6816.27,-6816.27,3234.84,10583.2,27926.5)"
       gradientUnits="userSpaceOnUse"
       y2="0"
       x2="1"
       y1="0"
       x1="0"><stop
         id="stop250"
         offset="0"
         style="stop-opacity:1;stop-color:#ff928e" /><stop
         id="stop252"
         offset="1"
         style="stop-opacity:1;stop-color:#fe7062" /></linearGradient><clipPath
       id="clipPath328"
       clipPathUnits="userSpaceOnUse"><path
         id="path326"
         d="m 19438.1,10363.6 c -83.3,-5.5 -160.9,33.3 -204,102.6 l -724.4,1163.2 c -67.9,109 -31.3,258.3 81.7,333.4 112.8,75.1 259.3,47.7 327.1,-61.3 l 502.4,-807.4 662.9,1350 c 59.5,121.2 202.4,176.8 319.1,124.2 116.8,-52.5 163.2,-193.2 103.8,-314.3 l -856.6,-1746.1 c -39.3,-79.9 -117.2,-134.9 -203.7,-143.6 -2.7,-0.3 -5.5,-0.5 -8.3,-0.7 z" /></clipPath><linearGradient
       id="linearGradient336"
       spreadMethod="pad"
       gradientTransform="matrix(-2643.83,-5570.93,-5570.93,2643.83,21379.3,16008.6)"
       gradientUnits="userSpaceOnUse"
       y2="0"
       x2="1"
       y1="0"
       x1="0"><stop
         id="stop332"
         offset="0"
         style="stop-opacity:1;stop-color:#ff928e" /><stop
         id="stop334"
         offset="1"
         style="stop-opacity:1;stop-color:#fe7062" /></linearGradient><clipPath
       id="clipPath346"
       clipPathUnits="userSpaceOnUse"><path
         id="path344"
         d="m 26315.5,20114.9 c 1732.9,-51 2141.5,-456.9 2141.5,-456.9 l -971.9,-1209.4 c 0,0 -1683.1,223.5 -2786.9,1291.4 253.7,218.1 441.2,469.7 565.6,667.9 297.1,-164.6 647.5,-281 1051.7,-293 z" /></clipPath><linearGradient
       id="linearGradient354"
       spreadMethod="pad"
       gradientTransform="matrix(345.874,-5179.32,5179.32,345.874,26246.5,24658.2)"
       gradientUnits="userSpaceOnUse"
       y2="0"
       x2="1"
       y1="0"
       x1="0"><stop
         id="stop350"
         offset="0"
         style="stop-opacity:1;stop-color:#e1473d" /><stop
         id="stop352"
         offset="1"
         style="stop-opacity:1;stop-color:#e9605a" /></linearGradient><clipPath
       id="clipPath364"
       clipPathUnits="userSpaceOnUse"><path
         id="path362"
         d="m 24698.2,19740 c -145.5,140.8 -280.9,296.2 -401.1,467.7 178.1,164.2 346,340 502,526.1 136.8,-117.6 291.7,-230 464.7,-325.9 -124.4,-198.2 -311.9,-449.8 -565.6,-667.9" /></clipPath><linearGradient
       id="linearGradient372"
       spreadMethod="pad"
       gradientTransform="matrix(-1676.88,189.001,-189.001,-1676.88,25358.2,21245.9)"
       gradientUnits="userSpaceOnUse"
       y2="0"
       x2="1"
       y1="0"
       x1="0"><stop
         id="stop368"
         offset="0"
         style="stop-opacity:1;stop-color:#febbba" /><stop
         id="stop370"
         offset="1"
         style="stop-opacity:1;stop-color:#ff928e" /></linearGradient><clipPath
       id="clipPath386"
       clipPathUnits="userSpaceOnUse"><path
         id="path384"
         d="m 20453,18892.4 c -207.2,0 -416.6,11.7 -627.4,35.5 -3007.6,341 -5170.8,3042.8 -4831.7,6034.6 315.4,2782.2 2683.5,4835.4 5432.6,4835.4 207.1,0 416.6,-11.6 627.3,-35.5 3007.6,-341 5170.9,-3042.7 4831.7,-6034.6 C 25570.1,20945.6 23202,18892.3 20453,18892.4 m -171.8,10184.9 c -2448.3,0 -4557.4,-1828.6 -4838.3,-4306.5 -302.1,-2664.6 1624.5,-5070.8 4303.2,-5374.5 187.7,-21.2 374.2,-31.6 558.7,-31.6 2448.3,-0.1 4557.4,1828.6 4838.3,4306.5 302.1,2664.6 -1624.5,5070.8 -4303.2,5374.5 -187.7,21.2 -374.2,31.6 -558.7,31.6 m 5206.1,-4364.9 c -0.5,0 -1,0 -1.5,0 -19.1,-1.3 -33.5,-17.8 -32.2,-36.8 13.9,-209.1 14.5,-421.8 1.8,-632.1 -1.2,-19 13.4,-35.4 32.4,-36.6 h 2.1 c 18.2,0 33.4,14.1 34.5,32.5 12.9,213.2 12.3,428.8 -1.8,640.8 -1.2,18.5 -17.1,32.2 -35.3,32.2 m -5060.2,4631.7 c 191.9,0 384.5,-10.9 575.6,-32.6 1896,-214.9 3486.3,-1455.3 4150.2,-3237.1 5.2,-14 18.4,-22.5 32.4,-22.5 4.1,0 8.1,0.7 12.1,2.1 17.9,6.7 27,26.6 20.4,44.6 -323,866.7 -878.1,1630.3 -1605.4,2208.2 -747.5,594 -1647.2,965.2 -2601.9,1073.4 -193.8,22 -389.1,33.1 -583.8,33.1 -113.2,0 -226.2,-3.8 -338.5,-11.3 -19.1,-1.2 -33.5,-17.7 -32.2,-36.8 1.2,-18.5 17.3,-32.2 35.3,-32.2 0.5,0 1,0 1.5,0 110.9,7.4 222.5,11.1 334.3,11.1" /></clipPath><linearGradient
       id="linearGradient394"
       spreadMethod="pad"
       gradientTransform="matrix(-4462.12,-12141.1,-12141.1,4462.12,23154.8,31732.8)"
       gradientUnits="userSpaceOnUse"
       y2="0"
       x2="1"
       y1="0"
       x1="0"><stop
         id="stop390"
         offset="0"
         style="stop-opacity:1;stop-color:#ff928e" /><stop
         id="stop392"
         offset="1"
         style="stop-opacity:1;stop-color:#fe7062" /></linearGradient><clipPath
       id="clipPath404"
       clipPathUnits="userSpaceOnUse"><path
         id="path402"
         d="m 25489.9,24006.9 h -2.1 c -19,1.2 -33.6,17.6 -32.4,36.6 12.7,210.3 12.1,423 -1.8,632.1 -1.3,19 13.1,35.5 32.2,36.8 0.5,0 1,0 1.5,0 18.2,0 34.1,-13.7 35.3,-32.2 14.1,-212 14.7,-427.6 1.8,-640.8 -1.1,-18.4 -16.3,-32.5 -34.5,-32.5" /></clipPath><clipPath
       id="clipPath410"
       clipPathUnits="userSpaceOnUse"><path
         id="path408"
         d="m 25452.3,24006.9 h 85 v 705.504 h -85 z" /></clipPath><linearGradient
       id="linearGradient418"
       spreadMethod="pad"
       gradientTransform="matrix(-4462.12,-12141.1,-12141.1,4462.12,23154.8,31732.8)"
       gradientUnits="userSpaceOnUse"
       y2="0"
       x2="1"
       y1="0"
       x1="0"><stop
         id="stop414"
         offset="0"
         style="stop-opacity:1;stop-color:#ffdad8" /><stop
         id="stop416"
         offset="1"
         style="stop-opacity:1;stop-color:#ffcec9" /></linearGradient><clipPath
       id="clipPath428"
       clipPathUnits="userSpaceOnUse"><path
         id="path426"
         d="m 25185.3,26051.9 c -14,0 -27.2,8.5 -32.4,22.5 -663.9,1781.8 -2254.2,3022.2 -4150.2,3237.1 -191.1,21.7 -383.7,32.6 -575.6,32.6 -111.8,0 -223.4,-3.7 -334.3,-11.1 -0.5,0 -1,0 -1.5,0 -18,0 -34.1,13.7 -35.3,32.2 -1.3,19.1 13.1,35.6 32.2,36.8 112.3,7.5 225.3,11.3 338.5,11.3 194.7,0 390,-11.1 583.8,-33.1 954.7,-108.2 1854.4,-479.4 2601.9,-1073.4 727.3,-577.9 1282.4,-1341.5 1605.4,-2208.2 6.6,-18 -2.5,-37.9 -20.4,-44.6 -4,-1.4 -8,-2.1 -12.1,-2.1" /></clipPath><linearGradient
       id="linearGradient436"
       spreadMethod="pad"
       gradientTransform="matrix(-4462.12,-12141.1,-12141.1,4462.12,23154.8,31732.8)"
       gradientUnits="userSpaceOnUse"
       y2="0"
       x2="1"
       y1="0"
       x1="0"><stop
         id="stop432"
         offset="0"
         style="stop-opacity:1;stop-color:#ffdad8" /><stop
         id="stop434"
         offset="1"
         style="stop-opacity:1;stop-color:#ffcec9" /></linearGradient><clipPath
       id="clipPath446"
       clipPathUnits="userSpaceOnUse"><path
         id="path444"
         d="m 20304.8,19364.7 c -184.5,0 -371,10.4 -558.7,31.6 -2678.7,303.7 -4605.3,2709.9 -4303.2,5374.5 280.9,2477.9 2390,4306.5 4838.3,4306.5 184.5,0 371,-10.4 558.7,-31.6 2678.7,-303.7 4605.3,-2709.9 4303.2,-5374.5 -280.9,-2477.9 -2390,-4306.6 -4838.3,-4306.5" /></clipPath><linearGradient
       id="linearGradient454"
       spreadMethod="pad"
       gradientTransform="matrix(-4462.12,-12141.1,-12141.1,4462.12,23154.8,31732.8)"
       gradientUnits="userSpaceOnUse"
       y2="0"
       x2="1"
       y1="0"
       x1="0"><stop
         id="stop450"
         offset="0"
         style="stop-opacity:1;stop-color:#ffb3b0" /><stop
         id="stop452"
         offset="1"
         style="stop-opacity:1;stop-color:#fe9b91" /></linearGradient><clipPath
       id="clipPath472"
       clipPathUnits="userSpaceOnUse"><path
         id="path470"
         d="m 29052.3,7446.9 c 0,0 134.9,-190.6 194.3,-740.4 5.6,-51.2 -32.9,-97.1 -84.4,-99.7 l -977.1,-49.5 c -39.3,-2 -69.3,35.1 -58.6,73 48.6,172.4 200.8,594.3 575.1,850 z" /></clipPath><linearGradient
       id="linearGradient480"
       spreadMethod="pad"
       gradientTransform="matrix(-1124.34,-57.0784,57.0784,-1124.34,29228.9,7058.6)"
       gradientUnits="userSpaceOnUse"
       y2="0"
       x2="1"
       y1="0"
       x1="0"><stop
         id="stop476"
         offset="0"
         style="stop-opacity:1;stop-color:#09005d" /><stop
         id="stop478"
         offset="1"
         style="stop-opacity:1;stop-color:#1a0f91" /></linearGradient><clipPath
       id="clipPath490"
       clipPathUnits="userSpaceOnUse"><path
         id="path488"
         d="m 29184.8,7745.8 -107,-454.9 c -9.2,-39.2 -44,-67.6 -84.3,-67.7 -53.9,-0.1 -131.6,4.3 -205.4,25.2 -67,18.9 -109.3,85.3 -101.4,154.5 l 50.1,445.2 z" /></clipPath><linearGradient
       id="linearGradient498"
       spreadMethod="pad"
       gradientTransform="matrix(-453.719,51.1387,-51.1387,-453.719,29157,7499.7)"
       gradientUnits="userSpaceOnUse"
       y2="0"
       x2="1"
       y1="0"
       x1="0"><stop
         id="stop494"
         offset="0"
         style="stop-opacity:1;stop-color:#febbba" /><stop
         id="stop496"
         offset="1"
         style="stop-opacity:1;stop-color:#ff928e" /></linearGradient><clipPath
       id="clipPath508"
       clipPathUnits="userSpaceOnUse"><path
         id="path506"
         d="m 26820.8,7413.1 c 0,0 197.3,-284.4 207.2,-683.8 2.4,-94.1 -73.8,-171.8 -167.8,-175.1 l -1518.7,-52.9 c -71.1,-2.5 -103.1,87.9 -46.4,130.8 280.4,211.8 832,608.5 1235.4,770.9 z" /></clipPath><linearGradient
       id="linearGradient516"
       spreadMethod="pad"
       gradientTransform="matrix(-1765.34,-61.6473,61.6473,-1765.34,27019,6989.9)"
       gradientUnits="userSpaceOnUse"
       y2="0"
       x2="1"
       y1="0"
       x1="0"><stop
         id="stop512"
         offset="0"
         style="stop-opacity:1;stop-color:#09005d" /><stop
         id="stop514"
         offset="1"
         style="stop-opacity:1;stop-color:#1a0f91" /></linearGradient><clipPath
       id="clipPath526"
       clipPathUnits="userSpaceOnUse"><path
         id="path524"
         d="m 26858.6,7897.9 -38.9,-583.8 c -4.3,-65.3 -60.6,-116.5 -125.8,-111.1 -39.6,3.3 -87.3,13.5 -140,37.2 -50,22.5 -80.9,74.1 -78.8,128.9 l 26.4,704.4 z" /></clipPath><linearGradient
       id="linearGradient534"
       spreadMethod="pad"
       gradientTransform="matrix(-449.851,-61.8448,61.8448,-449.851,26889,7676.9)"
       gradientUnits="userSpaceOnUse"
       y2="0"
       x2="1"
       y1="0"
       x1="0"><stop
         id="stop530"
         offset="0"
         style="stop-opacity:1;stop-color:#febbba" /><stop
         id="stop532"
         offset="1"
         style="stop-opacity:1;stop-color:#ff928e" /></linearGradient><clipPath
       id="clipPath544"
       clipPathUnits="userSpaceOnUse"><path
         id="path542"
         d="m 29882,15598.6 c 0,0 367.3,-405.6 395.3,-846.8 27.9,-441.2 -1059,-7439 -1059,-7439 0,0 -415.5,-21.9 -611.3,129.2 0,0 265.1,4591.2 194.5,5666.9 0,0 -1526.9,-4614.6 -1898.6,-5437.6 0,0 -398.3,-3.5 -516.5,85.5 0,0 951.2,6097.8 1401.1,7150.2 z" /></clipPath><linearGradient
       id="linearGradient552"
       spreadMethod="pad"
       gradientTransform="matrix(-3076.32,346.732,-346.732,-3076.32,29913,11405.7)"
       gradientUnits="userSpaceOnUse"
       y2="0"
       x2="1"
       y1="0"
       x1="0"><stop
         id="stop548"
         offset="0"
         style="stop-opacity:1;stop-color:#4f52ff" /><stop
         id="stop550"
         offset="1"
         style="stop-opacity:1;stop-color:#4042e2" /></linearGradient><clipPath
       id="clipPath562"
       clipPathUnits="userSpaceOnUse"><path
         id="path560"
         d="m 28835,13240.7 c 23.9,0 46.5,14.5 55.5,38.1 l 239.9,623.3 380.4,187.6 c 29.5,14.6 41.6,50.2 27.1,79.7 -14.6,29.4 -50.2,41.5 -79.7,27 l -401.3,-197.9 c -13.4,-6.6 -23.8,-18 -29.2,-32 l -248.2,-644.9 c -11.8,-30.7 3.5,-65.1 34.2,-76.9 7,-2.7 14.2,-4 21.3,-4 z" /></clipPath><linearGradient
       id="linearGradient570"
       spreadMethod="pad"
       gradientTransform="matrix(-259.43,-6900.73,-6900.73,259.43,29556.3,24267.9)"
       gradientUnits="userSpaceOnUse"
       y2="0"
       x2="1"
       y1="0"
       x1="0"><stop
         id="stop566"
         offset="0"
         style="stop-opacity:1;stop-color:#4f52ff" /><stop
         id="stop568"
         offset="1"
         style="stop-opacity:1;stop-color:#4042e2" /></linearGradient><clipPath
       id="clipPath580"
       clipPathUnits="userSpaceOnUse"><path
         id="path578"
         d="m 25665.2,19423.5 c 677.8,583.1 1862.2,747.6 2542.4,793.3 298,20 567.5,-174.9 639.6,-464.7 209,-840.2 788.3,-3029.9 905.7,-3408.2 96.4,-310.4 199.3,-614.6 265,-804.9 39.2,-113.7 -20.2,-237.7 -133.8,-277.5 -591.2,-207 -1634.7,-399.1 -2057.3,-472.3 -92.9,-16.1 -174.9,61.6 -164.3,155.3 8.9,79.5 -3.9,160 -37.1,232.7 l -1258.2,2756.5 c -1086.4,-961.9 -1943.1,-964.4 -2566.3,-656.8 147.3,325.3 256.9,655.4 329.4,990.4 978.3,56.2 1534.9,1156.2 1534.9,1156.2 z" /></clipPath><linearGradient
       id="linearGradient588"
       spreadMethod="pad"
       gradientTransform="matrix(-3216.87,-6537.52,-6537.52,3216.87,34267.9,31449.4)"
       gradientUnits="userSpaceOnUse"
       y2="0"
       x2="1"
       y1="0"
       x1="0"><stop
         id="stop584"
         offset="0"
         style="stop-opacity:1;stop-color:#ff928e" /><stop
         id="stop586"
         offset="1"
         style="stop-opacity:1;stop-color:#fe7062" /></linearGradient><clipPath
       id="clipPath598"
       clipPathUnits="userSpaceOnUse"><path
         id="path596"
         d="m 22564.3,18625.8 199.2,211.4 c 517.3,-448.3 975.7,-592.4 1366.8,-569.9 -72.5,-335 -182.1,-665.1 -329.4,-990.4 -821,405.2 -1236.6,1348.9 -1236.6,1348.9 z" /></clipPath><linearGradient
       id="linearGradient606"
       spreadMethod="pad"
       gradientTransform="matrix(3115.28,-4916.19,4916.19,3115.28,21519.8,21308.3)"
       gradientUnits="userSpaceOnUse"
       y2="0"
       x2="1"
       y1="0"
       x1="0"><stop
         id="stop602"
         offset="0"
         style="stop-opacity:1;stop-color:#febbba" /><stop
         id="stop604"
         offset="1"
         style="stop-opacity:1;stop-color:#ff928e" /></linearGradient><clipPath
       id="clipPath616"
       clipPathUnits="userSpaceOnUse"><path
         id="path614"
         d="m 22827.8,18671.9 -957,-223.3 -983.3,324.8 c 112.1,104.4 864.2,79.9 864.2,79.9 0,0 731.3,259.1 935.2,298.6 169.3,32.9 192,-215.3 194.8,-300.3 0.6,-17.4 0.3,-27.9 0.3,-27.9 z" /></clipPath><linearGradient
       id="linearGradient624"
       spreadMethod="pad"
       gradientTransform="matrix(4438.89,-3764.62,3764.62,4438.89,20336.2,20225.8)"
       gradientUnits="userSpaceOnUse"
       y2="0"
       x2="1"
       y1="0"
       x1="0"><stop
         id="stop620"
         offset="0"
         style="stop-opacity:1;stop-color:#febbba" /><stop
         id="stop622"
         offset="1"
         style="stop-opacity:1;stop-color:#ff928e" /></linearGradient><clipPath
       id="clipPath634"
       clipPathUnits="userSpaceOnUse"><path
         id="path632"
         d="m 27425.7,21516.2 373.1,-1314.3 c 0,0 -637.7,-342.8 -1109.2,-250.2 l -129.6,1158.6 z" /></clipPath><linearGradient
       id="linearGradient642"
       spreadMethod="pad"
       gradientTransform="matrix(2782.46,-6843.31,6843.31,2782.46,25903.3,23572.9)"
       gradientUnits="userSpaceOnUse"
       y2="0"
       x2="1"
       y1="0"
       x1="0"><stop
         id="stop638"
         offset="0"
         style="stop-opacity:1;stop-color:#febbba" /><stop
         id="stop640"
         offset="1"
         style="stop-opacity:1;stop-color:#ff928e" /></linearGradient><clipPath
       id="clipPath652"
       clipPathUnits="userSpaceOnUse"><path
         id="path650"
         d="m 26652.5,22470.7 c -13.6,-15.4 -521.2,-1277.6 -521.2,-1277.6 l 726.9,-274.5 658.8,1124.9 c 0,0 -635.5,684.6 -864.5,427.2 z" /></clipPath><linearGradient
       id="linearGradient660"
       spreadMethod="pad"
       gradientTransform="matrix(-206.037,-2580.05,2580.05,-206.037,26875.4,22260.4)"
       gradientUnits="userSpaceOnUse"
       y2="0"
       x2="1"
       y1="0"
       x1="0"><stop
         id="stop656"
         offset="0"
         style="stop-opacity:1;stop-color:#febbba" /><stop
         id="stop658"
         offset="1"
         style="stop-opacity:1;stop-color:#ff928e" /></linearGradient><clipPath
       id="clipPath670"
       clipPathUnits="userSpaceOnUse"><path
         id="path668"
         d="m 27214.9,21895.3 -300.4,-619.3 c -3.9,-7.9 -8.6,-15.1 -14.5,-21.7 -35.8,-40.5 -169.4,-170.5 -294.1,-25.8 -113.1,131.4 -218.3,249.6 -324.3,280.8 -47.6,14 -97.9,-10.3 -116.4,-56.3 -46.1,-114.7 -145.2,-375.1 -196.7,-614.4 -10.5,-48.6 18.4,-96.8 65.9,-111.5 143,-44.2 447.3,-129.1 708,-140 35.4,-1.5 68.6,16.1 86.8,46.4 88.9,147.7 360.6,595.8 455.7,708.9 89.2,106.2 275.7,81.9 353.4,66.1 25.4,-5.1 51.6,0.3 72.9,15.1 75.4,52.4 223.2,191.2 60.3,395.6 -34.1,42.8 -26,104.7 17.8,137.5 87.2,65.3 186.3,187.3 73.4,365.2 -114.9,180.8 -294.1,174.3 -406.6,147.1 -45.5,-11.1 -91,12.8 -110.2,55.4 -11,24.3 -32.6,44.2 -73.9,45.3 -55.6,1.4 -96.7,52.6 -89.5,107.8 13.9,106 -9,244.4 -186.8,322.5 -315.4,138.6 -554.9,-154.2 -601.6,-387.6 -46.8,-233.4 303.7,-364.2 517.6,-372.2 162.6,-6.1 264.3,-179.4 303.8,-262.2 12.4,-26.2 12.1,-56.6 -0.6,-82.7 z" /></clipPath><linearGradient
       id="linearGradient678"
       spreadMethod="pad"
       gradientTransform="matrix(-1393.05,1239.06,-1239.06,-1393.05,27435.1,21096.1)"
       gradientUnits="userSpaceOnUse"
       y2="0"
       x2="1"
       y1="0"
       x1="0"><stop
         id="stop674"
         offset="0"
         style="stop-opacity:1;stop-color:#09005d" /><stop
         id="stop676"
         offset="1"
         style="stop-opacity:1;stop-color:#1a0f91" /></linearGradient><clipPath
       id="clipPath688"
       clipPathUnits="userSpaceOnUse"><path
         id="path686"
         d="m 27173.2,21118 c 0,0 98.9,403.2 271.4,404 172.5,0.9 322.3,-157.6 127.2,-368.2 -242.6,-261.9 -398.6,-35.8 -398.6,-35.8 z" /></clipPath><linearGradient
       id="linearGradient696"
       spreadMethod="pad"
       gradientTransform="matrix(-81.7936,1791.66,-1791.66,-81.7936,27496.8,19519.5)"
       gradientUnits="userSpaceOnUse"
       y2="0"
       x2="1"
       y1="0"
       x1="0"><stop
         id="stop692"
         offset="0"
         style="stop-opacity:1;stop-color:#febbba" /><stop
         id="stop694"
         offset="1"
         style="stop-opacity:1;stop-color:#ff928e" /></linearGradient></defs><g
     transform="matrix(1.3333333,0,0,-1.3333333,0,4946.6667)"
     id="g10"><g
       transform="scale(0.1)"
       id="g12"><g
         transform="scale(2.27607)"
         id="g14"><path
           id="path16"
           style="fill:#ffffff;fill-opacity:1;fill-rule:nonzero;stroke:none"
           d="M 16300,0 H 0 V 16300 H 16300 V 0" /></g><g
         id="g18"><g
           clip-path="url(#clipPath24)"
           id="g20"><g
             transform="scale(2.01877)"
             id="g26"><path
               id="path34"
               style="fill:url(#linearGradient32);fill-opacity:1;fill-rule:nonzero;stroke:none"
               d="m 8596.61,1931.02 c -288.99,0 -586.05,20.26 -890.99,64.85 -1379.01,201.65 -2450.35,833.08 -3129.37,1352.55 1544.7,-17.04 3327.07,-19.17 4130.28,-19.17 42.1,0 81.73,0 118.29,0 186.54,0.05 341.39,115.86 356.5,267.34 27.29,273.93 29.67,692 18.13,1153.62 h 5067.75 c -213.7,-261.34 -441.9,-507.39 -683.8,-735.25 C 13273,3722.56 11309.9,1931.02 8596.61,1931.02 m 6966.09,4974.41 74.8,5162.67 c 0,120.8 -137.3,352.7 -389.7,352.7 -9.4,0 -19,-0.3 -28.7,-1 l -2318,60 c -186.9,1217.3 -1173,2209.2 -2461.6,2355.3 -108,12.2 -215.3,18.2 -321.5,18.2 -1325.88,0 -2478.81,-932 -2744.36,-2230.5 l -2344.45,60.6 c -154.05,459.2 -234.15,997.9 -271.84,1517.9 1503.43,1215 3434.31,1763.2 5226.44,1763.2 615.91,0 1215.41,-64.7 1775.61,-189.3 781.7,-173.9 2354.6,-523.8 3434.8,-1886.6 1423.2,-1795.7 1390.5,-4592.85 368.5,-6983.17 M 2170.14,7510.01 c -122.96,913.62 -64.84,1869.15 157.04,2783.49 84.43,-289.5 189.31,-561.95 307.66,-817.1 l 41.22,-1743.53 c -27.18,0.1 -53.32,0.19 -78.61,0.24 -0.61,0 -1.18,0 -1.79,0 -188.76,0 -351.85,-90.74 -425.52,-223.1" /></g></g></g><g
         transform="scale(2.00037)"
         id="g36"><path
           id="path38"
           style="fill:#bdd0fb;fill-opacity:1;fill-rule:nonzero;stroke:none"
           d="m 4682.81,16239.9 c 37.56,60.1 130.95,29.9 125.81,-40.9 -49.7,-683.5 -123.87,-2479.8 348.49,-3617.6 769.16,-1852.6 799.3,-4421.24 -438.17,-5299.83 0,0 -4128.179,2408.06 -36.13,8958.33" /></g><g
         transform="scale(1.87951)"
         id="g40"><path
           id="path42"
           style="fill:#d9e4fd;fill-opacity:1;fill-rule:nonzero;stroke:none"
           d="m 4515.99,13646.1 -51.73,1.4 c 13.31,242.9 30.66,485.4 52.85,727.6 29.07,321.2 63.2,642 105.58,961.7 21.41,159.8 44.27,319.5 69.13,478.8 12.7,79.6 25.48,159.2 39.35,238.6 l 21.6,119.1 11.48,59.4 c 4.28,20 7.6,39.1 13.39,60.5 1.09,4.1 4.78,6.8 8.8,6.8 0.79,0 1.59,-0.1 2.4,-0.3 4.76,-1.3 7.62,-6.1 6.5,-10.9 l -0.46,-2 c -4.12,-17.6 -7.58,-38.2 -11.24,-57.7 l -10.11,-59.5 -18.93,-119.2 c -12.23,-79.6 -23.89,-159.2 -35.19,-238.9 -22.19,-159.5 -42.39,-319.2 -61.13,-479.1 -37.85,-319.8 -69.6,-640.3 -95.1,-961.2 -18.74,-241.5 -34.71,-483.2 -47.19,-725.1" /></g><g
         transform="scale(1.79225)"
         id="g44"><path
           id="path46"
           style="fill:#bdd0fb;fill-opacity:1;fill-rule:nonzero;stroke:none"
           d="m 5261.27,7828.89 c 0,0 386.56,1026.15 -225.12,2466.81 -567.56,1336.7 -2018.05,4484.2 -2065.88,5924.3 -2.12,63.8 -89.04,80 -113.4,21 -261.21,-632.9 -790.86,-2269.3 -327.52,-4293 597.5,-2609.55 2731.92,-4119.11 2731.92,-4119.11" /></g><g
         transform="scale(1.64212)"
         id="g48"><path
           id="path50"
           style="fill:#dbe5fd;fill-opacity:1;fill-rule:nonzero;stroke:none"
           d="m 3175.42,14346.8 c -65.25,318.2 -102.73,642 -114.4,966.3 -2.89,41.4 -1.49,82.8 -1.78,124.2 l 0.25,124.2 5.43,124.1 2.74,61.9 c 1.32,20.7 3.4,41.3 5.06,61.9 12.31,164.9 33.96,329.6 75.82,489.7 0.15,0.5 0.68,0.9 1.26,0.9 0.11,0 0.23,0 0.34,0 0.68,-0.2 1.08,-0.9 0.92,-1.6 -18.07,-80.4 -27.13,-162.6 -36.91,-244.2 l -10.83,-123 c -3.26,-41 -4.25,-82.1 -6.49,-123.2 -0.87,-20.6 -2.15,-41.1 -2.69,-61.6 l -0.39,-61.8 -0.73,-123.3 4.44,-123.2 c 2.06,-41 1.52,-82.1 5.37,-123.1 11.67,-194.3 32.68,-387.9 63.41,-580 l 9.18,-388.2" /></g><g
         id="g52"><g
           clip-path="url(#clipPath58)"
           id="g54"><g
             transform="scale(1.93672)"
             id="g60"><path
               id="path68"
               style="fill:url(#linearGradient66);fill-opacity:1;fill-rule:nonzero;stroke:none"
               d="M 15955.2,4951.47 H 14871.7 9589.21 c -1.96,79.16 -4.33,159.39 -7.07,240.56 h 6062.96 c 123.7,0 224.9,101.2 224.9,224.97 l 101,6709 c -11.5,392.6 -346.5,540.6 -562.3,540.6 -6.1,0 -12.1,-0.1 -18.1,-0.3 l -1913.3,51.3 c -5,98.2 -14.9,195.1 -29.6,290.9 l 2416.2,-62.5 c 10.1,0.7 20.1,1 29.9,1 263.1,0 406.2,-241.6 406.2,-367.6 L 16222.1,7198 16193,5189.04 c 0,-130.64 -107,-237.57 -237.8,-237.57 M 3025.83,8059.51 c -84.73,0.42 -163.74,0.73 -236.39,0.98 l -42.97,1817.41 -54.07,2286.6 -7.78,329.2 -3.89,164.6 c -3.88,163.9 59.71,322.3 175.92,438.1 81.71,81.5 184.41,136.9 295.25,161.1 26.45,5.8 53.37,9.8 80.58,12 15.79,1.3 31.68,1.9 47.63,1.9 5.18,0 10.36,-0.1 15.55,-0.2 l 1036.74,-26.8 50.21,-1.3 859.66,-22.3 2443.77,-63.2 c -17.24,-84.4 -30.92,-170.4 -40.84,-257.6 -0.98,-8.7 -1.91,-17.2 -2.79,-25.8 l -4297.68,115.3 c -3.76,0.1 -7.53,0.1 -11.29,0.1 -111.26,0 -218.18,-44.1 -297.14,-122.9 -81.63,-81.5 -126.22,-193 -123.33,-308.3 l 112.86,-4498.89" /></g></g></g><g
         transform="scale(1.89763)"
         id="g70"><path
           id="path72"
           style="fill:#7d97f4;fill-opacity:1;fill-rule:nonzero;stroke:none"
           d="m 3155.81,5528.58 c 0,-126.32 103.33,-229.61 229.63,-229.61 H 15967.3 c 126.3,0 229.6,103.29 229.6,229.61 l 103.1,6847.12 c -12.1,412.1 -373.4,560.2 -592.4,551.5 L 3413.62,13257 c -117.66,3.2 -231.48,-42.2 -314.78,-125.3 -83.31,-83.2 -128.82,-196.9 -125.87,-314.6 l 182.84,-7288.52" /></g><g
         transform="scale(1.8744)"
         id="g74"><path
           id="path76"
           style="fill:#bdd0fb;fill-opacity:1;fill-rule:nonzero;stroke:none"
           d="m 16260,8892.85 h -0.5 c -17.4,0.27 -31.3,14.62 -31,31.96 l 8.2,562.2 c 0.3,17.39 14.6,30.04 32,31.05 17.4,-0.27 31.3,-14.62 31,-32.01 l -8.2,-562.15 c -0.3,-17.23 -14.3,-31.05 -31.5,-31.05" /></g><g
         transform="scale(1.87939)"
         id="g78"><path
           id="path80"
           style="fill:#bdd0fb;fill-opacity:1;fill-rule:nonzero;stroke:none"
           d="m 16237.1,10243.2 h -0.5 c -17.4,0.3 -31.2,14.6 -30.9,32 l 31.5,2147.4 c -0.6,128.3 -39.6,230.8 -115.9,303.9 -142.1,136.2 -367.8,129.2 -377.4,128.9 l -3967.3,106.3 c -17.3,0.5 -31,14.9 -30.5,32.3 0.4,17.1 14.4,30.6 31.4,30.6 h 0.8 l 3965.1,-106.4 c 24.6,1.1 262.9,5.5 421.4,-146.3 89,-85.4 134.6,-203 135.2,-349.6 l -31.6,-2148.1 c -0.2,-17.2 -14.2,-31 -31.3,-31" /></g><g
         id="g82"><g
           clip-path="url(#clipPath88)"
           id="g84"><g
             transform="scale(2.01334)"
             id="g90"><path
               id="path98"
               style="fill:url(#linearGradient96);fill-opacity:1;fill-rule:nonzero;stroke:none"
               d="M 2173.51,4172.92 H 16267 c 18.1,0 33,14.85 33,32.98 v 558.63 c 0,18.13 -14.9,32.98 -33,32.98 H 2173.51 c -18.17,0 -33.02,-14.85 -33.02,-32.98 V 4205.9 c 0,-18.13 14.85,-32.98 33.02,-32.98" /></g></g></g><g
         id="g100"><g
           clip-path="url(#clipPath106)"
           id="g102"><g
             transform="scale(1.14018)"
             id="g108"><path
               id="path116"
               style="fill:url(#linearGradient114);fill-opacity:1;fill-rule:nonzero;stroke:none"
               d="m 15415.5,5894.66 c -1422.1,0 -4578,3.77 -7312.94,33.94 -1597.67,17.63 -3051.71,44.21 -3932.24,84.38 -261.35,11.84 -467.8,186.9 -472.13,400.19 -21.3,1054.84 -51.57,4920.83 71.53,6643.03 6.14,85.7 31.54,166.9 72.66,240.8 130.44,234.3 419.2,395 753.41,395 1.08,0 2.09,0 3.17,0 44.77,-0.1 91.06,-0.3 139.19,-0.4 123.4,-0.5 257.61,-1 401.53,-1.7 2458.34,-11.4 7747.32,-62.3 10269.12,-286.4 326.7,-29 583.1,-243.5 610.5,-510.4 73.2,-713.7 203.8,-2480.4 256.9,-4073.91 4.7,-137.87 8.7,-274.16 12,-408.62 20.5,-817.32 16.3,-1557.55 -32.1,-2042.56 -26.7,-268.2 -300.9,-473.26 -631.2,-473.35 -64.7,0 -134.9,0 -209.4,0 m 472.2,4054.96 c -64,0 -117.9,-43.24 -115.1,-98.05 16.1,-313.9 47.4,-1016.07 58.4,-1265.32 2.2,-50.52 52.6,-90.87 114.5,-92.09 1,0 1.9,-0.09 2.9,-0.09 61.2,0 112.2,38.59 115.3,88.67 27,423.18 -26.3,1063.69 -45.8,1276.02 -3.9,42.18 -41.5,77.36 -92.3,86.39 l -12.6,2.19 c -8.6,1.49 -17.1,2.28 -25.3,2.28" /></g></g></g><g
         transform="scale(1.09495)"
         id="g118"><path
           id="path120"
           style="fill:#91b3fa;fill-opacity:1;fill-rule:nonzero;stroke:none"
           d="m 15635,6640.76 c -1698.3,-25.3 -7347.92,-99.1 -9434.49,1.64 -304.99,14.7 -547.83,215.72 -560.71,464.49 -53.06,1024.25 -145.45,4517.21 31.85,6014.51 31.93,269.6 304.22,476.3 636.56,484.2 1732.94,41.6 6994.49,155.1 9057.69,57.2 329.1,-15.5 593.9,-228.9 618.1,-496.9 99.8,-1109 316,-4822.97 205.2,-6096.08 -20.8,-239.01 -260.2,-424.68 -554.2,-429.06" /></g><g
         id="g122"><g
           clip-path="url(#clipPath128)"
           id="g124"><g
             transform="scale(1.12423)"
             id="g130"><path
               id="path138"
               style="fill:url(#linearGradient136);fill-opacity:1;fill-rule:nonzero;stroke:none"
               d="m 16174.7,8614.58 c -1,0 -2,0.09 -3,0.09 -62.8,1.25 -113.8,42.17 -116,93.4 -11.3,252.8 -43,964.92 -59.3,1283.28 -2.8,55.55 51.8,99.45 116.7,99.45 8.4,0 17,-0.8 25.6,-2.3 l 12.8,-2.2 c 51.5,-9.2 89.7,-44.9 93.6,-87.66 19.9,-215.35 73.9,-864.95 46.5,-1294.13 -3.2,-50.79 -54.8,-89.93 -116.9,-89.93" /></g></g></g><g
         id="g140"><g
           clip-path="url(#clipPath146)"
           id="g142"><g
             transform="scale(1.4035)"
             id="g148"><path
               id="path156"
               style="fill:url(#linearGradient154);fill-opacity:1;fill-rule:nonzero;stroke:none"
               d="m 11601.5,11349 c -25.1,-1186.7 -106.7,-5279.8 -67.8,-6730.25 4.1,-153.69 109.4,-277.02 240.8,-282.01 649.6,-24.94 3031.2,-87.92 4093.9,-35.77 221.3,10.83 397.3,220.59 401.9,479.66 22.1,1245.53 70.7,4748.71 -45,6353.47 -13.9,192.3 -142.9,345.4 -307.1,364.7 -707.4,82.8 -3099.3,285.1 -4017.3,215.4 -165.6,-12.5 -295.3,-171.2 -299.4,-365.2" /></g></g></g><g
         transform="scale(1.38426)"
         id="g158"><path
           id="path160"
           style="fill:#bdd0fb;fill-opacity:1;fill-rule:nonzero;stroke:none"
           d="m 12056.6,11137.5 c -35.5,-971 -147.3,-4201.61 -111.8,-5396.25 5.2,-174.61 122.8,-315.84 271.9,-326.02 613.9,-42.05 2708.2,-134.66 3608.5,-50.36 162.2,15.25 289.4,168.61 298.2,358.61 45.6,990.7 176.6,3998.87 142.6,5180.12 -5.4,188.4 -130.2,342.3 -290.7,359.1 -664.1,69.8 -2889.6,235.8 -3654.7,186.9 -143.7,-9.1 -257.9,-144 -264,-312.1" /></g><path
         id="path162"
         style="fill:#ffffff;fill-opacity:1;fill-rule:nonzero;stroke:none"
         d="m 13274.4,11241.3 c 0,-953.5 -773,-1726.5 -1726.6,-1726.5 -953.5,0 -1726.48,773 -1726.48,1726.5 0,953.6 772.98,1726.6 1726.48,1726.6 953.6,0 1726.6,-773 1726.6,-1726.6" /><g
         id="g164"><g
           clip-path="url(#clipPath170)"
           id="g166"><path
             id="path178"
             style="fill:url(#linearGradient176);fill-opacity:1;fill-rule:nonzero;stroke:none"
             d="m 11406.1,9916.2 c -91.5,-6 -176.7,36.6 -224.1,112.7 l -796.1,1278.4 c -74.6,119.8 -34.4,283.9 89.7,366.5 124.1,82.5 285.1,52.4 359.6,-67.4 l 552.1,-887.4 728.5,1483.7 c 65.4,133.2 222.4,194.2 350.7,136.5 128.3,-57.7 179.3,-212.4 114,-345.5 l -941.4,-1918.9 c -43.1,-87.8 -128.8,-148.3 -223.8,-157.8 -3,-0.3 -6.1,-0.6 -9.2,-0.8" /></g></g><g
         transform="scale(1.34545)"
         id="g180"><path
           id="path182"
           style="fill:#ffffff;fill-opacity:1;fill-rule:nonzero;stroke:none"
           d="m 7700.3,16296 75.66,-14.9 h 0.15 c 21.71,-4.3 35.83,-25.4 31.59,-47.1 -4.31,-21.7 -25.34,-35.8 -47.05,-31.5 l -1.48,0.3 -75.37,17.8 c -20.73,4.9 -33.52,25.7 -28.61,46.5 4.75,20.2 24.67,32.9 44.89,29 l 0.22,-0.1" /></g><g
         transform="scale(1.34149)"
         id="g184"><path
           id="path186"
           style="fill:#ffffff;fill-opacity:1;fill-rule:nonzero;stroke:none"
           d="m 7975.83,16295.8 76.03,-13.6 h 0.23 c 24.52,-4.4 40.85,-27.9 36.45,-52.4 -4.4,-24.5 -27.81,-40.9 -52.33,-36.4 l -1.72,0.3 -75.88,16.6 c -23.56,5.2 -38.47,28.4 -33.32,52 5.07,22.9 27.28,37.7 50.24,33.6 l 0.3,-0.1" /></g><g
         transform="scale(1.3379)"
         id="g188"><path
           id="path190"
           style="fill:#ffffff;fill-opacity:1;fill-rule:nonzero;stroke:none"
           d="m 8251.32,16296 76.31,-12.1 h 0.37 c 27.36,-4.4 46.05,-30 41.79,-57.4 -4.34,-27.4 -30.05,-46.1 -57.41,-41.8 l -1.87,0.3 -76.53,15.1 c -26.39,5.2 -43.58,30.8 -38.35,57.2 5.08,25.7 29.52,42.7 55.24,38.7 h 0.45" /></g><g
         transform="scale(1.33477)"
         id="g192"><path
           id="path194"
           style="fill:#ffffff;fill-opacity:1;fill-rule:nonzero;stroke:none"
           d="m 8525.83,16296.3 76.65,-10.1 0.45,-0.1 c 30.26,-3.9 51.62,-31.7 47.64,-61.9 -3.97,-30.3 -31.69,-51.6 -61.95,-47.7 l -2.1,0.4 -77.17,13.1 c -29.29,5 -48.92,32.8 -43.98,62.1 4.87,28.5 31.39,47.9 59.86,44.2 h 0.6" /></g><g
         transform="scale(1.3322)"
         id="g196"><path
           id="path198"
           style="fill:#ffffff;fill-opacity:1;fill-rule:nonzero;stroke:none"
           d="m 8798.48,16296.9 76.94,-7.6 0.6,-0.1 c 33.18,-3.3 57.35,-32.9 54.05,-66 -3.23,-33.2 -32.81,-57.4 -65.99,-54.1 -0.67,0.1 -1.65,0.1 -2.32,0.3 l -77.77,10.7 c -32.13,4.5 -54.65,34.2 -50.22,66.4 4.36,31.4 32.73,53.5 63.96,50.5 l 0.75,-0.1" /></g><g
         transform="scale(1.33029)"
         id="g200"><path
           id="path202"
           style="fill:#ffffff;fill-opacity:1;fill-rule:nonzero;stroke:none"
           d="m 9067.92,16297.8 76.97,-4.9 h 0.76 c 36,-2.3 63.36,-33.3 61.11,-69.3 -2.26,-36.1 -33.38,-63.5 -69.38,-61.2 -0.76,0 -1.81,0.1 -2.56,0.2 l -78.18,8 c -35.1,3.5 -60.66,34.9 -57.13,70 3.53,34.2 33.45,59.4 67.51,57.3 l 0.9,-0.1" /></g><g
         transform="scale(1.32915)"
         id="g204"><path
           id="path206"
           style="fill:#ffffff;fill-opacity:1;fill-rule:nonzero;stroke:none"
           d="m 9332.98,16299.1 77.11,-1.8 h 0.91 c 38.82,-1 69.66,-33.3 68.69,-72.2 -0.91,-38.9 -33.18,-69.6 -72.08,-68.7 -0.83,0 -1.88,0 -2.71,0.1 l -78.77,4.9 c -37.99,2.4 -66.89,35.1 -64.48,73.1 2.26,37.1 33.48,65.5 70.27,64.7 l 1.06,-0.1" /></g><g
         transform="scale(1.32904)"
         id="g208"><path
           id="path210"
           style="fill:#ffffff;fill-opacity:1;fill-rule:nonzero;stroke:none"
           d="m 9590.96,16298 77.13,1.3 h 0.9 c 41.61,0.7 75.99,-32.5 76.67,-74.2 0.75,-41.6 -32.5,-76 -74.11,-76.7 -0.91,0 -2.03,0 -2.94,0 l -78.93,1.7 c -40.78,0.8 -73.21,34.6 -72.3,75.5 0.82,39.8 33.03,71.6 72.45,72.3 l 1.13,0.1" /></g><g
         transform="scale(1.3301)"
         id="g212"><path
           id="path214"
           style="fill:#ffffff;fill-opacity:1;fill-rule:nonzero;stroke:none"
           d="m 9840.1,16293 76.91,4.4 h 0.9 c 44.29,2.6 82.29,-31.2 84.79,-75.6 2.5,-44.3 -31.33,-82.2 -75.61,-84.8 -0.98,-0.1 -2.18,-0.1 -3.08,-0.1 l -78.95,-1.5 c -43.53,-0.8 -79.47,33.9 -80.29,77.4 -0.75,42.5 32.17,77.7 74.2,80.1 l 1.13,0.1" /></g><g
         transform="scale(1.33196)"
         id="g216"><path
           id="path218"
           style="fill:#ffffff;fill-opacity:1;fill-rule:nonzero;stroke:none"
           d="m 10082.2,16288.3 76.7,7.2 0.8,0.1 c 46.9,4.4 88.5,-30 92.9,-76.8 4.3,-47 -30,-88.5 -76.9,-92.9 -1,-0.1 -2.2,-0.2 -3.2,-0.2 l -78.7,-4.4 c -46.1,-2.6 -85.7,32.8 -88.2,78.9 -2.5,45.1 31.1,83.7 75.6,88 l 1,0.1" /></g><g
         transform="scale(1.33452)"
         id="g220"><path
           id="path222"
           style="fill:#ffffff;fill-opacity:1;fill-rule:nonzero;stroke:none"
           d="m 10317.7,16284 76.4,9.6 0.7,0.2 c 49.3,6.2 94.4,-28.7 100.6,-78 6.3,-49.3 -28.7,-94.4 -78,-100.7 -1,-0.1 -2.4,-0.3 -3.4,-0.3 l -78.2,-6.9 c -48.7,-4.3 -91.7,31.7 -95.9,80.4 -4.2,47.6 29.9,89.6 76.8,95.6 l 1,0.1" /></g><g
         transform="scale(1.33767)"
         id="g224"><path
           id="path226"
           style="fill:#ffffff;fill-opacity:1;fill-rule:nonzero;stroke:none"
           d="m 10547.1,16280.3 76,11.6 0.6,0.2 c 51.8,7.9 100.1,-27.6 108.1,-79.3 8,-51.7 -27.5,-100.1 -79.2,-108.1 -1.1,-0.1 -2.6,-0.3 -3.6,-0.4 l -77.7,-9 c -51.3,-5.9 -97.5,30.9 -103.4,82 -5.7,50 29.1,95.2 78.3,102.8 l 0.9,0.2" /></g><g
         transform="scale(1.3413)"
         id="g228"><path
           id="path230"
           style="fill:#ffffff;fill-opacity:1;fill-rule:nonzero;stroke:none"
           d="m 10771.1,16277.1 75.6,13.4 h 0.5 c 54.1,9.5 105.7,-26.6 115.1,-80.7 9.6,-54.1 -26.6,-105.7 -80.6,-115.2 -1.1,-0.1 -2.7,-0.4 -3.8,-0.6 l -77.1,-10.5 c -53.6,-7.3 -103,30.2 -110.4,83.8 -7.1,52.3 28.4,100.6 80,109.7 l 0.7,0.1" /></g><g
         transform="scale(1.3453)"
         id="g232"><path
           id="path234"
           style="fill:#ffffff;fill-opacity:1;fill-rule:nonzero;stroke:none"
           d="m 10990.3,16274.5 75.3,14.5 0.4,0.1 c 56.5,10.9 111.1,-26 121.9,-82.5 10.9,-56.5 -26,-111 -82.4,-121.9 -1.2,-0.2 -2.8,-0.5 -4,-0.6 l -76.7,-11.9 c -55.9,-8.5 -108.4,29.9 -116.9,85.9 -8.4,54.6 27.9,105.8 81.8,116.3 l 0.6,0.1" /></g><g
         transform="scale(1.49798)"
         id="g236"><path
           id="path238"
           style="fill:#ffffff;fill-opacity:1;fill-rule:nonzero;stroke:none"
           d="m 6867.91,15016.9 c 0,-708.7 -574.5,-1283.2 -1283.18,-1283.2 -708.68,0 -1283.18,574.5 -1283.18,1283.2 0,708.6 574.5,1283.1 1283.18,1283.1 708.68,0 1283.18,-574.5 1283.18,-1283.1" /></g><g
         id="g240"><g
           clip-path="url(#clipPath246)"
           id="g242"><g
             transform="scale(1.45656)"
             id="g248"><path
               id="path256"
               style="fill:url(#linearGradient254);fill-opacity:1;fill-rule:nonzero;stroke:none"
               d="m 5635.22,14430.9 c -69.99,-4.5 -135.12,28.1 -171.35,86.3 l -608.5,977.1 c -57.03,91.6 -26.31,217 68.59,280.1 94.82,63.1 217.88,40 274.83,-51.5 l 422.01,-678.3 556.83,1134.1 c 49.97,101.7 170.03,148.4 268.09,104.3 98.05,-44.1 137.06,-162.3 87.15,-264.1 L 5813.3,14552.3 c -32.96,-67.3 -98.46,-113.5 -171.05,-120.7 -2.35,-0.2 -4.69,-0.4 -7.03,-0.7" /></g></g></g><g
         transform="scale(1.19437)"
         id="g258"><path
           id="path260"
           style="fill:#ffffff;fill-opacity:1;fill-rule:nonzero;stroke:none"
           d="m 16282,15242.5 -28.5,-79.3 -0.8,-2.4 c -17.5,-48.6 -71,-73.8 -119.6,-56.4 -47.9,17.2 -73,69.5 -57.1,117.5 l 28.1,84.6 c 16.5,49.6 70,76.4 119.5,60 49.6,-16.5 76.4,-70 60,-119.6 l -0.6,-1.7 -1,-2.7" /></g><g
         transform="scale(1.18759)"
         id="g262"><path
           id="path264"
           style="fill:#ffffff;fill-opacity:1;fill-rule:nonzero;stroke:none"
           d="m 16286.8,15059.9 -22.6,-82.4 -0.5,-1.8 c -13.1,-48.2 -62.9,-76.6 -111.1,-63.5 -47.4,13 -75.7,61.6 -64,109.1 l 21.4,86.6 c 12.2,49.1 61.8,79.1 110.9,66.9 49.1,-12.1 79.1,-61.8 66.9,-110.9 l -0.4,-1.7 -0.6,-2.3" /></g><g
         transform="scale(1.18229)"
         id="g266"><path
           id="path268"
           style="fill:#ffffff;fill-opacity:1;fill-rule:nonzero;stroke:none"
           d="m 16290.5,14849.3 -17.5,-84.5 -0.2,-1.5 c -9.8,-47.3 -56.1,-77.6 -103.3,-67.8 -46.6,9.6 -76.7,54.7 -68.3,101.2 l 16,87.8 c 8.7,48.1 54.8,80 102.9,71.2 48,-8.8 79.9,-54.8 71.2,-102.9 l -0.3,-1.7 -0.5,-1.8" /></g><g
         transform="scale(1.17822)"
         id="g270"><path
           id="path272"
           style="fill:#ffffff;fill-opacity:1;fill-rule:nonzero;stroke:none"
           d="m 16293.6,14616.7 -13.3,-85.9 -0.2,-1.2 c -7,-45.9 -50,-77.4 -95.9,-70.3 -45.2,6.9 -76.4,48.8 -70.7,93.9 l 11.5,88.5 c 6,46.7 48.7,79.6 95.4,73.6 46.7,-6 79.6,-48.7 73.6,-95.4 l -0.2,-1.7 -0.2,-1.5" /></g><g
         transform="scale(1.1752)"
         id="g274"><path
           id="path276"
           style="fill:#ffffff;fill-opacity:1;fill-rule:nonzero;stroke:none"
           d="m 16295.9,14366.5 -9.4,-86.8 -0.2,-1.1 c -4.8,-44.3 -44.7,-76.4 -89.1,-71.5 -43.6,4.7 -75.4,43.5 -71.7,87.1 l 7.5,89 c 3.8,45 43.4,78.5 88.5,74.6 45.1,-3.7 78.5,-43.4 74.7,-88.5 l -0.2,-1.5 -0.1,-1.3" /></g><g
         transform="scale(1.17307)"
         id="g278"><path
           id="path280"
           style="fill:#ffffff;fill-opacity:1;fill-rule:nonzero;stroke:none"
           d="m 16297.9,14102.1 -6.2,-87.4 v -0.8 c -3,-42.7 -40,-74.9 -82.7,-71.9 -41.9,3 -73.8,39 -71.8,80.8 l 4.1,89.3 c 1.9,43.2 38.7,76.7 82,74.7 43.3,-1.9 76.7,-38.7 74.7,-82 v -1.5 l -0.1,-1.2" /></g><g
         transform="scale(1.17174)"
         id="g282"><path
           id="path284"
           style="fill:#ffffff;fill-opacity:1;fill-rule:nonzero;stroke:none"
           d="m 16299.4,13826 -3.2,-87.7 v -0.8 c -1.4,-40.8 -35.7,-72.7 -76.5,-71.3 -40.1,1.5 -71.7,34.9 -71.3,74.8 l 1.1,89.3 c 0.5,41.4 34.4,74.6 75.8,74.1 41.5,-0.5 74.7,-34.5 74.2,-75.8 v -1.5 l -0.1,-1.1" /></g><g
         transform="scale(1.17118)"
         id="g286"><path
           id="path288"
           style="fill:#ffffff;fill-opacity:1;fill-rule:nonzero;stroke:none"
           d="m 16300,13539.6 -0.4,-87.9 v -0.7 c -0.2,-38.8 -31.9,-70.3 -70.7,-70 -38.4,0.2 -69.4,30.9 -70.1,69 l -1.7,89.2 c -0.9,39.5 30.5,72.1 70,72.8 39.4,0.9 72,-30.5 72.8,-70 l 0.1,-1.3 v -1.1" /></g><g
         transform="scale(1.17153)"
         id="g290"><path
           id="path292"
           style="fill:#ffffff;fill-opacity:1;fill-rule:nonzero;stroke:none"
           d="m 16296.9,13242.5 2.2,-88.1 v -0.5 c 0.9,-36.9 -28.2,-67.6 -65.1,-68.5 -36.3,-0.9 -66.6,27.5 -68.4,63.6 l -4.4,89 c -1.8,37.5 27.1,69.3 64.5,71.2 37.4,1.8 69.3,-27.1 71.1,-64.5 l 0.1,-1.3 v -0.9" /></g><g
         transform="scale(1.17251)"
         id="g294"><path
           id="path296"
           style="fill:#ffffff;fill-opacity:1;fill-rule:nonzero;stroke:none"
           d="m 16293.4,12938.3 4.7,-87.8 v -0.5 c 1.9,-34.9 -24.9,-64.7 -59.8,-66.6 -34.2,-1.7 -63.7,24.3 -66.3,58.3 l -6.8,88.8 c -2.8,35.4 23.7,66.3 59.1,69.1 35.4,2.7 66.3,-23.8 69.1,-59.2 v -1.2 -0.9" /></g><g
         transform="scale(1.17406)"
         id="g298"><path
           id="path300"
           style="fill:#ffffff;fill-opacity:1;fill-rule:nonzero;stroke:none"
           d="m 16290.3,12628.9 7.1,-87.7 v -0.5 c 2.6,-32.8 -21.8,-61.5 -54.6,-64.1 -32.3,-2.7 -60.6,21.1 -64,53.1 l -9.3,88.4 c -3.5,33.3 20.7,63.2 54,66.7 33.3,3.4 63.1,-20.7 66.6,-54.1 l 0.1,-1.1 0.1,-0.7" /></g><g
         transform="scale(1.17618)"
         id="g302"><path
           id="path304"
           style="fill:#ffffff;fill-opacity:1;fill-rule:nonzero;stroke:none"
           d="m 16287.2,12314.6 9.5,-87.3 v -0.4 c 3.3,-30.7 -18.9,-58.3 -49.6,-61.7 -30.2,-3.3 -57.4,18.3 -61.5,48.3 l -11.6,88 c -4.2,31.2 17.8,59.8 49,63.9 31.2,4.2 59.8,-17.8 64,-49 l 0.1,-1.1 0.1,-0.7" /></g><g
         transform="scale(1.17889)"
         id="g306"><path
           id="path308"
           style="fill:#ffffff;fill-opacity:1;fill-rule:nonzero;stroke:none"
           d="m 16284.1,11996.3 11.9,-86.8 0.1,-0.4 c 3.9,-28.6 -16.1,-55 -44.7,-59 -28.1,-3.8 -54.1,15.6 -58.6,43.5 l -14.2,87.3 c -4.7,29.1 15,56.5 44,61.2 29.1,4.7 56.5,-15 61.2,-44.1 l 0.2,-1 0.1,-0.7" /></g><g
         transform="scale(1.18223)"
         id="g310"><path
           id="path312"
           style="fill:#ffffff;fill-opacity:1;fill-rule:nonzero;stroke:none"
           d="m 16280.9,11674.4 14.5,-86.1 0.1,-0.5 c 4.5,-26.5 -13.3,-51.5 -39.8,-56 -26,-4.4 -50.8,12.9 -55.8,38.6 l -16.8,86.7 c -5.2,27 12.4,53 39.2,58.2 26.9,5.2 53,-12.4 58.2,-39.3 l 0.2,-0.9 0.2,-0.7" /></g><g
         transform="scale(1.18625)"
         id="g314"><path
           id="path316"
           style="fill:#ffffff;fill-opacity:1;fill-rule:nonzero;stroke:none"
           d="m 16277.4,11349.3 17.5,-85.2 v -0.5 c 5.1,-24.2 -10.6,-48 -34.9,-53 -23.8,-4.9 -47.2,10.2 -52.7,33.9 l -19.8,85.7 c -5.7,24.8 9.7,49.4 34.4,55.2 24.8,5.6 49.4,-9.8 55.2,-34.5 l 0.1,-0.9 0.2,-0.7" /></g><g
         transform="scale(1.29681)"
         id="g318"><path
           id="path320"
           style="fill:#ffffff;fill-opacity:1;fill-rule:nonzero;stroke:none"
           d="M 16300,8921.36 C 16300,8252.33 15757.6,7710 15088.6,7710 c -669.1,0 -1211.5,542.33 -1211.5,1211.36 0,669.1 542.4,1211.44 1211.5,1211.44 669,0 1211.4,-542.34 1211.4,-1211.44" /></g><g
         id="g322"><g
           clip-path="url(#clipPath328)"
           id="g324"><g
             transform="scale(1.25969)"
             id="g330"><path
               id="path338"
               style="fill:url(#linearGradient336);fill-opacity:1;fill-rule:nonzero;stroke:none"
               d="m 15430.8,8227.08 c -66.1,-4.36 -127.7,26.44 -161.9,81.45 l -575.1,923.4 c -53.9,86.53 -24.8,205.05 64.9,264.67 89.5,59.62 205.8,37.86 259.6,-48.67 l 398.9,-640.94 526.2,1071.69 c 47.2,96.21 160.7,140.32 253.3,98.59 92.7,-41.68 129.6,-153.37 82.4,-249.51 l -680,-1386.12 c -31.2,-63.43 -93,-107.1 -161.7,-114 -2.1,-0.24 -4.4,-0.4 -6.6,-0.56" /></g></g></g><g
         id="g340"><g
           clip-path="url(#clipPath346)"
           id="g342"><g
             transform="scale(1.74583)"
             id="g348"><path
               id="path356"
               style="fill:url(#linearGradient354);fill-opacity:1;fill-rule:nonzero;stroke:none"
               d="M 15073.4,11521.7 C 16066,11492.5 16300,11260 16300,11260 l -556.7,-692.8 c 0,0 -964.1,128.1 -1596.3,739.8 145.3,124.9 252.7,269 324,382.5 170.1,-94.3 370.8,-160.9 602.4,-167.8" /></g></g></g><g
         id="g358"><g
           clip-path="url(#clipPath364)"
           id="g360"><g
             transform="scale(1.54993)"
             id="g366"><path
               id="path374"
               style="fill:url(#linearGradient372);fill-opacity:1;fill-rule:nonzero;stroke:none"
               d="m 15935.1,12736.1 c -93.9,90.8 -181.3,191.1 -258.8,301.7 114.9,106 223.2,219.4 323.9,339.5 88.2,-75.9 188.2,-148.4 299.8,-210.3 -80.3,-127.9 -201.2,-290.2 -364.9,-430.9" /></g></g></g><g
         transform="scale(1.85898)"
         id="g376"><path
           id="path378"
           style="fill:#ffffff;fill-opacity:1;fill-rule:nonzero;stroke:none"
           d="m 7964.9,13439.5 c -188.71,-1664.8 1014.96,-3168.1 2688.5,-3357.9 1673.6,-189.63 3183.2,1006.1 3371.9,2670.9 188.7,1664.7 -1015,3168.1 -2688.5,3357.8 C 9663.3,16300 8153.6,15104.2 7964.9,13439.5" /></g><g
         id="g380"><g
           clip-path="url(#clipPath386)"
           id="g382"><g
             transform="scale(1.8281)"
             id="g388"><path
               id="path396"
               style="fill:url(#linearGradient394);fill-opacity:1;fill-rule:nonzero;stroke:none"
               d="m 11188.1,10334.5 c -113.3,0 -227.8,6.4 -343.1,19.4 -1645.26,186.5 -2828.57,1664.5 -2643.07,3301 172.53,1521.9 1467.92,2645.1 2971.77,2645.1 113.2,0 227.8,-6.4 343.1,-19.5 1645.2,-186.5 2828.6,-1664.4 2643,-3301 -172.5,-1521.9 -1467.9,-2645.1 -2971.7,-2645 m -93.9,5571.3 c -1339.29,0 -2493.01,-1000.3 -2646.66,-2355.7 -165.26,-1457.6 888.63,-2773.9 2353.96,-2940 102.6,-11.6 204.7,-17.3 305.6,-17.3 1339.2,0 2493,1000.3 2646.6,2355.8 165.3,1457.5 -888.6,2773.8 -2353.9,2939.9 -102.7,11.6 -204.7,17.3 -305.6,17.3 M 13942,13518.1 c -0.3,0 -0.5,0 -0.8,0 -10.5,-0.7 -18.3,-9.7 -17.6,-20.1 7.6,-114.4 7.9,-230.7 1,-345.8 -0.7,-10.4 7.3,-19.3 17.7,-20 h 1.1 c 10,0 18.3,7.7 18.9,17.8 7.1,116.6 6.7,234.5 -1,350.5 -0.6,10.1 -9.3,17.6 -19.3,17.6 m -2768,2533.6 c 105,0 210.3,-5.9 314.8,-17.8 1037.2,-117.6 1907.1,-796.1 2270.3,-1770.7 2.8,-7.7 10,-12.4 17.7,-12.4 2.2,0 4.4,0.4 6.6,1.2 9.8,3.7 14.8,14.5 11.2,24.4 -176.7,474.1 -480.4,891.8 -878.2,1207.9 -408.9,325 -901.1,528 -1423.3,587.2 -106,12 -212.8,18.1 -319.3,18.1 -62,0 -123.8,-2.1 -185.2,-6.2 -10.5,-0.7 -18.3,-9.7 -17.6,-20.1 0.6,-10.2 9.4,-17.7 19.3,-17.7 0.3,0 0.5,0 0.8,0.1 60.7,4 121.7,6 182.9,6" /></g></g></g><g
         id="g398"><g
           clip-path="url(#clipPath404)"
           id="g400"><g
             clip-path="url(#clipPath410)"
             id="g406"><g
               transform="scale(1.5665)"
               id="g412"><path
                 id="path420"
                 style="fill:url(#linearGradient418);fill-opacity:1;fill-rule:nonzero;stroke:none"
                 d="m 16269.4,15324.6 v 0.6 h -3.2 v 0.7 h -1.9 v 0.6 h -2 v 0.6 h -1.2 v 0.7 h -0.7 v 0.6 h -1.3 v 0.6 h -1.2 v 0.7 h -0.7 v 0.6 h -0.6 v 0.7 h -0.6 v 0.6 h -0.7 v 0.6 h -0.6 v 0.7 h -0.7 v 1.3 h -0.6 v 0.6 h -0.6 v 1.3 h -0.7 v 1.2 h -0.6 v 1.3 h -0.7 v 1.9 h -0.6 v 2.6 h -0.6 v 12.1 h 0.6 v 10.2 h 0.6 v 12.2 h 0.7 v 15.9 h 0.6 v 16.6 h 0.7 v 16 h 0.6 v 16.6 h 0.6 v 35.1 h 0.7 v 49.8 h 0.6 v 38.9 h -0.6 v 34.5 h -0.7 v 34.5 h -0.6 v 23.6 h -0.6 v 14 h -0.7 v 14.1 h -0.6 v 14 h -0.7 v 14.1 h -0.6 v 13.4 h -0.6 v 9.5 h -0.7 v 9.6 h -0.6 v 9.6 h 0.6 v 2.5 h 0.7 v 2 h 0.6 v 1.2 h 0.6 v 1.3 h 0.7 v 1.3 h 0.6 v 0.6 h 0.7 v 1.3 h 0.6 v 0.6 h 0.6 v 0.7 h 0.7 v 0.6 h 0.6 v 0.7 h 0.7 v 0.6 h 0.6 v 0.6 h 1.3 v 0.7 h 0.6 v 0.6 h 1.3 v 0.6 h 1.3 v 0.7 h 1.2 v 0.6 h 2 v 0.7 h 2.5 v 0.6 h 7 v -0.6 h 2.6 v -0.7 h 2.5 v -0.6 h 1.3 v -0.7 h 1.3 v -0.6 h 1.3 v -0.6 h 0.6 v -0.7 h 0.6 v -0.6 h 1.3 v -0.6 h 0.7 v -0.7 h 0.6 v -0.6 h 0.6 v -0.7 h 0.7 v -0.6 h 0.6 v -0.6 h 0.6 v -1.3 h 0.7 v -1.3 h 0.6 v -0.6 h 0.7 v -1.9 h 0.6 v -1.3 h 0.6 v -2.6 h 0.7 v -6.4 h 0.6 v -9.5 h 0.7 v -9.6 h 0.6 v -13.4 h 0.6 v -14.1 h 0.7 v -14 h 0.6 v -14 h 0.6 v -14.7 h 0.7 v -21.1 h 0.6 v -34.5 h 0.7 v -34.4 h 0.6 v -52.4 h -0.6 v -49.8 h -0.7 v -31.3 h -0.6 v -15.9 h -0.7 v -16.6 h -0.6 v -16 h -0.6 v -15.9 h -0.7 v -12.2 h -0.6 v -10.2 h -0.6 v -8.3 h -0.7 v -3.2 h -0.6 v -1.2 h -0.7 v -2 h -0.6 v -1.2 h -0.6 v -0.7 h -0.7 v -1.2 h -0.6 v -0.7 h -0.7 v -1.3 h -0.6 v -0.6 h -0.6 v -0.6 h -0.7 v -0.7 h -1.2 v -0.6 h -0.7 v -0.7 h -0.6 v -0.6 h -1.3 v -0.6 h -1.3 v -0.7 h -0.6 v -0.6 h -1.9 v -0.6 h -1.9 v -0.7 h -3.9 v -0.6" /></g></g></g></g><g
         id="g422"><g
           clip-path="url(#clipPath428)"
           id="g424"><g
             transform="scale(1.80449)"
             id="g430"><path
               id="path438"
               style="fill:url(#linearGradient436);fill-opacity:1;fill-rule:nonzero;stroke:none"
               d="m 13957,14437.2 c -7.8,0 -15.1,4.7 -18,12.5 -367.9,987.4 -1249.2,1674.8 -2299.9,1793.9 -105.9,12 -212.6,18.1 -319,18.1 -61.9,0 -123.8,-2.1 -185.2,-6.2 -0.3,0 -0.6,0 -0.9,0 -9.9,0 -18.9,7.6 -19.5,17.9 -0.7,10.5 7.2,19.7 17.8,20.4 62.3,4.1 124.9,6.2 187.6,6.2 107.9,0 216.1,-6.1 323.5,-18.3 529.1,-60 1027.7,-265.7 1441.9,-594.9 403.1,-320.2 710.7,-743.4 889.7,-1223.7 3.7,-10 -1.4,-21 -11.3,-24.7 -2.2,-0.8 -4.4,-1.2 -6.7,-1.2" /></g></g></g><g
         id="g440"><g
           clip-path="url(#clipPath446)"
           id="g442"><g
             transform="scale(1.78389)"
             id="g448"><path
               id="path456"
               style="fill:url(#linearGradient454);fill-opacity:1;fill-rule:nonzero;stroke:none"
               d="m 11382.3,10855.3 c -103.4,0 -207.9,5.9 -313.1,17.8 -1501.66,170.2 -2581.66,1519.1 -2412.31,3012.8 157.46,1389 1339.77,2414.1 2712.21,2414.1 103.4,0 208,-5.8 313.2,-17.8 1501.6,-170.2 2581.6,-1519 2412.3,-3012.7 -157.5,-1389.1 -1339.8,-2414.2 -2712.3,-2414.2" /></g></g></g><g
         transform="scale(1.55627)"
         id="g458"><path
           id="path460"
           style="fill:#ffffff;fill-opacity:1;fill-rule:nonzero;stroke:none"
           d="m 13149,14228.8 c -292,-342.4 -807.9,-381.2 -1154.2,-85 -348.4,298 -393,821.5 -97.8,1167.7 295.2,346.2 816,380.9 1161.1,79.1 343,-299.8 383,-819.3 90.9,-1161.8 z m 809.3,488.2 -160.9,31.5 c 0.6,74.2 -5.1,148.4 -17,221.8 l 155.1,54.1 c 41.8,14.6 63.9,60.9 49.2,103.4 l -91.7,266.4 c -14.8,42.7 -60.6,65.5 -102.6,50.9 l -155.8,-54.1 c -35.8,64.5 -77.6,126.5 -125,185.3 l 108.2,126.8 c 29,34 25.1,85.8 -8.8,115.7 l -212.3,187.3 c -34,30 -85.2,26.7 -114.3,-7.5 l -108.5,-127.2 c -64.4,39.5 -131.3,73.1 -200,100.1 l 30.3,165.8 c 8.1,44.7 -21.1,88.2 -65.4,97.2 l -277.2,56.4 c -44.4,9.1 -87,-19.9 -95.1,-64.7 l -30.1,-166.1 c -74.7,1.9 -149.4,-2.9 -223.2,-14 l -56.5,160.2 c -15.2,43.4 -62.3,66.8 -105,52.1 l -267.3,-91.5 c -42.8,-14.6 -64.9,-61.7 -49.5,-105.2 l 56.4,-158.7 c -64.9,-36 -126.9,-78.2 -185.6,-126.2 l -127.3,110.4 c -34.9,30.2 -86.9,26.9 -116.3,-7.6 l -183.7,-215.3 c -29.4,-34.5 -24.8,-86.9 10.1,-117 l 126.7,-109.2 c -38.8,-65.8 -71.4,-134.1 -97.3,-204.2 l -161.9,31.7 c -45,8.8 -87.9,-20.4 -95.8,-65.2 l -49.4,-279.9 c -8,-44.7 22.1,-88 67,-96.7 l 161,-31.1 c -0.2,-76 6.3,-152 19.3,-227 l -153,-53.2 c -42.8,-14.8 -64.8,-61.7 -49.2,-104.5 l 97.2,-267.5 c 15.6,-42.7 62.8,-65.2 105.4,-50.3 l 151.4,52.8 c 37.4,-65.4 81.2,-128 130.5,-187.2 l -103.8,-121.6 c -29.1,-34.2 -24.6,-85.6 10,-115 l 215.9,-183 c 34.4,-29.2 85.9,-25.2 115,8.8 l 103.3,121.3 c 66,-38.9 134.3,-71.7 204.3,-97.8 l -28.4,-156.4 c -8,-43.9 21.4,-86.2 65.5,-94.4 l 275.4,-51 c 43.9,-8.2 86,20.7 94.1,64.5 l 28.6,157.1 c 74.8,-0.6 149.4,5.2 222.9,17.6 l 53.7,-151 c 14.9,-41.9 61,-64 102.9,-49.1 l 261.7,92.6 c 41.8,14.8 63.7,60.8 48.9,102.8 l -53.4,151.5 c 63.7,36.2 124.6,78.5 182.2,126.4 l 122.2,-105.4 c 33.6,-29 84.2,-25 113,8.7 l 180,211.1 c 28.8,33.8 25,84.7 -8.6,113.8 l -122.8,106.6 c 37.7,64.5 69.7,131.3 95.1,200.1 l 159.2,-30.8 c 43.5,-8.4 85.3,20.4 93.5,64.2 l 51.4,274.6 c 8.2,44 -20.4,86.5 -63.9,95" /></g><g
         transform="scale(1.69291)"
         id="g462"><path
           id="path464"
           style="fill:#ffffff;fill-opacity:1;fill-rule:nonzero;stroke:none"
           d="m 13370.2,15270 c -144.4,-169.3 -406.1,-186.4 -585.2,-37.7 -180,149.5 -208.5,409.4 -63,580.1 145.6,170.7 409.1,186.3 587.9,35.5 178,-150.2 204.7,-408.7 60.3,-577.9 z m 405.9,239.8 -82.4,16.3 c -0.6,36.9 -4.4,73.9 -11.4,110.4 l 78.3,26.4 c 21.1,7.1 31.8,30 23.7,51.2 l -50,132.8 c -8,21.2 -31.7,32.7 -52.9,25.6 l -78.5,-26.4 c -19.1,32.2 -41.1,63.1 -65.9,92.4 l 53.4,62.7 c 14.4,16.8 11.7,42.5 -5.9,57.4 l -110.2,93.6 c -17.6,15 -43.6,13.5 -57.9,-3.4 l -53.5,-62.8 c -33.3,19.8 -67.6,36.7 -102.8,50.3 l 13.4,82 c 3.5,22.2 -11.8,43.8 -34.3,48.4 l -141.3,28.7 c -22.6,4.6 -43.9,-9.7 -47.5,-31.8 l -13.2,-82.2 c -37.9,1.2 -75.7,-1 -112.9,-6.3 l -30.5,79.5 c -8.2,21.5 -32.3,33.2 -53.7,26.1 l -134.2,-44.6 c -21.5,-7.1 -32.2,-30.4 -23.9,-51.9 l 30.3,-78.7 c -32.3,-17.6 -63.2,-38.4 -92.4,-62 l -65.6,55.1 c -18,15 -44.3,13.5 -58.8,-3.5 l -90.4,-106 c -14.5,-16.9 -11.6,-42.9 6.4,-57.9 l 65.3,-54.5 c -18.9,-32.4 -34.7,-66.2 -46.9,-100.8 l -82.3,16.2 c -22.8,4.5 -44.1,-9.8 -47.6,-32 l -22,-138.5 c -3.5,-22.1 12.2,-43.7 35,-48.2 l 81.7,-16 c 0.8,-37.7 4.9,-75.3 12.4,-112.6 l -76.9,-25.8 c -21.4,-7.2 -32.1,-30.4 -23.7,-51.7 l 52.1,-133.2 c 8.3,-21.2 32.5,-32.6 53.9,-25.4 l 76.1,25.6 c 19.6,-32.6 42.5,-63.9 68.2,-93.6 l -51.2,-60 c -14.4,-16.8 -11.5,-42.4 6.3,-57.1 l 111.5,-92 c 17.8,-14.7 43.9,-13 58.2,3.8 l 51,59.9 c 34,-19.6 69,-36.2 104.8,-49.5 l -12.5,-77.8 c -3.6,-21.8 11.8,-43 34.3,-47.3 l 140.5,-26.7 c 22.4,-4.3 43.5,9.9 47,31.7 l 12.8,78.2 c 38,-0.7 75.8,1.9 113,7.7 l 29.2,-75.4 c 8.1,-21 31.7,-32.2 52.9,-25 l 132.1,45 c 21.1,7.2 31.7,30 23.7,51 l -29.1,75.8 c 32,17.7 62.5,38.5 91.2,62.2 l 63.6,-53.1 c 17.4,-14.6 43.1,-12.9 57.4,3.8 l 89.1,104.5 c 14.2,16.7 11.6,42.1 -5.8,56.8 l -64,53.5 c 18.5,32.1 34,65.3 46,99.3 l 81.5,-15.9 c 22.3,-4.3 43.2,9.8 46.9,31.7 l 22.6,136.5 c 3.7,21.8 -11.4,43.1 -33.7,47.5" /></g><g
         id="g466"><g
           clip-path="url(#clipPath472)"
           id="g468"><g
             transform="scale(1.79436)"
             id="g474"><path
               id="path482"
               style="fill:url(#linearGradient480);fill-opacity:1;fill-rule:nonzero;stroke:none"
               d="m 16190.9,4150.18 c 0,0 75.2,-106.22 108.3,-412.63 3.1,-28.53 -18.3,-54.11 -47,-55.56 l -544.6,-27.59 c -21.9,-1.11 -38.6,19.57 -32.6,40.69 27.1,96.08 111.9,331.2 320.5,473.7 l 195.4,-18.61" /></g></g></g><g
         id="g484"><g
           clip-path="url(#clipPath490)"
           id="g486"><g
             transform="scale(1.79048)"
             id="g492"><path
               id="path500"
               style="fill:url(#linearGradient498);fill-opacity:1;fill-rule:nonzero;stroke:none"
               d="m 16300,4326.11 -59.8,-254.07 c -5.1,-21.89 -24.5,-37.76 -47,-37.81 -30.1,-0.06 -73.5,2.4 -114.8,14.07 -37.4,10.56 -61,47.65 -56.6,86.29 l 28,248.65 250.2,-57.13" /></g></g></g><g
         id="g502"><g
           clip-path="url(#clipPath508)"
           id="g504"><g
             transform="scale(1.65822)"
             id="g510"><path
               id="path518"
               style="fill:url(#linearGradient516);fill-opacity:1;fill-rule:nonzero;stroke:none"
               d="m 16174.4,4470.52 c 0,0 119,-171.51 125,-412.38 1.4,-56.74 -44.5,-103.6 -101.2,-105.59 l -915.9,-31.9 c -42.8,-1.51 -62.1,53.01 -27.9,78.88 169.1,127.72 501.7,366.96 745,464.89 l 175,6.1" /></g></g></g><g
         id="g520"><g
           clip-path="url(#clipPath526)"
           id="g522"><g
             transform="scale(1.64777)"
             id="g528"><path
               id="path536"
               style="fill:url(#linearGradient534);fill-opacity:1;fill-rule:nonzero;stroke:none"
               d="m 16300,4793.09 -23.6,-354.29 c -2.6,-39.63 -36.8,-70.71 -76.4,-67.43 -24,2 -52.9,8.19 -84.9,22.58 -30.4,13.65 -49.1,44.97 -47.8,78.22 l 16,427.49 216.7,-106.57" /></g></g></g><g
         id="g538"><g
           clip-path="url(#clipPath544)"
           id="g540"><g
             transform="scale(1.85755)"
             id="g546"><path
               id="path554"
               style="fill:url(#linearGradient552);fill-opacity:1;fill-rule:nonzero;stroke:none"
               d="m 16086.8,8397.42 c 0,0 197.8,-218.35 212.8,-455.87 15,-237.51 -570.1,-4004.74 -570.1,-4004.74 0,0 -223.7,-11.79 -329.1,69.55 0,0 142.7,2471.65 104.7,3050.75 0,0 -822,-2484.25 -1022.1,-2927.31 0,0 -214.4,-1.88 -278,46.03 0,0 512.1,3282.72 754.3,3849.27 l 1127.5,372.32" /></g></g></g><g
         id="g556"><g
           clip-path="url(#clipPath562)"
           id="g558"><g
             transform="scale(1.81252)"
             id="g564"><path
               id="path572"
               style="fill:url(#linearGradient570);fill-opacity:1;fill-rule:nonzero;stroke:none"
               d="m 15908.8,7305.15 c 13.2,0 25.7,8 30.7,21.02 l 132.3,343.89 209.9,103.5 c 16.3,8.06 22.9,27.7 14.9,43.97 -8,16.22 -27.7,22.9 -43.9,14.9 l -221.4,-109.19 c -7.4,-3.64 -13.2,-9.93 -16.2,-17.65 l -136.9,-355.8 c -6.5,-16.94 1.9,-35.92 18.9,-42.43 3.8,-1.49 7.8,-2.21 11.7,-2.21" /></g></g></g><g
         id="g574"><g
           clip-path="url(#clipPath580)"
           id="g576"><g
             transform="scale(1.84233)"
             id="g582"><path
               id="path590"
               style="fill:url(#linearGradient588);fill-opacity:1;fill-rule:nonzero;stroke:none"
               d="m 13930.8,10542.9 c 367.9,316.5 1010.8,405.8 1380,430.6 161.8,10.8 308.1,-94.9 347.2,-252.2 113.4,-456.1 427.9,-1644.65 491.6,-1849.99 52.3,-168.48 108.2,-333.59 143.8,-436.89 21.3,-61.71 -10.9,-129.02 -72.6,-150.62 -320.9,-112.36 -887.3,-216.63 -1116.7,-256.36 -50.4,-8.74 -94.9,33.43 -89.2,84.29 4.9,43.16 -2.1,86.85 -20.1,126.31 l -682.9,1496.2 c -589.7,-522.11 -1054.7,-523.46 -1393,-356.5 80,176.57 139.4,355.74 178.8,537.58 531,30.5 833.1,627.58 833.1,627.58" /></g></g></g><g
         id="g592"><g
           clip-path="url(#clipPath598)"
           id="g594"><g
             transform="scale(1.48039)"
             id="g600"><path
               id="path608"
               style="fill:url(#linearGradient606);fill-opacity:1;fill-rule:nonzero;stroke:none"
               d="m 15242.2,12581.7 134.5,142.8 c 349.5,-302.8 659.1,-400.2 923.3,-385 -49,-226.2 -123,-449.2 -222.5,-669 -554.6,273.7 -835.3,911.2 -835.3,911.2" /></g></g></g><g
         id="g610"><g
           clip-path="url(#clipPath616)"
           id="g612"><g
             transform="scale(1.40382)"
             id="g618"><path
               id="path626"
               style="fill:url(#linearGradient624);fill-opacity:1;fill-rule:nonzero;stroke:none"
               d="m 16261.2,13300.8 -681.7,-159.1 -700.5,231.4 c 79.9,74.3 615.6,56.9 615.6,56.9 0,0 521,184.5 666.2,212.7 120.6,23.4 136.8,-153.4 138.8,-213.9 0.4,-12.4 0.2,-19.9 0.2,-19.9 l -38.6,-108.1" /></g></g></g><g
         id="g628"><g
           clip-path="url(#clipPath634)"
           id="g630"><g
             transform="scale(1.70545)"
             id="g636"><path
               id="path644"
               style="fill:url(#linearGradient642);fill-opacity:1;fill-rule:nonzero;stroke:none"
               d="m 16081.2,12616.2 218.8,-770.7 c 0,0 -373.9,-201 -650.4,-146.7 l -76,679.4 507.6,238" /></g></g></g><g
         id="g646"><g
           clip-path="url(#clipPath652)"
           id="g648"><g
             transform="scale(1.68816)"
             id="g654"><path
               id="path662"
               style="fill:url(#linearGradient660);fill-opacity:1;fill-rule:nonzero;stroke:none"
               d="m 15787.9,13310.8 c -8.1,-9.2 -308.7,-756.8 -308.7,-756.8 l 430.6,-162.6 390.2,666.3 c 0,0 -376.4,405.5 -512.1,253.1" /></g></g></g><g
         id="g664"><g
           clip-path="url(#clipPath670)"
           id="g666"><g
             transform="scale(1.71252)"
             id="g672"><path
               id="path680"
               style="fill:url(#linearGradient678);fill-opacity:1;fill-rule:nonzero;stroke:none"
               d="m 15891.8,12785.5 -175.4,-361.7 c -2.3,-4.6 -5.1,-8.8 -8.5,-12.6 -20.9,-23.7 -98.9,-99.6 -171.7,-15.1 -66.1,76.7 -127.5,145.7 -189.4,164 -27.8,8.1 -57.2,-6.1 -68,-32.9 -26.9,-67 -84.8,-219 -114.8,-358.8 -6.2,-28.4 10.7,-56.5 38.4,-65.1 83.5,-25.8 261.2,-75.4 413.5,-81.7 20.6,-0.9 40,9.4 50.6,27.1 52,86.2 210.6,347.9 266.1,413.9 52.1,62 161,47.8 206.4,38.6 14.8,-3 30.1,0.2 42.6,8.8 44,30.6 130.3,111.7 35.2,231 -19.9,25 -15.2,61.2 10.4,80.3 50.9,38.1 108.8,109.4 42.8,213.3 -67,105.5 -171.7,101.7 -237.4,85.9 -26.6,-6.5 -53.1,7.4 -64.3,32.3 -6.5,14.2 -19.1,25.8 -43.2,26.5 -32.5,0.8 -56.5,30.7 -52.2,62.9 8.1,61.9 -5.3,142.7 -109.1,188.3 -184.2,81 -324.1,-90 -351.3,-226.3 -27.4,-136.3 177.3,-212.7 302.2,-217.3 95,-3.6 154.4,-104.8 177.4,-153.1 7.3,-15.3 7.1,-33.1 -0.3,-48.3" /></g></g></g><g
         id="g682"><g
           clip-path="url(#clipPath688)"
           id="g684"><g
             transform="scale(1.69718)"
             id="g690"><path
               id="path698"
               style="fill:url(#linearGradient696);fill-opacity:1;fill-rule:nonzero;stroke:none"
               d="m 16010.8,12443 c 0,0 58.3,237.6 159.9,238.1 101.7,0.5 189.9,-92.9 75,-217 -143,-154.3 -234.9,-21.1 -234.9,-21.1" /></g></g></g><g
         transform="scale(1.21884)"
         id="g700"><path
           id="path702"
           style="fill:#ffffff;fill-opacity:1;fill-rule:nonzero;stroke:none"
           d="m 13309.9,16125.5 -63.5,-54.5 -1.1,-1 c -38.5,-33 -96.5,-28.5 -129.6,10 -32.7,38.1 -28.6,95.3 8.7,128.5 l 64.8,57.5 c 38.2,34 96.8,30.5 130.8,-7.8 33.9,-38.2 30.5,-96.8 -7.8,-130.7 l -0.9,-0.8 -1.4,-1.2" /></g><g
         transform="scale(1.20432)"
         id="g704"><path
           id="path706"
           style="fill:#ffffff;fill-opacity:1;fill-rule:nonzero;stroke:none"
           d="m 13259.1,16132.2 -61.7,-58.2 -0.8,-0.9 c -36.5,-34.2 -93.8,-32.6 -128.1,3.8 -34,35.9 -32.7,92.5 2.6,126.9 l 62.4,61 c 36.1,35.2 93.9,34.5 129.2,-1.6 35.2,-36.1 34.5,-93.9 -1.6,-129.2 l -0.7,-0.7 -1.3,-1.1" /></g><g
         transform="scale(1.18925)"
         id="g708"><path
           id="path710"
           style="fill:#ffffff;fill-opacity:1;fill-rule:nonzero;stroke:none"
           d="m 13221.2,16136.7 -60.5,-61.5 -0.7,-0.7 c -34.4,-35.3 -91,-35.8 -126.2,-1.2 -34.8,34.1 -35.6,89.9 -2.3,125.1 l 60.8,64 c 34.2,36.1 91.1,37.6 127.2,3.4 36.1,-34.2 37.6,-91.3 3.3,-127.3 l -0.6,-0.8 -1,-1" /></g><g
         transform="scale(1.17366)"
         id="g712"><path
           id="path714"
           style="fill:#ffffff;fill-opacity:1;fill-rule:nonzero;stroke:none"
           d="m 13194.9,16140.5 -59.3,-64.5 -0.5,-0.6 c -32.9,-35.8 -88.5,-38.1 -124.3,-5.2 -35.4,32.5 -38,87.3 -6.2,123.1 l 59.3,66.7 c 32.5,36.7 88.6,40 125.2,7.5 36.6,-32.6 39.9,-88.7 7.4,-125.3 l -0.7,-0.8 -0.9,-0.9" /></g><g
         transform="scale(1.15761)"
         id="g716"><path
           id="path718"
           style="fill:#ffffff;fill-opacity:1;fill-rule:nonzero;stroke:none"
           d="m 13179.6,16144.2 -58.3,-67.2 -0.4,-0.6 c -31.4,-36.1 -86.1,-40 -122.3,-8.6 -35.7,31.1 -39.8,85 -9.6,121.1 l 58.1,69.2 c 31,37.1 86.2,41.9 123.2,10.8 36.9,-31 41.8,-86.1 10.8,-123.1 l -0.7,-0.8 -0.8,-0.8" /></g><g
         transform="scale(1.14117)"
         id="g720"><path
           id="path722"
           style="fill:#ffffff;fill-opacity:1;fill-rule:nonzero;stroke:none"
           d="m 13174.3,16147.8 -57.4,-69.7 -0.4,-0.5 c -30,-36.4 -83.8,-41.5 -120.1,-11.6 -36,29.7 -41.3,82.7 -12.5,119 l 57.1,71.6 c 29.6,37.3 83.7,43.4 121,13.8 37.1,-29.6 43.3,-83.8 13.7,-121 l -0.7,-0.8 -0.7,-0.8" /></g><g
         transform="scale(1.12439)"
         id="g724"><path
           id="path726"
           style="fill:#ffffff;fill-opacity:1;fill-rule:nonzero;stroke:none"
           d="m 13178.5,16151.3 -56.7,-72 -0.3,-0.5 c -28.7,-36.5 -81.5,-42.8 -118,-14.1 -36.1,28.3 -42.6,80.4 -14.9,116.7 l 56.1,74 c 28.3,37.3 81.5,44.6 118.7,16.3 37.4,-28.4 44.6,-81.4 16.3,-118.8 l -0.6,-0.8 -0.6,-0.8" /></g><g
         transform="scale(1.10731)"
         id="g728"><path
           id="path730"
           style="fill:#ffffff;fill-opacity:1;fill-rule:nonzero;stroke:none"
           d="m 13191.7,16154.8 -56,-74.4 -0.3,-0.5 c -27.5,-36.5 -79.3,-43.8 -115.8,-16.4 -36,27.2 -43.6,78.2 -17.1,114.6 l 55.2,76.3 c 27.1,37.3 79.3,45.6 116.6,18.5 37.3,-27.1 45.6,-79.2 18.5,-116.5 l -0.5,-0.8 -0.6,-0.8" /></g><g
         transform="scale(1.08996)"
         id="g732"><path
           id="path734"
           style="fill:#ffffff;fill-opacity:1;fill-rule:nonzero;stroke:none"
           d="m 13213.9,16158.4 -55.3,-76.9 -0.4,-0.3 c -26.1,-36.4 -77,-44.7 -113.4,-18.5 -35.9,25.9 -44.4,76 -19.2,112.3 l 54.6,78.6 c 25.8,37.2 77,46.4 114.3,20.5 37.1,-25.8 46.4,-76.9 20.5,-114.1 l -0.5,-0.8 -0.6,-0.8" /></g><g
         transform="scale(1.07236)"
         id="g736"><path
           id="path738"
           style="fill:#ffffff;fill-opacity:1;fill-rule:nonzero;stroke:none"
           d="m 13245,16161.9 -54.6,-79.2 -0.3,-0.4 c -25.1,-36.3 -74.8,-45.4 -111.1,-20.4 -35.8,24.8 -45.2,73.9 -21.1,110.1 l 53.9,80.8 c 24.7,37.1 74.8,47.2 111.9,22.5 37,-24.7 47.1,-74.8 22.4,-111.8 l -0.5,-0.9 -0.6,-0.7" /></g><g
         transform="scale(1.05452)"
         id="g740"><path
           id="path742"
           style="fill:#ffffff;fill-opacity:1;fill-rule:nonzero;stroke:none"
           d="m 13285.5,16165.4 -54.1,-81.6 -0.2,-0.4 c -24,-36.1 -72.6,-46 -108.8,-22.1 -35.6,23.7 -45.7,71.6 -22.7,107.6 l 53.2,83.3 c 23.5,37 72.5,47.8 109.4,24.2 36.9,-23.5 47.7,-72.6 24.2,-109.4 l -0.5,-0.8 -0.5,-0.8" /></g><g
         transform="scale(1.03644)"
         id="g744"><path
           id="path746"
           style="fill:#ffffff;fill-opacity:1;fill-rule:nonzero;stroke:none"
           d="m 13335.6,16169.2 -53.4,-84.3 -0.3,-0.3 c -22.8,-35.9 -70.4,-46.6 -106.2,-23.8 -35.5,22.6 -46.3,69.4 -24.5,105.2 l 52.5,85.8 c 22.4,36.6 70.4,48.2 107,25.8 36.7,-22.5 48.3,-70.3 25.8,-107 l -0.5,-0.8 -0.4,-0.6" /></g><g
         transform="scale(1.01815)"
         id="g748"><path
           id="path750"
           style="fill:#ffffff;fill-opacity:1;fill-rule:nonzero;stroke:none"
           d="m 13395.9,16172.8 -52.7,-86.7 -0.2,-0.4 c -21.7,-35.7 -68.1,-47 -103.8,-25.3 -35.2,21.4 -46.6,67.1 -25.9,102.6 l 51.7,88.4 c 21.3,36.3 68,48.6 104.4,27.4 36.4,-21.3 48.6,-68.1 27.4,-104.5 l -0.5,-0.7 -0.4,-0.8" /></g><path
         id="path752"
         style="fill:#ffffff;fill-opacity:1;fill-rule:nonzero;stroke:none"
         d="m 13462.1,16170.7 -51.9,-89.4 -0.2,-0.4 c -20.5,-35.3 -65.7,-47.3 -101,-26.8 -34.9,20.3 -47,64.8 -27.4,99.9 l 50.8,91.1 c 20.1,36 65.7,48.9 101.7,28.8 36.1,-20.1 49,-65.7 28.9,-101.7 l -0.4,-0.8 -0.5,-0.7" /><path
         id="path754"
         style="fill:#ffffff;fill-opacity:1;fill-rule:nonzero;stroke:none"
         d="m 13291.3,15871.5 -49.9,-90.5 -0.3,-0.4 c -18.9,-34.3 -62.1,-46.7 -96.4,-27.8 -33.9,18.8 -46.4,61.3 -28.4,95.4 l 48.9,92.1 c 18.6,35.1 62.1,48.4 97.2,29.8 35,-18.6 48.3,-62.1 29.7,-97.2 l -0.4,-0.7 -0.4,-0.7" /><path
         id="path756"
         style="fill:#ffffff;fill-opacity:1;fill-rule:nonzero;stroke:none"
         d="m 13127,15568.6 -47.9,-91.5 -0.3,-0.4 c -17.4,-33.3 -58.5,-46.1 -91.8,-28.7 -32.9,17.3 -45.8,57.7 -29.2,90.8 l 46.8,93.2 c 17.1,34 58.5,47.7 92.5,30.6 34,-17.1 47.7,-58.5 30.6,-92.5 l -0.3,-0.7 -0.4,-0.8" /><path
         id="path758"
         style="fill:#ffffff;fill-opacity:1;fill-rule:nonzero;stroke:none"
         d="m 12969.7,15262.2 -45.7,-92.7 -0.3,-0.4 c -15.9,-32.3 -54.9,-45.5 -87.1,-29.6 -31.9,15.7 -45.2,54.1 -30.1,86.2 l 44.6,94.3 c 15.5,32.9 54.9,47 87.8,31.4 33,-15.5 47,-54.8 31.5,-87.8 l -0.4,-0.7 -0.3,-0.7" /><path
         id="path760"
         style="fill:#ffffff;fill-opacity:1;fill-rule:nonzero;stroke:none"
         d="m 12820.2,14952.1 -43.2,-93.9 -0.3,-0.5 c -14.3,-31.1 -51.2,-44.8 -82.4,-30.4 -30.9,14.2 -44.5,50.5 -30.9,81.5 l 42,95.5 c 14.1,31.9 51.3,46.3 83.1,32.3 31.9,-14 46.4,-51.2 32.3,-83.1 l -0.3,-0.7 -0.3,-0.7" /><path
         id="path762"
         style="fill:#ffffff;fill-opacity:1;fill-rule:nonzero;stroke:none"
         d="m 12679.5,14638 -40.4,-95 -0.2,-0.6 c -12.8,-30.1 -47.5,-44.1 -77.6,-31.4 -29.8,12.7 -43.9,46.9 -31.8,76.8 l 39.1,96.7 c 12.5,30.8 47.5,45.7 78.3,33.2 30.8,-12.4 45.6,-47.5 33.2,-78.2 l -0.3,-0.7 -0.3,-0.8" /><path
         id="path764"
         style="fill:#ffffff;fill-opacity:1;fill-rule:nonzero;stroke:none"
         d="m 12548.9,14319.8 -36.9,-96.3 -0.2,-0.6 c -11.2,-29.1 -43.7,-43.6 -72.7,-32.5 -28.7,11 -43.2,43 -32.8,71.8 l 35.7,98.2 c 10.8,29.7 43.6,45 73.3,34.2 29.7,-10.8 45,-43.6 34.2,-73.3 l -0.3,-0.6 -0.3,-0.9" /><path
         id="path766"
         style="fill:#ffffff;fill-opacity:1;fill-rule:nonzero;stroke:none"
         d="m 12430.5,13997.1 -32.8,-97.7 -0.2,-0.7 c -9.4,-28 -39.6,-43 -67.6,-33.7 -27.6,9.3 -42.6,39 -33.9,66.7 l 31.6,99.7 c 9,28.6 39.5,44.4 68.1,35.3 28.5,-9 44.4,-39.5 35.3,-68 l -0.2,-0.6 -0.3,-1" /></g></g></svg>