<?xml version="1.0" encoding="UTF-8" standalone="no"?>
<svg
   xmlns:dc="http://purl.org/dc/elements/1.1/"
   xmlns:cc="http://creativecommons.org/ns#"
   xmlns:rdf="http://www.w3.org/1999/02/22-rdf-syntax-ns#"
   xmlns:svg="http://www.w3.org/2000/svg"
   xmlns="http://www.w3.org/2000/svg"
   viewBox="0 0 4000 2666.6667"
   height="2666.6667"
   width="4000"
   xml:space="preserve"
   id="svg2"
   version="1.1"><metadata
     id="metadata8"><rdf:RDF><cc:Work
         rdf:about=""><dc:format>image/svg+xml</dc:format><dc:type
           rdf:resource="http://purl.org/dc/dcmitype/StillImage" /></cc:Work></rdf:RDF></metadata><defs
     id="defs6" /><g
     transform="matrix(1.3333333,0,0,-1.3333333,0,2666.6667)"
     id="g10"><g
       transform="scale(0.1)"
       id="g12"><g
         transform="scale(1.84049)"
         id="g14"><path
           id="path16"
           style="fill:#ffffff;fill-opacity:1;fill-rule:nonzero;stroke:none"
           d="M 16300,0 H 0 V 10866.7 H 16300 V 0" /></g><g
         transform="scale(1.70552)"
         id="g18"><path
           id="path20"
           style="fill:#cbcbff;fill-opacity:1;fill-rule:nonzero;stroke:none"
           d="M 13167.1,1194.12 H 16300 c -44.9,208.56 -343.6,369.51 -705.7,369.51 -110.1,0 -214.3,-14.95 -307.1,-41.16 -56,136.49 -208,234 -386.7,234 -86.2,0 -166.1,-22.81 -232.2,-61.56 -104.4,110.23 -263.8,180.47 -442.8,180.47 -246.5,0 -456.3,-133.68 -536.1,-320.84 -9.4,-21.99 -17.1,-45.03 -22.8,-68.66 -7,1 -14.1,1.64 -21.4,2.23 -1.6,0 -3.2,0 -4.8,0.23 -10.3,0.59 -20.6,0.76 -30.9,0.76 -213.8,0 -393,-125.59 -442.4,-294.98" /></g><g
         transform="scale(1.43237)"
         id="g22"><path
           id="path24"
           style="fill:#ffffff;fill-opacity:1;fill-rule:nonzero;stroke:none"
           d="m 16272.8,1769.24 c -8.3,1.19 -16.8,1.95 -25.4,2.65 13.4,28.35 31.2,55.08 52.6,79.1 -11.2,-26.18 -20.4,-53.62 -27.2,-81.75" /></g><g
         transform="scale(1.61182)"
         id="g26"><path
           id="path28"
           style="fill:#eaeaff;fill-opacity:1;fill-rule:nonzero;stroke:none"
           d="m 16300,1263.54 h -2367.4 c 52.3,179.24 241.8,312.13 468.1,312.13 10.8,0 21.7,-0.19 32.7,-0.8 1.2,-0.69 2.5,-1.74 3.8,-2.8 0.4,0.87 0.8,1.68 1.2,2.55 v 0 c 7.7,-0.62 15.2,-1.31 22.7,-2.36 6,25 14.1,49.38 24.1,72.65 v 0 c 68.8,77.98 179.5,128.43 304.5,128.43 182.1,0 333.9,-107.46 369.9,-250.65 72.8,22.27 155.2,34.86 242.8,34.86 87.2,0 169.3,-12.4 241.7,-34.43 28.2,55.78 97,95.3 177.3,95.3 105.8,0 191.7,-68.56 191.7,-153 0,-3.84 -0.2,-7.26 -0.5,-11.1 130.6,-17.93 238.3,-91.64 287.4,-190.78" /></g><g
         transform="scale(1.66455)"
         id="g30"><path
           id="path32"
           style="fill:#cbcbff;fill-opacity:1;fill-rule:nonzero;stroke:none"
           d="m 16300,8651.46 h -1987 c 28.5,132.28 218,234.34 447.6,234.34 69.8,0 135.9,-9.47 194.8,-26.12 35.4,86.57 131.9,148.42 245.2,148.42 54.7,0 105.4,-14.47 147.3,-39.06 66.2,69.92 167.3,114.48 280.8,114.48 156.4,0 289.4,-84.77 340,-203.48 6,-13.95 10.9,-28.56 14.5,-43.54 4.5,0.64 8.9,1.02 13.5,1.41 1.1,0 2.1,0 3.1,0.13 6.5,0.38 13.1,0.51 19.6,0.51 135.6,0 249.2,-79.65 280.6,-187.09" /></g><path
         id="path34"
         style="fill:#f5f5ff;fill-opacity:1;fill-rule:nonzero;stroke:none"
         d="m 7862.47,6652 83.45,547.8 -605.83,422.3 -70.72,5.5 -3.69,11.8 c -9.88,31.6 -39.24,52.6 -72.21,52.6 -0.77,0 -1.54,0 -2.32,-0.1 -29.96,-0.8 -59.88,-1.3 -89.75,-1.3 -215.66,0 -428.53,23.1 -634.74,68.2 -5.51,1.2 -11.03,1.8 -16.49,1.8 -27.55,0 -53.43,-14.9 -66.63,-40.1 l -485.51,-926.3 c -13.46,-25.7 -39.66,-40.4 -66.78,-40.4 -11.78,0 -23.74,2.8 -34.9,8.6 L 4573.51,7403 c -36.87,19.3 -51.09,64.9 -31.75,101.7 l 486.04,926.6 c 15.78,30.1 9.14,66.7 -15.64,90 -176.14,165 -332.25,351.7 -467.54,558.6 -14.28,21.8 -38.19,34.5 -63.19,34.5 -7.38,0 -14.84,-1.1 -22.18,-3.4 l -999.31,-312 c -7.47,-2.3 -15.03,-3.4 -22.47,-3.4 -32.08,0 -61.81,20.6 -71.88,52.9 l -411.72,1318.7 c -12.39,39.7 9.74,81.9 49.45,94.3 l 999.32,312 c 32.23,10.1 53.42,40.4 52.6,74.1 -6.04,245.7 15.8,488.8 66.87,723.9 7.22,33.3 -8.13,67.2 -38.26,83.1 l -927.39,486.8 c -36.82,19.3 -51.01,64.8 -31.7,101.6 l 641.19,1222.7 c 13.47,25.6 39.66,40.3 66.77,40.3 11.79,0 23.74,-2.8 34.91,-8.6 l 926.39,-485.6 c 10.99,-5.7 22.83,-8.5 34.58,-8.5 20.49,0 40.69,8.5 55.48,24.3 163.99,175.2 351.37,331.7 558.21,465.3 28.54,18.5 41.63,53.3 31.5,85.7 l -312.02,999.4 c -12.4,39.7 9.74,82 49.45,94.4 l 1317.73,411.4 c 7.47,2.3 15.03,3.4 22.47,3.4 32.08,0 61.82,-20.6 71.88,-52.9 l 312.02,-999.3 c 9.88,-31.7 39.25,-52.6 72.22,-52.6 0.81,0 1.63,0 2.45,0 32.17,1 64.27,1.5 96.33,1.5 213.26,0 423.76,-22.4 628.04,-66.5 5.44,-1.2 10.9,-1.8 16.29,-1.8 27.57,0 53.45,14.9 66.65,40.1 l 485.58,926.4 c 13.46,25.7 39.66,40.4 66.78,40.4 11.78,0 23.74,-2.8 34.9,-8.6 l 1222.41,-640.7 c 36.85,-19.3 51.05,-64.9 31.75,-101.7 l -485.53,-926.3 c -15.81,-30.2 -9.11,-66.9 15.79,-90.2 176.89,-165.1 333.5,-352.5 466.89,-558.3 14.26,-22 38.3,-34.8 63.44,-34.8 7.38,0 14.86,1.1 22.21,3.4 l 999.48,312 c 7.4,2.4 15,3.5 22.4,3.5 32.1,0 61.9,-20.7 71.9,-52.9 l 411.4,-1317.8 c 12.4,-39.7 -9.7,-81.9 -49.4,-94.3 l -999.4,-312 c -32.4,-10.1 -53.6,-40.7 -52.6,-74.7 7.8,-246.3 -14.2,-489.7 -64.8,-725.5 -7.1,-33.2 8.2,-67 38.3,-82.8 l 925.2,-486 c 36.8,-19.3 51,-64.8 31.7,-101.6 L 10435,8210.7 c -13.5,-25.7 -39.7,-40.4 -66.8,-40.4 -11.8,0 -23.8,2.8 -34.9,8.6 l -926.36,485.6 c -10.99,5.7 -22.84,8.5 -34.59,8.5 -20.52,0 -40.73,-8.5 -55.51,-24.3 -164.27,-175.9 -351.48,-333.2 -558.26,-467.4 -28.45,-18.4 -41.48,-53.2 -31.37,-85.6 l 311.45,-997.5 c 12.39,-39.8 -9.75,-82 -49.45,-94.4 l -201.42,-62.9 -84.87,487.5 -351.06,-54.5 33.23,-558.7 -522.62,-163.2 m -761.49,5416 c -424.27,0 -871.84,-204.7 -1213.79,-681.2 -4.4,-6.2 -8.03,-13.1 -10.57,-20.2 -399.64,-1118.7 363.87,-1958.8 1223.42,-1958.8 424.09,0 871.57,204.6 1214.23,681.1 4.44,6.1 8.09,13.1 10.64,20.2 398.84,1120.2 -364.98,1958.9 -1223.93,1958.9" /><g
         transform="scale(1.05519)"
         id="g36"><path
           id="path38"
           style="fill:#f5f5ff;fill-opacity:1;fill-rule:nonzero;stroke:none"
           d="m 13546,12644.7 c -14.2,0 -27.3,9.1 -31.8,23.3 l -137.1,439.4 c -4.4,14 -17.3,23.2 -31.9,23.2 -0.3,0 -0.6,0 -0.9,0 -13.3,-0.4 -26.5,-0.6 -39.5,-0.6 -95.1,0 -188.8,10.2 -279.7,30 -2.4,0.5 -4.8,0.8 -7.2,0.8 -12.2,0 -23.6,-6.5 -29.4,-17.6 l -213.9,-408.1 c -5.9,-11.3 -17.4,-17.8 -29.4,-17.8 -5.2,0 -10.5,1.3 -15.3,3.8 l -538.7,282.2 c -16.2,8.5 -22.5,28.6 -14,44.8 l 214.1,408.2 c 7,13.2 4,29.3 -6.8,39.6 -77.7,72.7 -146.5,154.9 -206,246.1 -6.3,9.6 -16.9,15.2 -27.8,15.2 -3.3,0 -6.6,-0.5 -9.8,-1.5 l -440.2,-137.5 c -3.3,-1 -6.6,-1.5 -9.9,-1.5 -14.2,0 -27.3,9.1 -31.6,23.3 l -181.4,580.9 c -5.5,17.5 4.3,36.1 21.8,41.5 l 440.2,137.5 c 14.1,4.4 23.5,17.7 23.1,32.6 -2.6,108.2 6.9,215.3 29.5,318.9 3.1,14.6 -3.6,29.6 -16.9,36.6 l -408.4,214.4 c -16.3,8.5 -22.6,28.6 -14.1,44.8 l 282.5,538.5 c 5.9,11.3 17.5,17.8 29.4,17.8 5.2,0 10.4,-1.2 15.4,-3.8 l 408.1,-213.9 c 4.8,-2.5 10,-3.7 15.1,-3.7 9.1,0 18,3.7 24.5,10.6 72.3,77.2 154.8,146.2 245.9,205 12.6,8.2 18.3,23.5 13.8,37.8 l -137.4,440.2 c -5.5,17.5 4.3,36.1 21.8,41.6 l 580.5,181.2 c 3.2,1 6.6,1.5 9.8,1.5 14.2,0 27.2,-9.1 31.7,-23.3 l 137.4,-440.2 c 4.4,-14 17.4,-23.2 31.9,-23.2 0.3,0 0.7,0 1,0 14.2,0.5 28.3,0.7 42.4,0.7 94,0 186.7,-9.9 276.7,-29.3 2.4,-0.5 4.8,-0.8 7.2,-0.8 12.1,0 23.6,6.6 29.4,17.7 l 213.9,408.1 c 5.8,11.3 17.4,17.7 29.3,17.7 5.3,0 10.6,-1.2 15.4,-3.8 l 538.5,-282.2 c 16.2,-8.5 22.4,-28.5 14,-44.8 l -213.9,-408 c -7,-13.3 -4,-29.5 6.9,-39.7 78,-72.7 146.9,-155.3 205.7,-245.9 6.3,-9.8 16.9,-15.4 27.9,-15.4 3.3,0 6.6,0.5 9.9,1.5 l 440.2,137.5 c 3.3,1 6.6,1.5 9.9,1.5 14.1,0 27.2,-9.1 31.7,-23.3 l 181.2,-580.5 c 5.4,-17.5 -4.4,-36.1 -21.8,-41.5 l -440.2,-137.5 c -14.3,-4.4 -23.6,-17.9 -23.2,-32.8 3.5,-108.5 -6.3,-215.7 -28.5,-319.6 -3.2,-14.6 3.6,-29.5 16.8,-36.5 l 407.5,-214.1 c 16.3,-8.5 22.5,-28.5 14.1,-44.7 l -282.3,-538.5 c -5.9,-11.3 -17.5,-17.8 -29.4,-17.8 -5.3,0 -10.5,1.2 -15.4,3.8 l -408.1,213.9 c -4.8,2.5 -10,3.7 -15.1,3.7 -9.1,0 -18,-3.7 -24.5,-10.7 -72.4,-77.5 -154.8,-146.8 -245.9,-205.9 -12.5,-8.1 -18.3,-23.4 -13.9,-37.7 l 137.3,-439.4 c 5.4,-17.5 -4.4,-36.1 -21.8,-41.5 l -580.5,-181.3 c -3.3,-1 -6.6,-1.5 -9.8,-1.5 m -241.5,2413.5 c -186.9,0 -384,-90.2 -534.6,-300.1 -2,-2.7 -3.6,-5.8 -4.7,-8.9 -176,-492.7 160.3,-862.8 538.9,-862.8 186.8,0 383.9,90.1 534.9,300 1.9,2.7 3.5,5.8 4.6,8.9 175.7,493.4 -160.7,862.9 -539.1,862.9" /></g><g
         transform="scale(1.01361)"
         id="g40"><path
           id="path42"
           style="fill:#cbcbff;fill-opacity:1;fill-rule:nonzero;stroke:none"
           d="m 6532.79,15804.5 -0.93,39.5 c 66.11,1.5 132.25,1.6 198.22,0.4 l -0.73,-39.5 c -65.4,1.2 -130.96,1.1 -196.56,-0.4 z m 588.85,-23.1 c -65.45,6.6 -131.37,11.9 -195.9,15.8 l 2.35,39.3 c 65.07,-3.9 131.51,-9.2 197.49,-15.8 z m -980.86,-2.3 -4.2,39.2 c 65.28,7 131.68,12.7 197.37,17 l 2.54,-39.4 c -65.13,-4.2 -130.97,-9.9 -195.71,-16.8 z m 1370.07,-52.2 c -64.79,11.7 -130.09,22.1 -194.08,31.1 l 5.47,39 c 64.5,-9 130.3,-19.5 195.58,-31.2 z m -1758.46,-6.3 -7.55,38.8 c 64.51,12.5 130.2,23.9 195.23,33.6 l 5.86,-39 c -64.48,-9.7 -129.58,-20.9 -193.54,-33.4 z m 2142.48,-77.4 c -63.44,16.3 -127.79,31.5 -191.24,45.4 l 8.4,38.5 c 63.94,-13.9 128.74,-29.3 192.64,-45.7 z m -2524.22,-14.5 -10.94,37.9 c 62.96,18.2 127.41,35.3 191.53,50.7 l 9.24,-38.4 c -63.56,-15.3 -127.44,-32.2 -189.83,-50.2 z m 2901.28,-96.6 c -62.33,20.7 -125.44,40.5 -187.58,58.8 l 11.13,37.9 c 62.59,-18.5 126.15,-38.4 188.9,-59.3 z m -3273.11,-29.3 -14.38,36.7 c 61.12,24 123.75,46.8 186.18,67.9 l 12.64,-37.4 c -61.84,-20.9 -123.91,-43.5 -184.44,-67.2 z m 3641.96,-107.1 c -60.64,24.7 -122.32,48.7 -183.28,71.2 l 13.68,37 c 61.39,-22.7 123.45,-46.8 184.48,-71.7 z m -4000.1,-53.3 -17.88,35.2 c 58.42,29.6 118.6,58.3 178.87,85.3 l 16.11,-36 c -59.67,-26.7 -119.27,-55.1 -177.1,-84.5 z m 4359.41,-106.6 c -58.81,28.4 -118.85,56.3 -178.43,82.8 l 16.03,36 c 59.97,-26.7 120.38,-54.7 179.55,-83.2 z m -4699.84,-88.6 -21.35,33.2 c 55.12,35.5 112.13,70.2 169.46,103 l 19.61,-34.2 c -56.75,-32.6 -113.17,-66.9 -167.72,-102 z m 5048.88,-92.9 c -57.43,32.1 -115.69,63.5 -173.19,93.4 l 18.23,35 c 57.83,-30.1 116.44,-61.7 174.19,-93.9 z m -5366.97,-136.7 -24.78,30.8 c 51.03,41.1 104.07,81.6 157.68,120.3 l 23.08,-32 c -53.03,-38.3 -105.51,-78.3 -155.98,-119.1 z m 5704.9,-64.9 c -55.31,35.1 -111.68,69.9 -167.56,103.2 l 20.24,33.9 c 56.18,-33.5 112.87,-68.5 168.51,-103.8 z m -5996.05,-198 -28.06,27.8 c 46.35,46.8 94.61,92.9 143.52,137 l 26.43,-29.3 c -48.35,-43.6 -96.09,-89.2 -141.89,-135.5 z m 6322.09,-22.4 c -53.03,38.1 -107.39,75.9 -161.48,112.5 l 22.13,32.7 c 54.35,-36.8 109.01,-74.8 162.35,-113.1 z m 313.8,-237.9 c -51.2,41 -103.4,81.8 -155.3,121.1 l 23.9,31.4 c 52.1,-39.5 104.6,-80.5 156,-121.7 z m -6895.58,-33.8 -31.03,24.4 c 40.7,51.8 83.45,103.1 127.1,152.5 l 29.56,-26.1 c -43.12,-48.8 -85.4,-99.6 -125.63,-150.8 z m 7197.48,-219.4 c -50,43.4 -100,86.1 -149.9,128.1 l 25.5,30.2 c 50,-42.1 100.1,-85 150.2,-128.5 z m -7421.48,-102.3 -33.65,20.6 c 34.58,56.4 71.14,112.2 108.64,166 l 32.37,-22.5 c -37.05,-53.2 -73.18,-108.4 -107.36,-164.1 z m 7717.08,-158.7 c -49.2,43.9 -98.3,87.7 -147.3,131 l 26,29.6 c 49.1,-43.4 98.3,-87.2 147.6,-131.2 z m 5282,-239.3 -29.2,26.5 c 31.4,34.7 62.5,69.7 93,104.9 l 29.8,-25.8 c -30.7,-35.4 -61.9,-70.6 -93.6,-105.6 z m -4986.9,-22.8 c -49.5,43.5 -98.7,87.2 -147.8,130.8 l 26.3,29.5 c 48.9,-43.6 98.1,-87.2 147.6,-130.7 z m 300,-257.4 c -50.6,42.1 -100.9,84.8 -150.9,127.7 l 25.8,30 c 49.8,-42.9 99.9,-85.4 150.4,-127.4 z m 4411,-4 -27.2,28.5 c 46.4,44.4 93.2,91.1 139.4,138.7 l 28.3,-27.5 c -46.5,-47.9 -93.7,-94.9 -140.5,-139.7 z m -4101.2,-242.3 c -50.4,38 -103.1,78.9 -156.3,121.3 l 24.5,30.9 c 51.4,-41 103.3,-81.3 155.6,-120.7 z m 3804.8,-20.5 -24.9,30.6 c 49.8,40.6 100.2,83.5 149.6,127.3 l 26.2,-29.5 c -49.8,-44.2 -100.5,-87.4 -150.9,-128.4 z m -3480.6,-207.4 c -53.5,34.8 -108.8,72.1 -164.1,111.1 l 22.7,32.3 c 54.9,-38.7 109.8,-75.8 162.9,-110.3 z m 3161.9,-28.2 -21.9,32.8 c 53.1,35.4 107.1,73.4 160.6,112.9 l 23.5,-31.7 c -54,-40 -108.6,-78.3 -162.2,-114 z m -2819.5,-172.1 c -57.1,29.6 -115.5,61.9 -173.7,96.1 l 20.1,34 c 57.5,-33.8 115.3,-65.8 171.7,-95.1 z m 2477.5,-28.8 -18,35.1 c 57,29.1 114.8,60.9 171.9,94.5 l 20,-34.1 c -57.7,-33.9 -116.2,-66.1 -173.9,-95.5 z m -2115.5,-133.2 c -60.6,22.7 -122.4,48 -183.6,75.5 l 16.2,36 c 60.4,-27.1 121.4,-52.2 181.2,-74.6 z m 1751,-24 -13.1,37.2 c 60.8,21.4 122.1,45.5 182.4,71.5 l 15.6,-36.2 c -61.1,-26.4 -123.3,-50.8 -184.9,-72.5 z m -1370.4,-88.3 c -64,13.8 -128.7,30.4 -192.4,49.3 l 11.1,37.8 c 63,-18.6 126.7,-34.9 189.5,-48.6 z m 987,-15.3 -7.4,38.8 c 63.4,11.9 127.5,26.7 190.8,43.8 l 10.3,-38.1 c -64.2,-17.4 -129.4,-32.3 -193.7,-44.5 z m -593.9,-38.4 c -65.7,3.7 -132.3,10.2 -197.6,19.1 l 5.3,39.1 c 64.4,-8.8 129.9,-15.1 194.6,-18.8 z m 198.8,-3.4 -0.9,39.4 c 64.9,1.6 130.5,5.8 195.2,12.7 l 4.1,-39.2 c -65.6,-7 -132.4,-11.4 -198.4,-12.9" /></g><g
         transform="scale(1.36483)"
         id="g44"><path
           id="path46"
           style="fill:#cbcbff;fill-opacity:1;fill-rule:nonzero;stroke:none"
           d="m -2152.8,-1153.63 159.96,-1161.38 C 1724.71,-1801.91 5027.61,-926.416 7824.72,287.141 10372.1,1392.26 12598.1,2821.97 14441.1,4536.4 l 10.3,9.67 1819.3,-1819.28 v 4287.43 l -1161.7,-9.6 C 13503.7,5518.5 9823.88,2432.32 7358.14,1362.52 4658.86,191.453 1458.96,-655.099 -2152.8,-1153.63 Z m 134.92,-1194.36 -167.95,1219.35 14.51,2.05 c 3615.08,497.939 6817.34,1344.42 9517.81,2516.07 2464.2,1069.07 6144.91,4157.01 7746.81,5640.49 l 4.1,3.81 5.7,0.07 1196.9,9.89 V 2656.01 L 14450.7,4505.33 C 12607.4,2792.95 10382,1364.64 7836.45,260.252 5033.23,-955.944 1722.66,-1832.83 -2003.36,-2346.01 l -14.52,-1.98" /></g><g
         transform="scale(1.33497)"
         id="g48"><path
           id="path50"
           style="fill:#7f81ff;fill-opacity:1;fill-rule:nonzero;stroke:none"
           d="m 16300,8194.95 h -4434.6 l 1690,-1690 C 11777.5,4858.54 9634.53,3486 7167.2,2415.56 4405.1,1217.18 1129.91,351.395 -2567.4,-157.831 l 167.62,-1217.029 C 1408.24,-850.356 4791.54,45.77 7656.13,1288.57 10267.4,2421.48 12538.1,3880.61 14424.7,5635.71 L 16300,3760.39 v 4434.56" /></g><g
         transform="scale(1.13337)"
         id="g52"><path
           id="path54"
           style="fill:#d28572;fill-opacity:1;fill-rule:nonzero;stroke:none"
           d="m 16300,15078.6 -27.1,-155.8 -8,-39.3 c -5,-84.8 -88.2,-139.3 -180,-190.5 l -141.6,263.8 74.6,254.6 135.8,39.6 127.7,-150.4 18.6,-22" /></g><g
         transform="scale(1.13337)"
         id="g56"><path
           id="path58"
           style="fill:#1b1b43;fill-opacity:1;fill-rule:nonzero;stroke:none"
           d="m 16300,15078.6 -27.1,-155.8 c -88.5,53 -138.2,129.8 -174.9,237.8 l 183.4,-60 18.6,-22" /></g><g
         transform="scale(1.14286)"
         id="g60"><path
           id="path62"
           style="fill:#d28572;fill-opacity:1;fill-rule:nonzero;stroke:none"
           d="m 16300,15287.6 c -27.3,-120.2 -2.9,-297.1 -53.3,-354.1 -45.9,-51.9 -131.6,-20.3 -181.9,7.1 -68.4,37.2 -122.8,93.9 -161.8,161 -90.6,156.5 38.6,260.8 38.6,260.8 l 167.8,72.6 190.6,-147.4" /></g><g
         transform="scale(1.15336)"
         id="g64"><path
           id="path66"
           style="fill:#1b1b43;fill-opacity:1;fill-rule:nonzero;stroke:none"
           d="m 15914.2,14994.2 c 4,66 -26.4,125 26.9,160.3 231.5,-89.8 215.1,-62.1 358.9,97.4 0,0 -74.1,-9 -143.8,42.7 -69.7,51.7 -265.2,209 -388.8,-38.2 0,0 -270.4,-83.9 -41.2,-358 26.2,55.4 120.3,72.6 188,95.8" /></g><g
         transform="scale(1.12759)"
         id="g68"><path
           id="path70"
           style="fill:#d28572;fill-opacity:1;fill-rule:nonzero;stroke:none"
           d="m 16300,15366 c 0,-36.4 -29.4,-65.9 -65.8,-65.9 -36.5,0 -65.9,29.5 -65.9,65.9 0,36.3 29.4,65.8 65.9,65.8 36.4,0 65.8,-29.5 65.8,-65.8" /></g><g
         transform="scale(1.24161)"
         id="g72"><path
           id="path74"
           style="fill:#d28572;fill-opacity:1;fill-rule:nonzero;stroke:none"
           d="m 16254.1,14138.6 c 22.2,-82.2 24.6,-165.1 16.7,-248.4 l 29.2,-256.8 -233.8,58.5 -12.6,177.4 c -58.4,58.5 -91.8,204.6 -96,210.9 l 296.5,58.4" /></g><g
         transform="scale(1.3063)"
         id="g76"><path
           id="path78"
           style="fill:#fe5b52;fill-opacity:1;fill-rule:nonzero;stroke:none"
           d="m 16300,13501.6 -372.8,-58.5 -1478.8,-231.4 -20.9,109.1 1459.7,331.2 368,83.5 44.8,-233.9" /></g><g
         transform="scale(1.3063)"
         id="g80"><path
           id="path82"
           style="fill:#1b1b43;fill-opacity:1;fill-rule:nonzero;stroke:none"
           d="m 16300,13501.6 -372.8,-58.5 -40,208.9 368,83.5 44.8,-233.9" /></g><g
         transform="scale(1.2238)"
         id="g84"><path
           id="path86"
           style="fill:#d28572;fill-opacity:1;fill-rule:nonzero;stroke:none"
           d="m 16300,14410 c 0,-17.5 -22.8,-31.7 -50.8,-31.7 -28.1,0 -50.9,14.2 -50.9,31.7 0,17.6 22.8,31.8 50.9,31.8 28,0 50.8,-14.2 50.8,-31.8" /></g><g
         transform="scale(1.22984)"
         id="g88"><path
           id="path90"
           style="fill:#d28572;fill-opacity:1;fill-rule:nonzero;stroke:none"
           d="m 16300,14368.7 c 0,-17.4 -22.7,-31.6 -50.6,-31.6 -27.9,0 -50.6,14.2 -50.6,31.6 0,17.5 22.7,31.6 50.6,31.6 27.9,0 50.6,-14.1 50.6,-31.6" /></g><g
         transform="scale(1.23667)"
         id="g92"><path
           id="path94"
           style="fill:#d28572;fill-opacity:1;fill-rule:nonzero;stroke:none"
           d="m 16300,14304 c 0,-17.4 -22.5,-31.5 -50.3,-31.5 -27.7,0 -50.3,14.1 -50.3,31.5 0,17.3 22.6,31.4 50.3,31.4 27.8,0 50.3,-14.1 50.3,-31.4" /></g><g
         transform="scale(1.22844)"
         id="g96"><path
           id="path98"
           style="fill:#d28572;fill-opacity:1;fill-rule:nonzero;stroke:none"
           d="m 16272.2,14155.2 c 0,-40.2 27.8,-73.9 -4.2,-73.9 -32.1,0 -63.3,21 -63.3,61.2 0,40.2 -41.6,93.8 -12.6,107.6 44.2,21.1 80.1,-54.7 80.1,-94.9" /></g><g
         transform="scale(1.24129)"
         id="g100"><path
           id="path102"
           style="fill:#1b1b43;fill-opacity:1;fill-rule:nonzero;stroke:none"
           d="m 16067.5,13733.7 222.8,24.3 9.7,-84.9 -232.5,60.6" /></g><g
         transform="scale(1.24713)"
         id="g104"><path
           id="path106"
           style="fill:#ffb147;fill-opacity:1;fill-rule:nonzero;stroke:none"
           d="m 16300,13588.2 c 0,0 0,-947.7 -537.7,-881.2 -34.9,4.3 -69.2,9.3 -102.7,15 -180.6,30.9 -336.2,79.8 -453,124.3 -144.6,54.9 -229.7,103.1 -229.7,103.1 l -195.6,576.6 c 390.1,-98.4 745.6,-209.1 1010.3,-351.8 l 174.2,502.8 334.2,-88.8" /></g><g
         transform="scale(1.19813)"
         id="g108"><path
           id="path110"
           style="fill:#1b1b43;fill-opacity:1;fill-rule:nonzero;stroke:none"
           d="m 16300,13242.3 c -188,32.1 -350,83 -471.5,129.4 l 11.5,163.7 c 230.1,-56.4 391.1,-188.6 460,-293.1" /></g><g
         transform="scale(1.20885)"
         id="g112"><path
           id="path114"
           style="fill:#bf8535;fill-opacity:1;fill-rule:nonzero;stroke:none"
           d="m 16300,12056 -513.2,281.6 -537.5,1616.6 c 510.9,-555.4 937.8,-1216.4 1050.7,-1898.2" /></g><g
         transform="scale(1.2639)"
         id="g116"><path
           id="path118"
           style="fill:#1b1b43;fill-opacity:1;fill-rule:nonzero;stroke:none"
           d="m 15731.7,9230.03 -52,-574.21 h 620.3 l -235.7,270.7 10.4,344.52 -343,-41.01" /></g><g
         transform="scale(1.2465)"
         id="g120"><path
           id="path122"
           style="fill:#ffffff;fill-opacity:1;fill-rule:nonzero;stroke:none"
           d="m 16175.4,8919.83 -23,24.05 124.6,119.22 23,-24.04 -124.6,-119.23" /></g><g
         transform="scale(1.26042)"
         id="g124"><path
           id="path126"
           style="fill:#5254cf;fill-opacity:1;fill-rule:nonzero;stroke:none"
           d="m 14666.6,11747.8 94.6,-534.7 867.8,-411.2 V 9066.27 l 625.1,63.07 40.3,1560.36 c 5.6,262.6 -121.1,510.4 -337.3,659.6 l -649,447.8" /></g><g
         transform="scale(1.17694)"
         id="g128"><path
           id="path130"
           style="fill:#1b1b43;fill-opacity:1;fill-rule:nonzero;stroke:none"
           d="m 16120.8,12076 c 93.6,-100 155.2,-202 179.2,-299.5 l -212.9,99.8 33.7,199.7" /></g><g
         transform="scale(1.14553)"
         id="g132"><path
           id="path134"
           style="fill:#d28572;fill-opacity:1;fill-rule:nonzero;stroke:none"
           d="m 16295.5,15059 c -4.8,-12.9 -28.1,-32.1 -59.6,-28.3 -24.4,3 -49.6,45.1 -49.6,75.8 0,30.7 19.9,55.7 44.6,55.7 36.7,0 69.1,-91.1 64.6,-103.2" /></g><g
         transform="scale(1.135)"
         id="g136"><path
           id="path138"
           style="fill:#1b1b43;fill-opacity:1;fill-rule:nonzero;stroke:none"
           d="m 15717.1,10221.9 -144.8,-584.6 h 727.7 l -243.8,287.73 30.5,292.27 -369.6,4.6" /></g><g
         transform="scale(1.11896)"
         id="g140"><path
           id="path142"
           style="fill:#ffffff;fill-opacity:1;fill-rule:nonzero;stroke:none"
           d="m 16171.5,9915.78 -27.2,25.16 128.5,138.96 27.2,-25.1 -128.5,-139.02" /></g><g
         transform="scale(1.16814)"
         id="g144"><path
           id="path146"
           style="fill:#5254cf;fill-opacity:1;fill-rule:nonzero;stroke:none"
           d="m 16300,12715.8 c -75.9,-946.4 -318.5,-1952.6 -545.8,-2986.56 l -647.9,8.88 c 245.8,1098.18 348,2110.48 328.4,2982.08 l 865.3,-4.4" /></g><g
         transform="scale(1.18372)"
         id="g148"><path
           id="path150"
           style="fill:#ffffff;fill-opacity:1;fill-rule:nonzero;stroke:none"
           d="m 15573.1,14250.5 c -58.5,-78.3 -168.6,-37.8 -308,70.1 L 15503,12382 c 266.1,21.6 531.7,86.3 797,179.5 l -726.9,1689" /></g><g
         transform="scale(1.14671)"
         id="g152"><path
           id="path154"
           style="fill:#ffb147;fill-opacity:1;fill-rule:nonzero;stroke:none"
           d="m 16280.9,12499.8 -765.7,-337.4 c -72.3,886 -216.9,1464.7 -280.3,2169.9 -25.2,282.1 523,450.6 523,450.6 214.5,-261.1 355.9,-579.7 439,-943.9 29.3,-128.4 51.4,-262.6 67,-402.2 32.5,-291.5 36.1,-605.4 17,-937" /></g><g
         transform="scale(1.21076)"
         id="g156"><path
           id="path158"
           style="fill:#ffb147;fill-opacity:1;fill-rule:nonzero;stroke:none"
           d="m 15225.3,13932.2 c 485.6,-640.1 874,-1274.2 1049,-1895.2 25.7,663.6 -444.1,1410.4 -1049,1895.2" /></g><g
         transform="scale(1.19813)"
         id="g160"><path
           id="path162"
           style="fill:#d28572;fill-opacity:1;fill-rule:nonzero;stroke:none"
           d="m 15877.6,14239 54.1,141 c 0,0 -48.5,165.6 -2.5,186.2 46,20.5 203.5,49.4 243.3,52.4 39.7,3 95.9,66.1 111.6,57.8 15.9,-8.3 0,-125.5 -73.7,-132.9 0,0 -14.6,-237 -85.8,-225.2 l -56,-217.1 -191,137.8" /></g><g
         transform="scale(1.14417)"
         id="g164"><path
           id="path166"
           style="fill:#1b1b43;fill-opacity:1;fill-rule:nonzero;stroke:none"
           d="m 16300,13466.7 c -251.5,9.4 -564,180.5 -732.2,408.1 l 665.1,-5.1 c 29.3,-128.7 51.5,-263.1 67.1,-403" /></g><g
         transform="scale(1.18754)"
         id="g168"><path
           id="path170"
           style="fill:#ffb147;fill-opacity:1;fill-rule:nonzero;stroke:none"
           d="m 14981.7,13878.7 554.5,-187.7 458.3,702.8 305.5,-196.4 c 0,0 -288.1,-1152.4 -803.2,-1043.3 -467.5,99.1 -576.1,257.6 -576.1,257.6 l 61,467" /></g><g
         transform="scale(1.16571)"
         id="g172"><path
           id="path174"
           style="fill:#1b1b43;fill-opacity:1;fill-rule:nonzero;stroke:none"
           d="m 15830.1,13939 -570,193 4.6,13.4 559.5,-189.4 463.9,711.3 11.9,-7.8 -469.9,-720.5" /></g><g
         transform="scale(1.18293)"
         id="g176"><path
           id="path178"
           style="fill:#1b1b43;fill-opacity:1;fill-rule:nonzero;stroke:none"
           d="m 16084.7,14432.4 215.3,-54.3 -18.1,-72.3 -197.2,126.6" /></g><path
         id="path180"
         style="fill:#1b1b43;fill-opacity:1;fill-rule:nonzero;stroke:none"
         d="m 13520.7,4883.1 61.5,-599.7 907.8,185.2 -472.8,242.5 -146.6,286.6 -349.9,-114.6" /><path
         id="path182"
         style="fill:#ffffff;fill-opacity:1;fill-rule:nonzero;stroke:none"
         d="m 13982.8,4569.7 -35.3,13.7 52,134.5 35.3,-13.6 -52,-134.6" /><path
         id="path184"
         style="fill:#fe5b52;fill-opacity:1;fill-rule:nonzero;stroke:none"
         d="m 14048.4,4912.7 -646.1,-183.5 c -132,954.7 -193.3,1943.1 -321.9,2819.6 -15.9,109.7 -32.9,217.5 -51.4,323.4 l -23.1,60.1 -127.9,334 226.2,84.4 525.1,195.2 c 19.6,-80.2 38.6,-165 56.7,-254.2 174.8,-862.8 269.3,-2116 362.4,-3379" /><path
         id="path186"
         style="fill:#be443d;fill-opacity:1;fill-rule:nonzero;stroke:none"
         d="m 13861.1,4997.4 c -34.7,967.2 -98.3,2192.9 -283.5,3093.5 l 18.6,3.8 c 185.4,-902 249.1,-2128.7 283.9,-3096.6 l -19,-0.7" /><path
         id="path188"
         style="fill:#1b1b43;fill-opacity:1;fill-rule:nonzero;stroke:none"
         d="m 12263,4652.2 -28.4,-387.7 -226.9,-704.5 633.6,453.9 37.8,742.3 -416.1,-104" /><path
         id="path190"
         style="fill:#ffffff;fill-opacity:1;fill-rule:nonzero;stroke:none"
         d="m 12374.6,4135.9 -151.3,113.5 22.7,30.3 151.3,-113.5 -22.7,-30.3" /><path
         id="path192"
         style="fill:#fe5b52;fill-opacity:1;fill-rule:nonzero;stroke:none"
         d="m 13104.6,8373.4 c 0,-7.6 0,-15.2 -0.4,-22.7 -0.3,-127.9 -2.6,-254.2 -6.4,-379 -3.8,-142.6 -9.8,-283.4 -17.4,-422.9 -54.8,-1039.1 -196.7,-2002.2 -325.7,-3005.3 l -635.1,-60.9 c 104.8,1216.1 178.2,2277.5 163.8,3206.5 -3,189.5 -9.8,373.3 -20.4,551.9 l 841.6,132.4" /><path
         id="path194"
         style="fill:#1b1b43;fill-opacity:1;fill-rule:nonzero;stroke:none"
         d="m 13058.6,7108.9 -15.1,0.9 44.1,687.2 15.1,-1 -44.1,-687.1" /><path
         id="path196"
         style="fill:#be443d;fill-opacity:1;fill-rule:nonzero;stroke:none"
         d="m 12310.2,4738.3 -18.8,1.3 c 68,982.8 145.1,2096.7 113.4,3126 l 19,0.6 c 31.6,-1030.3 -45.5,-2144.7 -113.6,-3127.9" /><path
         id="path198"
         style="fill:#be443d;fill-opacity:1;fill-rule:nonzero;stroke:none"
         d="m 13686,8291.7 c -171,-116.9 -367.3,-223.6 -588.2,-320 -30.3,-13.7 -60.9,-26.5 -91.9,-39.4 -218.6,-90 -459.6,-171.3 -722.5,-243.2 -3,189.5 -9.8,373.3 -20.4,551.9 l 841.6,132.4 c 0,-7.6 0,-15.2 -0.4,-22.7 l 525.1,195.2 c 19.6,-80.2 38.6,-165 56.7,-254.2" /><path
         id="path200"
         style="fill:#ffbc96;fill-opacity:1;fill-rule:nonzero;stroke:none"
         d="m 10327.9,10815.7 -104.9,215.9 c -7.6,15.5 -13.3,31.7 -16.9,48.6 -11.4,52.3 -41.7,171.6 -79.1,152.9 -26.5,-13.2 -4.5,-205.4 -4.5,-205.4 0,0 -128.04,344.5 -170,324.7 -41.95,-19.9 72.9,-342.3 72.9,-342.3 0,0 -212.02,-90.6 -125.9,-231.9 86.13,-141.3 260.6,-189.9 260.6,-189.9 l 167.8,227.4" /><path
         id="path202"
         style="fill:#d28572;fill-opacity:1;fill-rule:nonzero;stroke:none"
         d="m 10004.6,10904.5 c 21.7,-26.2 52.1,-62.3 87.7,-69.2 15.7,-3 26.1,6.1 25.6,22 -0.5,20.1 -12.5,41.2 -21.6,58.6 -8.8,17 -18.3,34.6 -29.9,50 -7.2,9.6 -23.6,0.2 -16.3,-9.6 17.4,-23.1 32.5,-51 43,-78 2.3,-6.1 5.5,-13.2 5.8,-19.8 0.2,-7.2 1.8,-5.1 -4.4,-4.2 -29.9,4.1 -58.7,42.1 -76.5,63.5 -7.8,9.4 -21.12,-4 -13.4,-13.3" /><path
         id="path204"
         style="fill:#d28572;fill-opacity:1;fill-rule:nonzero;stroke:none"
         d="m 9957.3,10852.5 c 21.66,-26.2 52.1,-62.4 87.7,-69.2 15.7,-3 26.1,6.1 25.7,21.9 -0.6,20.2 -12.6,41.3 -21.7,58.7 -8.8,17 -18.3,34.6 -29.8,50 -7.3,9.6 -23.69,0.2 -16.4,-9.6 17.4,-23.1 32.6,-51 43,-78 2.3,-6.1 5.5,-13.2 5.8,-19.8 0.3,-7.2 1.8,-5.1 -4.4,-4.2 -29.9,4.1 -58.73,42 -76.53,63.5 -7.76,9.4 -21.08,-4 -13.37,-13.3" /><path
         id="path206"
         style="fill:#d28572;fill-opacity:1;fill-rule:nonzero;stroke:none"
         d="m 9904.87,10812.7 c 19.53,-22.9 46.25,-53.4 77.6,-59.6 14.64,-2.9 24.73,5.5 24.13,20.5 -0.7,17.8 -11.48,36.4 -19.73,51.7 -7.68,14.3 -15.81,28.9 -25.73,41.8 -7.33,9.5 -23.76,0.1 -16.33,-9.6 15.19,-19.6 28.49,-43.4 37.68,-66.5 2.15,-5.4 4.24,-11 5.16,-16.7 0.82,-5.2 2.76,-3.6 -2.61,-2.4 -26.88,6.2 -49.8,34.2 -66.8,54.2 -7.89,9.3 -21.21,-4.1 -13.37,-13.4" /><path
         id="path208"
         style="fill:#5254cf;fill-opacity:1;fill-rule:nonzero;stroke:none"
         d="m 13464,8242.5 -961.6,-248.1 c -147.1,-38.2 -293.9,61.6 -312.8,212.2 l -110.1,876.4 -28.7,228.8 -8.3,67 472.8,813.3 323,132.7 773.9,-334.4 104.8,-1394.2 c 12.1,-163.8 -94.2,-312.5 -253,-353.7" /><path
         id="path210"
         style="fill:#1b1b43;fill-opacity:1;fill-rule:nonzero;stroke:none"
         d="m 12231.6,9309.6 c -33.3,-99.5 -85.9,-172.5 -152.1,-226.6 l -28.7,228.8 180.8,-2.2" /><path
         id="path212"
         style="fill:#5254cf;fill-opacity:1;fill-rule:nonzero;stroke:none"
         d="m 12452.1,9360 c -706.1,-390.9 -1670.6,208 -2420.9,1204.1 l 334.2,321.6 c 819.1,-874.7 1462.6,-1251.5 2282.2,-580 L 12452.1,9360" /><path
         id="path214"
         style="fill:#5254cf;fill-opacity:1;fill-rule:nonzero;stroke:none"
         d="m 14311.6,9072.1 c 394.1,82.8 -220,726 -576,1063.5 -139.1,131.9 -325,202.9 -516.7,198.3 l -380.4,-9.1 1204.3,-1188.2 268.8,-64.5" /><path
         id="path216"
         style="fill:#ffbc96;fill-opacity:1;fill-rule:nonzero;stroke:none"
         d="m 13937.3,9136.9 c -18.8,-39 -15.5,-74.8 14.6,-107.6 37.6,-41 87.8,-90.7 147.7,-87.8 49.7,2.5 87.6,-51.3 138,-22.4 41.3,23.6 61.2,77.6 75.8,120.2 27.1,79.2 14.3,161.2 -56,213.1 -64.2,47.4 -153.1,84.8 -228.4,39.4 -27.1,-16.4 -48.2,-41.3 -62.7,-69.2 -9.3,-18 -11.7,-37.9 -17.2,-57.1 -2.9,-10.2 -7.4,-19.5 -11.8,-28.6" /><path
         id="path218"
         style="fill:#1b1b43;fill-opacity:1;fill-rule:nonzero;stroke:none"
         d="m 12801.5,9896.4 c -74.9,0 -158.5,18.5 -251.3,55.5 l 5.6,14 c 249.6,-99.4 430.2,-62.1 552.1,114 l 12.4,-8.6 c -80.8,-116.8 -186.2,-174.9 -318.8,-174.9" /><path
         id="path220"
         style="fill:#1b1b43;fill-opacity:1;fill-rule:nonzero;stroke:none"
         d="m 13634.2,9703.6 12.6,-176.5 82,-85.1 c 18.9,69.3 -34.7,185.9 -94.6,261.6" /><path
         id="path222"
         style="fill:#1b1b43;fill-opacity:1;fill-rule:nonzero;stroke:none"
         d="m 13299.8,9603.7 c -15.9,0 -30.9,-7.8 -37.7,-19.7 -15.6,-27.1 -0.6,-63 22.2,-80.8 2.7,-2.1 5.6,-4.1 8.6,-6 8,9 15.5,18.5 22.4,28.4 12,17.3 24.3,41.9 15.2,61.4 -6.7,14.2 -22.3,16.4 -28.7,16.7 z m -344.2,-74.7 c -11.7,0 -24,-5.1 -31.9,-14.7 -12.2,-14.7 -14.7,-38.5 -6.3,-59.1 6.1,-14.7 15.9,-26.1 27.3,-34.9 l 2,1.8 c 14.9,13.3 31.5,29.2 39,49.2 6.2,16.7 4.8,39.7 -10.1,51.3 -5.6,4.4 -12.6,6.4 -20,6.4 z m -387.4,-90.1 c -3.8,0 -7.9,-0.6 -12,-1.8 -13.4,-3.9 -24.9,-13.6 -30,-25.5 -9.6,-22.2 -2.2,-51.9 17.9,-72.2 6.1,-6.2 13.3,-11.7 21.6,-16.5 4.5,4.7 8.8,9.6 13,14.8 14.6,18.1 22.8,34.5 25,50.1 2.3,15.5 -2.1,35.6 -16.9,45.6 -5.4,3.7 -11.7,5.5 -18.6,5.5 z m -333.9,-238.7 c -22.8,0 -45.5,0.5 -68,0.9 l 0.4,18.9 c 73.8,-1.4 150.3,-3.1 223.6,12.4 47.7,10 111,31.4 161.4,76.9 -7.9,4.9 -14.9,10.5 -21.1,16.8 -25.8,26.1 -34.5,63.4 -21.8,93 7.4,17.1 23.1,30.7 42.1,36.2 16.7,4.8 33.6,2.5 46.5,-6.2 18.9,-12.9 28.8,-38 25.1,-63.9 -2.8,-19.1 -12.3,-38.5 -29.1,-59.4 -3.2,-3.9 -6.5,-7.8 -9.8,-11.5 10.7,-4.2 22.7,-7.5 35.9,-9.9 97.8,-17.9 210,19.8 310.7,103.5 -13.6,11.2 -23.9,24.8 -30.3,40.1 -11.2,27.4 -7.6,58.1 9.3,78.4 19.3,23.4 55.8,28.5 78,11.1 23.1,-18 24.6,-50.4 16.1,-72.9 -8.5,-22.9 -25.9,-40.3 -42,-54.8 27.8,-14.5 59.2,-18.2 72.2,-19.1 90.3,-6.4 182,29 246.1,92.6 -2.4,1.6 -4.7,3.2 -6.9,5 -29.7,23.1 -47.9,68.7 -27,105.1 10.7,18.7 33,30.4 56.9,29.2 20.5,-0.9 37.4,-11.2 45,-27.6 10.3,-21.9 4.5,-49.6 -16.8,-80.2 -6.3,-9.1 -13.1,-17.8 -20.3,-26.2 18.3,-7.1 40.1,-10 67.3,-10 102.6,1.4 205,52.9 267.2,134.4 l 15.1,-11.5 c -65.7,-86 -173.8,-140.4 -282.1,-141.8 -32.7,-0.1 -59.2,4.2 -81.1,14.1 -68.2,-69.7 -167.1,-109.2 -264.7,-101.9 -33.6,2.3 -62.9,11 -85.9,24.7 -106,-89.6 -225.6,-129.9 -330.2,-110.8 -17.5,3.2 -33.1,7.9 -46.8,14 -54.2,-51.4 -123.4,-75 -175.1,-85.9 -52.8,-11.2 -106.6,-13.7 -159.9,-13.7" /><path
         id="path224"
         style="fill:#1b1b43;fill-opacity:1;fill-rule:nonzero;stroke:none"
         d="m 12921.5,10847.4 c 0,-176.2 -175.6,-468.3 -351.8,-468.3 -176.2,0 -287.3,165.5 -259.7,339.5 26.6,167.7 147.3,288.4 304.7,302.7 131,11.9 306.8,-38.9 306.8,-173.9" /><path
         id="path226"
         style="fill:#ffbc96;fill-opacity:1;fill-rule:nonzero;stroke:none"
         d="m 12945.7,10231.4 c 0,-66.2 -41.9,-127.9 -108.1,-150.6 -82.5,-28.3 -172.5,15.2 -201.6,97.6 -43.9,123.7 -98.8,280.7 -98.8,286.4 l 163.1,6.4 170.9,6.4 57.9,-171.3 8,-23.5 c 5.6,-17 8.6,-34.4 8.6,-51.4" /><path
         id="path228"
         style="fill:#1b1b43;fill-opacity:1;fill-rule:nonzero;stroke:none"
         d="m 12929.1,10306.3 c -82.8,0 -197.4,32.1 -319.2,100.2 l 90.4,64.7 170.9,6.4 57.9,-171.3" /><path
         id="path230"
         style="fill:#ffbc96;fill-opacity:1;fill-rule:nonzero;stroke:none"
         d="m 12846.1,10907.7 c 154.5,-236.4 372,-598.9 -236.4,-501.2 l -103.2,101.7 7.1,333.3 332.5,66.2" /><path
         id="path232"
         style="fill:#1b1b43;fill-opacity:1;fill-rule:nonzero;stroke:none"
         d="m 12582,10565.2 c -33,64.2 -34.3,134.6 -16.4,208.6 135.7,-5.2 259.8,22.5 333.4,104.3 l -79.8,67.5 -267.9,-18.4 -130.9,-145.2 -30.6,-194.3 192.2,-22.5" /><path
         id="path234"
         style="fill:#1b1b43;fill-opacity:1;fill-rule:nonzero;stroke:none"
         d="m 12386.7,10555.3 c -20.8,-116.9 -132.4,-194.6 -249.2,-173.8 -116.8,20.8 -194.6,132.4 -173.8,249.3 20.9,116.8 132.5,194.6 249.3,173.7 116.8,-20.8 194.6,-132.4 173.7,-249.2" /><path
         id="path236"
         style="fill:#ffbc96;fill-opacity:1;fill-rule:nonzero;stroke:none"
         d="m 12627.1,10534.2 c 0,-50.9 -41.3,-92.2 -92.2,-92.2 -51,0 -92.2,41.3 -92.2,92.2 0,50.9 41.2,92.2 92.2,92.2 50.9,0 92.2,-41.3 92.2,-92.2" /><path
         id="path238"
         style="fill:#1b1b43;fill-opacity:1;fill-rule:nonzero;stroke:none"
         d="m 8634.15,3132.2 -33.58,-578.3 889.43,36.6 -411.31,302.5 -95.12,294.3 -349.42,-55.1" /><path
         id="path240"
         style="fill:#ffffff;fill-opacity:1;fill-rule:nonzero;stroke:none"
         d="m 8917.13,2743.9 -22.36,28.7 172.73,134.7 22.36,-28.7 -172.73,-134.7" /><path
         id="path242"
         style="fill:#ffb147;fill-opacity:1;fill-rule:nonzero;stroke:none"
         d="m 9167.93,3002.1 29.41,1764.5 c 4.1,246 -155.83,464.9 -391.56,535.7 l -1264.17,380 -495.16,18.2 158.99,-944.9 1176.58,-254.4 118.11,-1499.1 h 667.8" /><path
         id="path244"
         style="fill:#bf8535;fill-opacity:1;fill-rule:nonzero;stroke:none"
         d="m 7343.39,4930.4 c 99.43,-25.6 202.79,-120.6 228.88,-254.3 l -183.98,40.8 -44.9,213.5" /><path
         id="path246"
         style="fill:#1b1b43;fill-opacity:1;fill-rule:nonzero;stroke:none"
         d="m 7323.55,2375.1 86.32,-236.2 -9.09,-377 613.28,199.8 -263.48,249.9 -81.78,313.4 -345.25,-149.9" /><path
         id="path248"
         style="fill:#ffffff;fill-opacity:1;fill-rule:nonzero;stroke:none"
         d="m 7437.1,2115.2 -9.04,35.2 283.16,72.7 9.05,-35.2 -283.17,-72.7" /><path
         id="path250"
         style="fill:#ffb147;fill-opacity:1;fill-rule:nonzero;stroke:none"
         d="m 7836.89,2461.5 -617.82,-199.9 c -406.31,757.7 -659.61,1715.3 -918.01,3044.7 -25.44,132.3 -51.24,268.2 -77.05,407.8 l 496.44,117.4 425.94,100.6 37.43,-188.9 73.41,-368.5 579.66,-2913.2" /><path
         id="path252"
         style="fill:#1b1b43;fill-opacity:1;fill-rule:nonzero;stroke:none"
         d="m 7317.2,2371.6 c -317.36,573.5 -595.23,1450.3 -874.49,2759.5 l 14.24,3 c 278.93,-1307.6 556.33,-2183.2 872.96,-2755.4 l -12.71,-7.1" /><path
         id="path254"
         style="fill:#e59f40;fill-opacity:1;fill-rule:nonzero;stroke:none"
         d="m 7257.23,5374.7 v 0 l -39.28,197.1 c 91.3,-7.2 178.16,-11.4 259.88,-12.2 96.19,5.9 162.68,30.6 202.62,78 -62.43,-121.2 -218.37,-207.4 -423.22,-262.9" /><path
         id="path256"
         style="fill:#e59f40;fill-opacity:1;fill-rule:nonzero;stroke:none"
         d="m 6573.69,5296.3 c -90.86,0 -182.37,3.4 -272.63,10 v 0 c -16.3,84.8 -32.75,171 -49.25,258.8 l 153.55,-166.1 262.18,239.7 c 195.65,-30.2 380.68,-53.6 550.41,-66.9 l 39.28,-197.1 v 0 c -196.42,-53.4 -437.46,-78.4 -683.54,-78.4" /><path
         id="path258"
         style="fill:#d28572;fill-opacity:1;fill-rule:nonzero;stroke:none"
         d="m 8661.41,7349.5 -70.42,161.3 c 0,0 20.69,266.9 -172.97,267.5 -18.31,0.1 -36.35,-4.8 -52.3,-13.8 -31.3,-17.6 -86.18,-53.8 -111.94,-102.4 -20.83,-39.4 -12.28,-87.9 18.88,-119.7 l 95.73,-97.5 24.23,-114.3 268.79,18.9" /><path
         id="path260"
         style="fill:#cbcbff;fill-opacity:1;fill-rule:nonzero;stroke:none"
         d="m 7340.21,7622.1 204.06,-48.8 c 231.3,-55.4 447.88,-198.7 619.7,-363.1 l 302.85,-296.8 12.12,-666.3 -781.36,678.4 -357.37,696.6" /><path
         id="path262"
         style="fill:#cbcbff;fill-opacity:1;fill-rule:nonzero;stroke:none"
         d="m 8712.74,6201.1 c -2.91,-1.1 -5.82,-1.5 -8.73,-2.2 l -37.43,-7.6 c -10.53,-2.2 -20.71,-3.3 -31.25,-3.7 -105.03,-6.5 -201.71,65.8 -223.14,171.9 l -60.33,1014.4 351.06,54.5 134.84,-774.5 12.35,-72.3 22.53,-128.7 c 22.9,-113.7 -47.97,-224.6 -159.9,-251.8" /><path
         id="path264"
         style="fill:#1b1b43;fill-opacity:1;fill-rule:nonzero;stroke:none"
         d="m 7900.11,6963 -21.2,-195 133.25,-113.9 c 6.06,102.9 -34.66,217.1 -112.05,308.9" /><path
         id="path266"
         style="fill:#8284e2;fill-opacity:1;fill-rule:nonzero;stroke:none"
         d="m 8635.33,6187.6 c -26.17,46.2 -40.71,99.2 -40.71,155.6 0,150.1 103.58,276.2 243.14,310.7 l 12.35,-72.3 c -105.39,-28 -182.8,-124.3 -182.8,-238.4 0,-52.7 16.72,-102.1 45.43,-142.1 -2.91,-1.1 -5.82,-1.5 -8.73,-2.2 l -37.43,-7.6 c -10.53,-2.2 -20.71,-3.3 -31.25,-3.7 v 0" /><path
         id="path268"
         style="fill:#cbcbff;fill-opacity:1;fill-rule:nonzero;stroke:none"
         d="m 7945.92,7199.8 -111.57,-732.3 -11.27,-72.4 -74.14,-485.5 -10.9,-72.7 -14.9,-97.7 c -17.45,-115.2 -95.22,-170.5 -245.31,-179.6 -344.53,3.3 -780.64,68 -1253.82,154.5 l 39.62,169.3 16.36,71.3 112.29,480.1 16.36,71.6 192.61,824.9 542.23,306 196.61,-15.2 605.83,-422.3" /><path
         id="path270"
         style="fill:#1b1b43;fill-opacity:1;fill-rule:nonzero;stroke:none"
         d="m 7308.92,7248 c -11.97,0 -23.98,0.6 -36.03,1.8 -112.84,11.6 -206.82,74.7 -264.58,177.9 l 12.67,7.1 c 55.4,-98.9 145.39,-159.4 253.39,-170.5 101.76,-10.3 202.22,25.8 261.74,94.5 l 11,-9.5 C 7491.6,7285.2 7402.65,7248 7308.92,7248" /><path
         id="path272"
         style="fill:#1b1b43;fill-opacity:1;fill-rule:nonzero;stroke:none"
         d="m 6461.94,6743.8 102.97,151.4 c 45.41,-143 2.58,-241 -133.25,-291.5 l 30.28,140.1" /><path
         id="path274"
         style="fill:#8284e2;fill-opacity:1;fill-rule:nonzero;stroke:none"
         d="m 7738.04,5836.9 c -139.56,34.6 -243.5,161 -243.5,311.1 0,176.6 143.91,320.2 320.55,320.2 6.54,0 13.08,-0.4 19.26,-0.7 l -11.27,-72.4 c -2.55,0.4 -5.46,0.4 -7.99,0.4 -136.65,0 -247.86,-111.2 -247.86,-247.5 0,-113.7 77.04,-209.7 181.71,-238.4 l -10.9,-72.7" /><path
         id="path276"
         style="fill:#8284e2;fill-opacity:1;fill-rule:nonzero;stroke:none"
         d="m 6525.51,5919.2 -44.37,58 c 72.76,43.2 121.57,122.5 121.57,213 0,123.9 -91.23,227.1 -210.43,244.6 l 16.36,71.6 c 151.18,-25.9 266.75,-157.8 266.75,-316.2 0,-113.9 -59.88,-214.2 -149.88,-271" /><path
         id="path278"
         style="fill:#d28572;fill-opacity:1;fill-rule:nonzero;stroke:none"
         d="m 6549.46,5707 118.85,-129.8 c 0,0 252.39,-89.3 174.38,-266.6 -7.38,-16.8 -19.14,-31.3 -33.83,-42.2 -28.82,-21.5 -84.16,-56.9 -139.05,-60.8 -44.38,-3.1 -85.3,24.5 -101.68,65.8 l -50.32,127.1 -94.68,68.5 126.33,238" /><path
         id="path280"
         style="fill:#cbcbff;fill-opacity:1;fill-rule:nonzero;stroke:none"
         d="m 6177.14,6374.4 533.14,-696.7 -304.92,-278.7 -556.4,601.8 c -27.62,30.2 -51.24,62.5 -70.5,97.1 -11.99,21.4 -22.16,43.6 -30.52,66.1 -52.7,137.4 -44.34,293.7 29.07,426.7 4.35,8.3 9.09,16.3 14.17,24.3 l 23.26,37.5 267.84,429.2 c 145.37,232.5 375.05,400.1 640.72,467.7 l 441.55,111.9 -987.41,-1286.9" /><path
         id="path282"
         style="fill:#1b1b43;fill-opacity:1;fill-rule:nonzero;stroke:none"
         d="m 6707.81,5675.9 -533.02,696.5 4.94,3.8 533.01,-696.6 -4.93,-3.7" /><path
         id="path284"
         style="fill:#8284e2;fill-opacity:1;fill-rule:nonzero;stroke:none"
         d="m 5778.46,6097.9 v 0 c -11.99,21.4 -22.16,43.6 -30.52,66.1 81.76,40.3 137.73,124.3 137.73,221.7 0,85.4 -43.25,160.3 -108.66,205 4.35,8.3 9.09,16.3 14.17,24.3 l 23.26,37.5 c 86.86,-57.1 143.92,-155.2 143.92,-266.8 0,-126.5 -73.42,-235.9 -179.9,-287.8" /><path
         id="path286"
         style="fill:#d28572;fill-opacity:1;fill-rule:nonzero;stroke:none"
         d="m 7510.54,7771.1 -2.91,-10.9 -48.34,-171.9 -13.08,-46.6 c -29.8,-105 -145,-182 -245.67,-107.2 -75.23,56 -125.02,170.1 -96.31,258.8 0.73,2.2 90.85,282.4 90.85,282.4 l 315.46,-204.6" /><path
         id="path288"
         style="fill:#1b1b43;fill-opacity:1;fill-rule:nonzero;stroke:none"
         d="m 7507.63,7760.2 -48.34,-171.9 c -102.48,51.9 -168.99,155.9 -219.87,283.8 l 268.21,-111.9" /><path
         id="path290"
         style="fill:#d28572;fill-opacity:1;fill-rule:nonzero;stroke:none"
         d="m 7643.82,8110.4 c 22.71,-161.3 65.87,-352.1 -134.01,-392.9 -131.09,-26.9 -357.37,154.7 -357.37,319.5 0,164.7 169.08,287.8 302.85,284.7 193.07,-4.6 155.27,24.9 188.53,-211.3" /><path
         id="path292"
         style="fill:#1b1b43;fill-opacity:1;fill-rule:nonzero;stroke:none"
         d="m 7194.84,8023.3 c -4.96,64.2 -0.19,122.9 42.4,160.5 137.64,-19.3 287.34,-7.6 439.14,28.8 3.22,0.8 -3.23,41.3 -3.71,44.1 -5.98,33.7 -18.54,66.4 -37.84,94.8 -73.85,108.7 -219.93,119.6 -339.11,106 -83.6,-9.5 -158.7,-59.8 -198.21,-134.3 -45.86,-86.4 -30.07,-181.3 1.61,-269.7 4.08,-11.4 8.44,-22.7 12.96,-33.9 1.33,-3.3 2.67,-6.6 4.02,-9.9 l 78.74,13.6" /><path
         id="path294"
         style="fill:#d28572;fill-opacity:1;fill-rule:nonzero;stroke:none"
         d="m 7255.41,7984.3 c 0,-45.7 -37.11,-82.9 -82.91,-82.9 -45.78,0 -82.9,37.2 -82.9,82.9 0,45.8 37.12,83 82.9,83 45.8,0 82.91,-37.2 82.91,-83" /></g></g></svg>